<?xml version="1.0" encoding="UTF-8"?><svg id="Layer_1" xmlns="http://www.w3.org/2000/svg" viewBox="0 0 150 150"><defs><style>.cls-1,.cls-2{fill:#fff;}.cls-2{fill-rule:evenodd;}</style></defs><path class="cls-1" d="M36.94,96.29c-10.29-1.6-15.87-4.8-20.73-9.89-6.42-6.77-9.61-14.94-9.61-24.49s3.19-17.76,9.61-24.53c6.42-6.77,14.16-10.14,23.21-10.14h27.15s.08,.29,.08,.42c.56,2.15,1.63,4.04,3.23,5.72,1.36,1.43,2.87,2.48,4.55,3.11,1.32,.5,2.75,.72,4.27,.72h9.25v-5.05h10.41c.68,0,1.28-.25,1.79-.8,.48-.55,.76-1.18,.76-1.94s-.24-1.35-.76-1.89c-.48-.5-1.08-.8-1.79-.8h-10.41v-5.51h10.41c.68,0,1.28-.25,1.79-.8,.48-.5,.76-1.14,.76-1.85s-.24-1.39-.76-1.89c-.48-.5-1.08-.8-1.79-.8h-10.41v-5.09h-9.25c-1.52,0-2.95,.25-4.27,.76-1.67,.63-3.19,1.68-4.55,3.11-1.67,1.77-2.79,3.83-3.31,6.1h-27.19c-10.73,0-19.9,4-27.47,11.99C4.32,40.75,.54,50.43,.54,61.74s3.79,21.04,11.36,29.08c6.02,6.35,13.08,10.14,25,11.82v-6.44l.04,.08Z"/><path class="cls-1" d="M35.66,102.9v20.37c.04,3.16,1.16,5.89,3.35,8.16,1.95,2.06,4.27,3.28,6.86,3.53,.4,.08,.84,.08,1.28,.08h21.09v3.87h8.41v-3.87h31.14v3.87h8.41v-3.87h21.37c2.99-.04,5.54-1.26,7.7-3.53,.04-.04,.08-.13,.12-.13,1.6-1.64,2.59-3.49,3.07-5.6,.2-.93,.32-1.85,.32-2.86v-5.85h-7.86c-.64,0-1.2-.25-1.63-.72-.44-.46-.68-1.05-.68-1.73s.24-1.26,.68-1.73c.48-.46,1-.72,1.63-.72h7.86v-6.4h-7.86c-.64,0-1.2-.25-1.63-.72-.44-.5-.68-1.05-.68-1.73s.24-1.26,.68-1.73c.48-.46,1-.72,1.63-.72h7.86v-6.4h-7.86c-.64,0-1.2-.25-1.63-.72-.44-.5-.68-1.05-.68-1.73s.24-1.26,.68-1.73c.48-.46,1-.72,1.63-.72h7.86v-6.4h-7.86c-.64,0-1.2-.25-1.63-.72-.44-.5-.68-1.05-.68-1.73s.24-1.26,.68-1.73c.48-.46,1-.72,1.63-.72h7.86v-6.4h-7.86c-.64,0-1.2-.25-1.63-.72-.44-.5-.68-1.05-.68-1.73s.2-1.22,.68-1.73c.48-.5,1-.72,1.63-.72h7.86v-5.89c0-3.32-1.12-6.19-3.43-8.58-2.07-2.15-4.51-3.32-7.34-3.49h-.44l.04,.34H47.15c-3.11-.04-5.82,1.14-8.09,3.45-.04,.04-.08,.08-.12,.13-2.19,2.4-3.27,5.22-3.27,8.5v41.36Zm89.92,16.11c-.16,1.05-.64,1.94-1.44,2.61-.76,.67-1.63,1.01-2.63,1.01H62.66c-.96,0-1.87-.34-2.63-1.01-.76-.67-1.24-1.51-1.4-2.57-.2-1.05,0-2.02,.48-2.95l29.39-53.82c.52-.88,1.24-1.51,2.19-1.89l-.08-.04c.96-.38,1.91-.38,2.83,0,.96,.34,1.67,.97,2.19,1.89l29.47,53.82c.48,.93,.64,1.89,.48,2.95Z"/><path class="cls-2" d="M98.35,75.88c-1.59,5.81-3.19,11.61-4.78,17.42h10.65c-6.26,8.25-12.52,16.49-18.78,24.74h-1c1.6-5.81,3.19-11.61,4.78-17.42h-10.65c6.26-8.25,12.52-16.49,18.74-24.74h1.04Z"/></svg>