<?xml version="1.0" encoding="UTF-8"?><svg id="Layer_1" xmlns="http://www.w3.org/2000/svg" viewBox="0 0 150 150"><defs><style>.cls-1{fill:#fff;}</style></defs><path class="cls-1" d="M84.29,88.5c0,5.13-4.16,9.29-9.29,9.29s-9.29-4.16-9.29-9.29,4.05-9.18,9.09-9.29h.41c5.03,.11,9.09,4.22,9.09,9.29Z"/><path class="cls-1" d="M148.8,54.86L75,2.27,1.19,54.86c-2.38,2.11-.88,6.04,2.29,6.04h12.82v70.77c0,8.86,7.2,16.06,16.07,16.06H117.63c8.87,0,16.06-7.2,16.06-16.06V60.91h12.83c3.17,0,4.67-3.94,2.28-6.04Zm-55.6-12.07c5.65,0,10.23,4.57,10.23,10.23s-4.58,10.22-10.23,10.22-10.23-4.57-10.23-10.22,4.58-10.23,10.23-10.23Zm-36.37,0c5.65,0,10.22,4.57,10.22,10.23s-4.57,10.22-10.22,10.22-10.23-4.57-10.23-10.22,4.58-10.23,10.23-10.23Zm19.75,95.23h-3.93v-14.42h3.93v14.42Zm40.87-36.81l-.17,.08c-1.96,.96-4.33,.14-5.28-1.83l-5.22-10.76,3.84,30.21h-5.49v14.87c0,2.34-1.89,4.24-4.24,4.24h-16.6v-24.81l12.68-18.83c.92-1.37,.56-3.23-.81-4.14l-1.04-.71c-1.38-.92-3.23-.56-4.15,.81l-8.37,12.43v-.86c0-1.41-1.14-2.55-2.55-2.55h-10.11c-1.41,0-2.55,1.14-2.55,2.55v.87l-8.38-12.44c-.91-1.37-2.77-1.73-4.14-.81l-1.04,.71c-1.37,.91-1.73,2.77-.81,4.14l11.9,17.67v25.97h-15.79c-2.34,0-4.24-1.89-4.24-4.24v-14.87h-5.49l3.85-30.28-5.25,10.82c-.96,1.97-3.32,2.79-5.29,1.83l-.16-.08c-1.97-.96-2.8-3.32-1.84-5.29l14.18-29.22h0s23.85-.01,23.85-.01v.05l6.04,12.48h.41l6.07-12.52h0s23.85-.01,23.85-.01v.05l14.15,29.18c.95,1.97,.13,4.33-1.84,5.29Z"/></svg>