<?xml version="1.0" encoding="UTF-8"?><svg id="Layer_1" xmlns="http://www.w3.org/2000/svg" viewBox="0 0 150 150"><defs><style>.cls-1{fill:#fff;}</style></defs><polygon class="cls-1" points="149.79 132.65 144.91 132.65 144.91 144.91 122.83 144.91 122.83 138.21 117.95 138.21 117.95 144.91 93.36 144.91 93.36 138.21 88.48 138.21 88.48 144.91 63.96 144.91 63.96 138.21 59.08 138.21 59.08 144.91 34.55 144.91 34.55 138.21 29.67 138.21 29.67 144.91 5.09 144.91 5.09 120.33 12.47 120.33 12.47 115.45 5.09 115.45 5.09 90.92 12.47 90.92 12.47 86.04 5.09 86.04 5.09 61.52 12.47 61.52 12.47 56.64 5.09 56.64 5.09 32.05 12.47 32.05 12.47 27.17 5.09 27.17 5.09 5.09 17.35 5.09 17.35 .21 5.09 .21 2.65 .21 .21 .21 .21 144.91 .21 147.35 .21 149.79 149.79 149.79 149.79 147.35 149.79 147.35 149.79 132.65"/><path class="cls-1" d="M49.26,34.66c10.73-7.66,19.36-18.79,24.98-31.51H39.66c-7.66,0-13.91,6.93-13.91,15.5v26.68c8.29-1.93,16.29-5.56,23.45-10.67"/><path class="cls-1" d="M71.79,36.59c6.53,6.53,13.57,12.32,21.12,17.37,17.31,11.69,36.84,19.42,56.88,22.54V18.66c0-8.57-6.24-15.5-13.91-15.5h-44.62c-4.37,12.55-11.07,23.9-19.47,33.44Z"/><path class="cls-1" d="M98.02,76.85c-13.91-7.55-26.85-17.26-38.38-28.95-.85,.62-1.65,1.25-2.5,1.87-9.59,6.81-20.27,11.24-31.39,13.34v46.32c0,8.57,6.24,15.5,13.91,15.5h24.24c8.29-18.34,19.81-34.74,34.06-48.08"/><path class="cls-1" d="M114.48,84.57c-13.28,10.56-24.52,24.52-32.87,40.31h54.27c7.66,0,13.91-6.93,13.91-15.5v-15.33c-12.04-1.7-23.9-4.88-35.31-9.48Z"/></svg>