<?xml version="1.0" encoding="UTF-8"?><svg id="Layer_1" xmlns="http://www.w3.org/2000/svg" viewBox="0 0 150 150"><defs><style>.cls-1{fill:#fff;}</style></defs><path class="cls-1" d="M81.7,116.89c0,5.25,0,16.01,14.88,20.25v.48c0,.29,.19,.54,.43,.76H52.92c.31-.22,.49-.48,.49-.76v-.48c14.88-4.27,14.88-15.41,14.88-20.25,0-3.63-4.63-5.83-9.08-6.97h31.56c-4.45,1.15-9.08,3.34-9.08,6.97m-10.13-30.02c1.91-3.06,1.67-5.6,1.05-7.26h4.69c-.62,1.66-.86,4.2,1.11,7.26,.68,1.08,.99,1.75,1.11,2.23h-9.14c.19-.45,.49-1.15,1.17-2.23m.99-21.26s-.37-.25-.56-.32c.12-.35,.37-.86,.86-1.66,1.42-2.26,1.36-4.17,.93-5.51h2.41c-.43,1.34-.43,3.25,.99,5.51,.49,.8,.74,1.31,.86,1.66-.25,.1-.43,.19-.62,.32-.19,.16-.31,.35-.37,.54h-4.14c0-.19-.19-.38-.37-.54Zm74.61,23.43h-62.38c-.19-.8-.68-1.78-1.48-3.06-2.29-3.6-.99-6.18-.37-7.04,1.36-.45,2.22-1.11,2.29-1.88h26.43c4.01,0,18.28-1.27,20.07-7.23,1.11-.16,1.98-.67,1.98-1.3v-1.08c0-.73-1.17-1.34-2.59-1.34h-47.86c.19-.86-.31-1.97-1.17-3.34-1.67-2.64-.8-4.55-.37-5.25,1.17-.45,1.91-1.05,1.91-1.78,0-1.31-2.47-2.36-5.62-2.36h-6.05c-3.15,0-5.62,1.05-5.62,2.36,0,.7,.68,1.3,1.79,1.75,.49,.7,1.42,2.61-.25,5.32-.86,1.4-1.42,2.52-1.17,3.34H18.83c-1.42,0-2.59,.6-2.59,1.34v1.08c0,.64,.8,1.15,1.98,1.31,1.85,5.95,16.06,7.23,20.07,7.23h26.43c.12,.73,.93,1.4,2.16,1.85,.62,.86,2.04,3.44-.25,7.1-.8,1.27-1.3,2.26-1.48,3.06H2.77c-1.42,0-2.59,.61-2.59,1.34v1.4c0,.7,1.05,1.31,2.41,1.34,1.67,6.59,15.44,8.69,22.42,9.17,2.35,1.88,10.5,7.61,23.84,7.61h2.16v.41c0,.64,.93,1.21,2.1,1.34,.43,.03,9.94,1.05,9.94,5.22,0,4.87,0,15.03-13.34,18.21-.93,.22-1.48,.67-1.48,1.21-1.11,.16-1.91,.67-1.91,1.3v2.1c0,.73,1.17,1.34,2.59,1.34h52.25c1.42,0,2.59-.61,2.59-1.34v-2.1c0-.64-.8-1.15-1.91-1.3,0-.54-.62-.99-1.48-1.21-13.34-3.22-13.34-13.34-13.34-18.21,0-4.17,9.51-5.19,9.88-5.22,1.24-.13,2.1-.67,2.1-1.34v-.41h2.16c13.4,0,21.49-5.7,23.84-7.61,6.98-.45,20.75-2.55,22.42-9.17,1.36-.03,2.41-.64,2.41-1.34v-1.4c0-.73-1.17-1.34-2.59-1.34"/><path class="cls-1" d="M98.62,20.15c.68,.67,2.29,.89,3.52,.54,1.3-.35,1.73-1.18,1.05-1.81-.68-.67-2.29-.89-3.58-.54-1.24,.35-1.73,1.18-1.05,1.81"/><path class="cls-1" d="M118.45,44.76c-1.42,.22-2.16,.99-1.73,1.69,.43,.73,1.85,1.11,3.27,.89,1.36-.22,2.16-.96,1.73-1.69-.43-.7-1.85-1.11-3.27-.89Z"/><path class="cls-1" d="M106.53,32.09c.56,.7,2.04,1.02,3.4,.73,1.36-.29,1.98-1.05,1.48-1.75-.56-.7-2.04-1.02-3.4-.76-1.36,.29-1.98,1.05-1.42,1.75"/><path class="cls-1" d="M47.43,20.66c1.3,.35,2.84,.13,3.58-.54,.68-.67,.25-1.46-1.05-1.85-1.24-.35-2.84-.13-3.52,.54-.68,.67-.25,1.46,1.05,1.81"/><path class="cls-1" d="M29.58,47.34c1.36,.22,2.84-.19,3.27-.89,.43-.7-.37-1.46-1.73-1.69-1.36-.22-2.84,.19-3.27,.89-.43,.7,.37,1.46,1.73,1.69Z"/><path class="cls-1" d="M39.64,32.85c1.36,.29,2.84-.06,3.4-.73,.56-.7-.12-1.46-1.42-1.75-1.36-.29-2.84,.06-3.4,.76-.56,.7,.12,1.46,1.48,1.75"/><path class="cls-1" d="M74.66,11.84c1.54,0,2.84-.67,2.84-1.46s-1.3-1.46-2.84-1.46-2.84,.64-2.84,1.46,1.3,1.46,2.84,1.46Z"/><path class="cls-1" d="M31.61,42.31c1.24,.38,2.84,.19,3.58-.41,3.71-3.02,10.01-4.84,16.98-4.84,10.99,0,19.95,4.62,19.95,10.28v.32c-2.84,.54-4.82,1.91-4.82,3.57,0,.89,.62,1.69,1.54,2.32h11.61c.99-.64,1.54-1.46,1.54-2.32,0-1.59-1.91-2.96-4.63-3.53v-.35c0-5.67,8.96-10.28,19.95-10.28,6.92,0,13.28,1.81,16.98,4.84,.74,.64,2.41,.83,3.58,.41,1.24-.38,1.61-1.24,.86-1.85-4.63-3.82-12.66-6.11-21.43-6.11-8.15,0-15.38,2.01-19.95,5.09v-6.59c0-4.23,6.73-7.7,14.95-7.7,4.26,0,8.4,.96,11.24,2.61,.93,.54,2.59,.6,3.71,.13,1.11-.48,1.17-1.34,.25-1.91-3.83-2.23-9.39-3.53-15.13-3.53s-11.3,1.34-14.95,3.44v-5.19c0-3.15,4.94-5.7,11.05-5.7,2.35,0,4.57,.38,6.48,1.08,1.17,.45,2.78,.32,3.64-.29s.62-1.43-.56-1.88c-2.78-1.05-6.11-1.59-9.57-1.59-5.74,0-10.75,1.53-13.65,3.85-2.9-2.32-7.97-3.85-13.71-3.85-3.46,0-6.79,.54-9.57,1.59-1.17,.45-1.42,1.27-.62,1.88,.86,.6,2.47,.73,3.64,.29,1.91-.7,4.14-1.08,6.48-1.08,6.11,0,11.05,2.55,11.05,5.7v5.19c-3.71-2.1-9.02-3.44-14.95-3.44s-11.3,1.27-15.13,3.53c-.93,.57-.86,1.4,.25,1.91,1.05,.51,2.72,.45,3.71-.13,2.84-1.66,6.92-2.61,11.24-2.61,8.28,0,14.95,3.47,14.95,7.7v6.59c-4.63-3.09-11.86-5.09-19.95-5.09-8.77,0-16.74,2.29-21.37,6.11-.74,.64-.37,1.46,.86,1.85"/></svg>