<?xml version="1.0" encoding="UTF-8"?><svg id="Layer_1" xmlns="http://www.w3.org/2000/svg" viewBox="0 0 150 150"><defs><style>.cls-1{fill:#fff;}</style></defs><g><path class="cls-1" d="M136.6,95.46c-4.97-1.29-9.93-2.53-14.94-3.36-7.58-1.2-14.37-4.09-20.52-8.87-3.57-2.8-7.32-5.24-10.98-7.86-5.14-3.72-10.76-5.56-16.99-5.52-7.88,.05-15.77,.14-23.65,0-8.54-.14-15.72,2.85-21.87,9.1-1.79,1.79-3.83,3.31-5.92,4.73-3.83,2.57-8.19,3.72-12.54,4.69-2.87,.64-4.57,2.71-4.57,5.7-.09,7.17-.04,14.39,0,21.56,0,.6,.22,1.52,.65,1.75,2.31,1.29,4.66,2.39,7.01,3.54,1.79-7.58,6.01-11.81,13.2-12.64,6.88-.78,14.16,5.33,14.77,12.64,.13,1.47,.61,1.7,1.87,1.7H110.03c.91-9.84,7.97-14.43,14.42-14.43,7.22,0,11.96,4.86,14.06,14.39h2.8c2.7,0,4.09-1.52,4.14-4.37,0-3.4-.17-6.8,.04-10.16,.35-5.29-4.44-11.45-8.89-12.6Zm-73.44,10.99c-1.05,.05-2.13,0-3.18,0l-.04,.05h-3.05c-1.39-.09-2.35-1.01-2.27-2.25,.09-1.38,.91-2.16,2.18-2.21,2.18-.09,4.36-.09,6.53,0,1.35,.09,2.09,1.01,2.05,2.3-.04,1.24-.87,2.07-2.22,2.11Zm41.9-7.91H46.38c-1.18-.18-1.87-.87-1.87-2.16s.7-2.16,1.96-2.21c1.74-.09,3.48,0,5.27-.05h1.87v-16.41c-7.58-.64-14.55,.37-20.43,6.02-2.87,2.76-6.27,5.01-9.37,7.54-.52,.41-.78,1.24-1.13,1.88,.65,.32,1.26,.92,1.92,.97,2.53,.14,5.05,0,7.58,.05,1.7,0,2.57,.83,2.53,2.25,0,1.38-.87,2.16-2.48,2.16-2.79,0-5.53,.05-8.32,0-2.74-.05-4.7-1.65-5.4-4.28-.65-2.48,.17-5.1,2.48-6.48,3.83-2.3,7.14-5.29,10.41-8.37,4.27-3.91,9.37-6.11,15.03-6.21,9.41-.14,18.86-.09,28.31,0,5.05,0,9.58,1.93,13.76,4.83,5.49,3.82,10.93,7.68,16.38,11.49,1.74,1.2,2.87,2.76,3.14,4.92,.3,2.21-.91,3.86-2.96,4.05Z"/><path class="cls-1" d="M138.51,122.63s0-.03-.01-.05h-.08l.09,.05Z"/><path class="cls-1" d="M85.89,81.54c-3.14-2.16-6.53-3.68-10.32-3.77-5.75-.14-11.46-.14-17.21-.18-.09,0-.17,.09-.3,.18v16.27h45.13s.22-.28,.3-.41c-.22-.09-.52-.14-.7-.28-5.62-3.91-11.24-7.91-16.9-11.81Z"/></g><path class="cls-1" d="M29.69,123.17c.14-1.7-1.36-3.4-3.13-3.54-1.84-.2-3.54,1.29-3.67,3.2-.07,1.84,1.22,3.4,3.06,3.54,1.9,.14,3.54-1.29,3.67-3.2"/><path class="cls-1" d="M26.13,113.16c-5.44,0-9.76,4.46-9.76,9.93s4.49,9.8,9.89,9.8h.04c5.49,0,9.84-4.46,9.8-10.02-.04-5.43-4.49-9.76-9.97-9.71Zm.16,16.67c-3.72,0-6.85-3.13-6.85-6.9s3.08-6.71,6.8-6.71,6.8,3.03,6.8,6.85-3.03,6.76-6.76,6.76Z"/><g><path class="cls-1" d="M124.97,28.94c-1.55-.28-3.14-.24-4.77-.32v8.15c1.59-.08,3.07-.04,4.51-.32,.68-.12,1.48-.76,1.82-1.4,.8-1.52,.76-3.2,0-4.76-.3-.6-.98-1.28-1.55-1.36Z"/><path class="cls-1" d="M144.21,12.04h-41.28c-1.17,0-2.12,1-2.12,2.24V57.83c0,1.24,.95,2.24,2.12,2.24h19.4v30.68c0,2.97,.83,4.65,2.48,5.03V60.07h19.4c1.17,0,2.12-1,2.12-2.24V14.27c0-1.24-.95-2.24-2.12-2.24Zm-13.26,22.34c-.53,3.32-2.69,5.35-5.87,5.59-1.59,.12-3.18,0-4.92,0v7.03c0,1.56-.61,2.12-2.12,2.12s-1.97-.56-1.97-2.08V26.86c0-1.52,.38-1.96,1.78-1.96,2.46,0,4.92-.04,7.35,.08,3.37,.2,5.6,2.64,5.83,6.19,.08,1.08,.08,2.16-.08,3.2Z"/></g><path class="cls-1" d="M127.63,123.19c.14-1.7-1.36-3.4-3.13-3.54-1.84-.2-3.54,1.29-3.67,3.2-.07,1.84,1.22,3.4,3.06,3.54,1.9,.14,3.54-1.29,3.67-3.2"/><path class="cls-1" d="M124.07,113.18c-5.44,0-9.76,4.46-9.76,9.93s4.49,9.8,9.89,9.8h.04c5.49,0,9.84-4.46,9.8-10.02-.04-5.43-4.49-9.76-9.97-9.71Zm.16,16.67c-3.72,0-6.85-3.13-6.85-6.9s3.08-6.71,6.8-6.71,6.8,3.03,6.8,6.85-3.03,6.76-6.76,6.76Z"/></svg>