<?xml version="1.0" encoding="UTF-8"?><svg id="Layer_1" xmlns="http://www.w3.org/2000/svg" viewBox="0 0 150 150"><defs><style>.cls-1{fill:#fff;}.cls-2{fill:none;stroke:#fff;stroke-miterlimit:10;stroke-width:3px;}</style></defs><path class="cls-1" d="M75.22,1.46c-.96,0-1.92,.22-2.72,.66L17.66,32.1c-1.16,.63-1.82,1.6-1.82,2.66s.66,2.02,1.82,2.66l54.85,29.99c1.6,.88,3.84,.88,5.44,0l54.85-29.99c1.16-.63,1.82-1.6,1.82-2.66s-.66-2.02-1.82-2.66L77.95,2.12c-.8-.44-1.76-.66-2.72-.66Z"/><path class="cls-2" d="M134.61,52.22c0,.92-.66,1.76-1.82,2.32l-18.33,8.72-23.2,11.02-13.31,6.33c-1.6,.76-3.84,.76-5.44,0l-13.77-6.55-22.97-10.92-18.11-8.61c-1.16-.56-1.83-1.4-1.83-2.32s.66-1.76,1.83-2.31l54.85-26.08c.8-.38,1.76-.58,2.72-.58s1.93,.2,2.73,.58l54.85,26.08c1.15,.55,1.82,1.39,1.82,2.31Z"/><path class="cls-2" d="M134.39,74.17c0,.92-.66,1.76-1.82,2.32l-18.33,8.72-23.19,11.02h0l-13.32,6.34c-1.59,.76-3.84,.76-5.43,0l-13.78-6.56-22.97-10.92-18.1-8.61c-1.16-.56-1.83-1.4-1.83-2.32s.66-1.76,1.82-2.31l18.34-8.72,22.97,10.92,13.77,6.55c1.6,.76,3.84,.76,5.44,0l13.31-6.33,23.2-11.02,18.11,8.61c1.15,.55,1.82,1.39,1.82,2.31Z"/><path class="cls-2" d="M134.16,96.13c0,.92-.66,1.76-1.83,2.31l-18.33,8.72-36.51,17.37c-1.6,.76-3.84,.76-5.44,0l-36.74-17.47-18.11-8.61c-1.15-.55-1.82-1.39-1.82-2.31s.66-1.77,1.82-2.32l18.33-8.72,22.97,10.92,13.78,6.56c1.59,.76,3.84,.76,5.43,0l13.32-6.34h0l23.19-11.02,18.1,8.61c1.16,.55,1.83,1.4,1.83,2.32Z"/><path class="cls-2" d="M132.11,115.76l-18.11-8.61-36.51,17.37c-1.6,.76-3.84,.76-5.44,0l-36.74-17.47-18.33,8.72c-1.15,.56-1.82,1.4-1.82,2.32s.66,1.76,1.82,2.31l54.85,26.08c1.6,.76,3.84,.76,5.44,0l54.85-26.08c1.15-.55,1.82-1.39,1.82-2.31s-.66-1.76-1.82-2.32Z"/></svg>