<?xml version="1.0" encoding="UTF-8"?><svg id="Layer_1" xmlns="http://www.w3.org/2000/svg" viewBox="0 0 150 150"><defs><style>.cls-1{fill:#fff;}</style></defs><path class="cls-1" d="M118.06,138.66h5.64l-2.42-9.87s-.05-.28-.11-.45l-21.72-81.01h-5.21l23.81,91.33Z"/><path class="cls-1" d="M55.49,47.38h-5l-21.66,81.01s-.05,.28-.11,.45l-2.42,9.87h5.43L55.49,47.38Z"/><polygon class="cls-1" points="91.13 47.38 90.54 47.38 77.47 47.38 72.2 47.38 59.14 47.38 58.66 47.38 34.84 138.71 36.19 138.71 67.2 138.71 82.42 138.71 113.44 138.71 114.89 138.71 91.13 47.38"/><path class="cls-1" d="M120.42,33.03c1.34-.68,2.85-1.02,4.35-1.02s3.01,.34,4.3,1.02c1.45,.74,2.74,1.7,3.92,2.84-1.77-11.06-6.29-20.71-12.53-23.94-1.61-.85-3.49-.85-5.11,0-8.12,4.14-13.33,19.29-13.33,34.21,0,7.15,1.34,11.4,3.6,14.07,1.83-11.57,6.61-22.98,14.73-27.17"/><path class="cls-1" d="M129.56,58.56c1.34-.68,2.85-1.08,4.35-1.08s3.01,.4,4.35,1.08c.48,.23,.91,.57,1.4,.85-1.94-10.44-6.34-19.4-12.26-22.46-1.61-.85-3.49-.85-5.11,0-8.12,4.14-13.33,19.29-13.33,34.21,0,9.19,2.2,13.62,5.75,16,1.67-12.03,6.5-24.17,14.94-28.53"/><path class="cls-1" d="M118.01,96.62c0-14.92,5.21-30.01,13.33-34.21,1.61-.85,3.49-.85,5.11,0,8.12,4.14,13.33,19.29,13.33,34.21s-5.64,17.13-13.49,18.83c.32,5.39,1.13,16.74,2.2,18.49h-9.25c1.08-1.76,1.88-13.05,2.2-18.49-7.69-1.65-13.49-3.91-13.49-18.83"/><path class="cls-1" d="M29.52,33.03c-1.34-.68-2.85-1.02-4.35-1.02s-3.01,.34-4.35,1.02c-1.4,.74-2.74,1.7-3.92,2.84,1.77-11.06,6.29-20.71,12.53-23.94,1.61-.85,3.49-.85,5.11,0,8.12,4.14,13.33,19.29,13.33,34.21,0,7.15-1.34,11.4-3.6,14.07-1.83-11.57-6.61-22.98-14.73-27.17"/><path class="cls-1" d="M20.44,58.56c-1.34-.68-2.85-1.08-4.35-1.08s-3.01,.4-4.35,1.08c-.48,.23-.91,.57-1.4,.85,1.94-10.44,6.29-19.4,12.26-22.46,1.61-.85,3.49-.85,5.11,0,8.12,4.14,13.33,19.29,13.33,34.21,0,9.19-2.2,13.62-5.7,16-1.67-12.03-6.5-24.17-14.94-28.53"/><path class="cls-1" d="M31.99,96.62c0-14.92-5.21-30.01-13.33-34.21-1.61-.85-3.49-.85-5.11,0C5.44,66.55,.22,81.7,.22,96.62s5.64,17.13,13.49,18.83c-.32,5.39-1.13,16.74-2.2,18.49h9.25c-1.08-1.76-1.88-13.05-2.2-18.49,7.69-1.65,13.49-3.91,13.49-18.83"/></svg>