<?xml version="1.0" encoding="UTF-8"?><svg id="Layer_1" xmlns="http://www.w3.org/2000/svg" viewBox="0 0 150 150"><defs><style>.cls-1{fill:#fff;}</style></defs><rect class="cls-1" x=".14" y="145.54" width="149.71" height="3.74"/><rect class="cls-1" x="3.29" y="122.47" width="9.33" height="3.74"/><rect class="cls-1" x="22" y="122.47" width="9.33" height="3.74"/><rect class="cls-1" x="40.71" y="122.47" width="9.33" height="3.74"/><rect class="cls-1" x="59.43" y="122.47" width="9.33" height="3.74"/><rect class="cls-1" x="78.14" y="122.47" width="9.33" height="3.74"/><rect class="cls-1" x="96.86" y="122.47" width="9.33" height="3.74"/><rect class="cls-1" x="115.57" y="122.47" width="9.33" height="3.74"/><rect class="cls-1" x="134.29" y="122.47" width="9.33" height="3.74"/><rect class="cls-1" x="103.09" y="40.21" width="18.71" height="3.74"/><rect class="cls-1" x="28.24" y="40.21" width="18.71" height="3.74"/><path class="cls-1" d="M31.33,56.64h-9.33v3.74h9.33v-3.74Zm-13.8,48.55l15.57-46.08-3.55-1.2-15.57,46.08,3.55,1.2ZM.14,106.47H15.76v-3.74H.14v3.74ZM31.33,58.52l1.77,.6,.83-2.47h-2.61v1.87Zm-15.57,46.08v1.87h1.34l.43-1.27-1.77-.6Z"/><path class="cls-1" d="M46.95,60.39h6.24v-3.74h-6.24v3.74Zm-7.55,44.58l9.38-46.08-3.67-.75-9.38,46.08,3.67,.75Zm73.02-2.24H37.57v3.74H112.43v-3.74Zm-11.17-43.84l9.33,46.08,3.67-.74-9.33-46.08-3.67,.74Zm-4.4,1.5h6.24v-3.74h-6.24v3.74Zm-49.9-1.87v-1.87h-1.53l-.31,1.5,1.83,.37Zm-9.38,46.08l-1.83-.37-.46,2.24h2.29v-1.87Zm74.86,0v1.87h2.29l-.45-2.24-1.83,.37Zm-9.33-46.08l1.83-.37-.3-1.5h-1.53v1.87Z"/><path class="cls-1" d="M134.29,106.47h15.57v-3.74h-15.57v3.74Zm-17.39-47.35l15.62,46.08,3.54-1.2-15.62-46.08-3.54,1.2Zm11.15-2.47h-9.38v3.74h9.38v-3.74Zm6.24,47.95l-1.77,.6,.43,1.27h1.34v-1.87Zm-15.62-46.08v-1.87h-2.61l.84,2.47,1.77-.6Z"/><path class="cls-1" d="M75,2.59c-12.08,0-21.86,10.11-21.86,22.54,0,18.06,21.86,46.61,21.86,46.61,0,0,21.86-28.54,21.86-46.61,0-12.43-9.78-22.54-21.86-22.54Zm0,30.32c-4.03,0-7.3-3.27-7.3-7.3s3.27-7.31,7.3-7.31,7.31,3.27,7.31,7.31-3.27,7.3-7.31,7.3Z"/></svg>