<?xml version="1.0" standalone="no"?>
<!DOCTYPE svg PUBLIC "-//W3C//DTD SVG 1.1//EN" "http://www.w3.org/Graphics/SVG/1.1/DTD/svg11.dtd" >
<svg xmlns="http://www.w3.org/2000/svg" xmlns:xlink="http://www.w3.org/1999/xlink" version="1.1">
<metadata>
Created by FontForge 20170731 at Thu May  6 04:00:12 1999
 By Aleksey,,,
Copyright (c) 1995 Adobe Systems Incorporated.  All Rights Reserved.Optima is a trademark of Linotype-Hell AG and/or its subsidiaries.
</metadata>
<defs>
<font id="OptimaDemiBold" horiz-adv-x="259" >
  <font-face 
    font-family="Optima"
    font-weight="400"
    font-stretch="normal"
    units-per-em="1000"
    panose-1="0 0 4 0 0 0 0 0 0 0"
    ascent="800"
    descent="-200"
    x-height="479"
    cap-height="686"
    bbox="-140 -264 1002 919"
    underline-thickness="50"
    underline-position="-175"
    unicode-range="U+0020-F002"
  />
<missing-glyph horiz-adv-x="500" 
d="M63 0v741h375v-741h-375zM125 63h250v616h-250v-616z" />
    <glyph glyph-name=".notdef" horiz-adv-x="500" 
d="M63 0v741h375v-741h-375zM125 63h250v616h-250v-616z" />
    <glyph glyph-name=".null" horiz-adv-x="0" 
 />
    <glyph glyph-name="nonmarkingreturn" horiz-adv-x="260" 
 />
    <glyph glyph-name="space" unicode=" " horiz-adv-x="260" 
 />
    <glyph glyph-name="exclam" unicode="!" horiz-adv-x="278" 
d="M196 512l-48 -320h-21l-46 329q-8 57 -8 91t17.5 55.5t49.5 21.5q30 0 48 -21t18 -51q0 -38 -10 -105zM68 68q0 29 20.5 50t50.5 21q29 0 50 -21t21 -50q0 -28 -21 -49.5t-50 -21.5q-30 0 -50.5 21t-20.5 50z" />
    <glyph glyph-name="quotedbl" unicode="&#x22;" horiz-adv-x="444" 
d="M79 710h105l-34 -309h-45zM260 710h105l-34 -309h-45z" />
    <glyph glyph-name="numbersign" unicode="#" horiz-adv-x="519" 
d="M186 270h123l24 133h-123zM371 200l-37 -200h-75l37 200h-123l-37 -200h-75l37 200h-100v70h113l24 133h-105v70h118l35 195h75l-35 -195h123l35 195h75l-35 -195h100v-70h-113l-24 -133h105v-70h-118z" />
    <glyph glyph-name="dollar" unicode="$" horiz-adv-x="519" 
d="M231 35v258q-75 31 -86 36q-47 25 -70 59q-29 43 -29 103q0 69 36 120q48 67 149 80v65h47v-62h1q72 0 167 -41q-13 -27 -32 -95h-14q-23 82 -122 88v-231q68 -26 79 -31q45 -21 69 -47q50 -55 50 -132q0 -87 -58 -146.5t-140 -67.5v-98h-47v93h-10q-87 0 -186 51
q15 51 23 113h14q31 -73 78 -99q30 -16 76 -16h5zM231 435v206q-39 -10 -60 -40q-19 -26 -19 -59q0 -42 19 -66q16 -21 60 -41zM278 273v-229q38 14 59 46t21 70q0 76 -80 113z" />
    <glyph glyph-name="percent" unicode="%" horiz-adv-x="870" 
d="M222 681q77 0 119.5 -43.5t42.5 -120.5q0 -83 -53 -131q-45 -40 -106 -40q-73 0 -119 41q-51 44 -51 123q0 72 39 119q45 52 128 52zM146 508q0 -129 77 -129q70 0 70 142q0 127 -69 127q-78 0 -78 -140zM653 325q77 0 119.5 -43.5t42.5 -120.5q0 -83 -53 -131
q-45 -40 -106 -40q-73 0 -119 41q-51 44 -51 123q0 72 39 119q45 52 128 52zM577 152q0 -129 77 -129q70 0 70 142q0 127 -69 127q-78 0 -78 -140zM611 696h48l-400 -717h-48z" />
    <glyph glyph-name="ampersand" unicode="&#x26;" horiz-adv-x="722" 
d="M626 384l50 -54q-46 -81 -129 -175q55 -59 137 -141v-14q-90 6 -95 6q-22 0 -64 -4l-60 70q-113 -86 -215 -86q-67 0 -116 29q-26 15 -47 44q-32 42 -32 92q0 135 174 209q-67 72 -67 156q0 65 47.5 109.5t126.5 44.5q75 0 112 -41q29 -33 29 -80q0 -84 -127 -161
q49 -60 169 -200q82 98 98 194zM310 51q65 0 126 55q-100 114 -185 225q-85 -60 -85 -141q0 -63 48 -104q43 -35 96 -35zM259 552q0 -43 69 -135q87 65 87 134q0 36 -20 60t-56 24q-34 0 -57 -24.5t-23 -58.5z" />
    <glyph glyph-name="quotesingle" unicode="'" 
d="M77 710h105l-34 -309h-45z" />
    <glyph glyph-name="parenleft" unicode="(" horiz-adv-x="315" 
d="M265 723l22 -16q-64 -93 -92 -178q-33 -96 -33 -213q0 -266 126 -422l-22 -24q-197 167 -197 434q0 116 52.5 228t143.5 191z" />
    <glyph glyph-name="parenright" unicode=")" horiz-adv-x="315" 
d="M49 -130l-22 16q64 93 93 178q32 96 32 213q0 266 -126 422l22 24q197 -167 197 -434q0 -116 -52.5 -228t-143.5 -191z" />
    <glyph glyph-name="asterisk" unicode="*" horiz-adv-x="407" 
d="M232 640l-9 -98q48 33 114 89q10 -21 32 -64q-40 -13 -133 -55q68 -34 131 -58q-19 -31 -33 -60q-25 21 -85 67l-26 19q4 -52 13 -140q-33 3 -32 3t-32 -3q7 60 14 139q-43 -30 -113 -84q-14 28 -33 61q95 38 130 56q-43 21 -132 57q20 32 32 62q78 -65 116 -89
q-4 83 -14 147q17 -3 33 -3t32 3q-2 -15 -5 -49z" />
    <glyph glyph-name="plus" unicode="+" horiz-adv-x="667" 
d="M301 565h65v-227h227v-65h-227v-227h-65v227h-227v65h227v227z" />
    <glyph glyph-name="comma" unicode="," 
d="M160 25l-133 -203l-22 10l62 233q20 75 66 75q21 0 36 -12q17 -15 17 -39t-26 -64z" />
    <glyph glyph-name="hyphen" unicode="-" horiz-adv-x="407" 
d="M67 197q5 43 5 58q0 19 -5 46q41 -3 124 -3q56 0 149 3q-5 -42 -5 -52q0 8 5 -52q-21 0 -70 1.5t-74 1.5q-76 0 -129 -3z" />
    <glyph glyph-name="hyphen" unicode="&#x2010;" horiz-adv-x="407" 
d="M67 197q5 43 5 58q0 19 -5 46q41 -3 124 -3q56 0 149 3q-5 -42 -5 -52q0 8 5 -52q-21 0 -70 1.5t-74 1.5q-76 0 -129 -3z" />
    <glyph glyph-name="period" unicode="." 
d="M59 69q0 29 20.5 50t50.5 21q29 0 50 -21t21 -50q0 -28 -21 -49.5t-50 -21.5q-30 0 -50.5 21t-20.5 50z" />
    <glyph glyph-name="slash" unicode="/" horiz-adv-x="389" 
d="M299 707h66l-275 -737h-66z" />
    <glyph glyph-name="zero" unicode="0" horiz-adv-x="519" 
d="M259 30q72 0 85 131q7 72 7 172q0 115 -8 176q-16 124 -83 124q-62 0 -80 -98q-12 -65 -12 -182q0 -154 9 -213q8 -52 20 -74q20 -36 62 -36zM262 676q123 0 176 -111q38 -79 38 -231q0 -165 -56.5 -256t-161.5 -91q-215 0 -215 342q0 156 43 238q57 109 176 109z" />
    <glyph glyph-name="one" unicode="1" horiz-adv-x="519" 
d="M60 528v8q65 24 200 89q51 24 107 61l11 -7q-11 -93 -11 -418q0 -162 7 -261l-28 3q-22 3 -36 3q-13 0 -37 -3q-29 -3 -33 -3q12 115 12 381v185q-69 -45 -149 -85q-10 11 -43 47z" />
    <glyph glyph-name="two" unicode="2" horiz-adv-x="519" 
d="M30 0v35q124 112 197 206q88 114 88 232q0 152 -105 152q-48 0 -79 -37q-27 -32 -33 -98l-8 -6l-59 59q58 132 205 132q83 0 139 -38q69 -48 69 -141q0 -61 -21.5 -107.5t-82.5 -113.5q-27 -30 -95.5 -97t-81.5 -76q259 0 308 7q-5 -25 -5 -58q0 -25 4 -51q-142 6 -220 6
q-124 0 -220 -6z" />
    <glyph glyph-name="three" unicode="3" horiz-adv-x="519" 
d="M94 509h-10q-14 24 -52 67q60 96 199 96q90 0 143.5 -37.5t53.5 -109.5q0 -124 -142 -165q-4 -1 -4 -4t7 -3q171 -11 171 -161q0 -98 -85 -154q-75 -49 -178 -49q-107 0 -177 64q20 30 44 82h11q4 -29 31 -59q39 -42 100 -42q57 0 92 41t35 114q0 57 -27 94
q-33 42 -94 42q-7 0 -55 -8q5 12 5 28q0 22 -5 37q20 -7 36 -7q53 0 84 34t31 98q0 119 -105 119q-94 0 -109 -117z" />
    <glyph glyph-name="four" unicode="4" horiz-adv-x="519" 
d="M296 257v285l-200 -285h200zM118 370l144 204q25 35 63 94q22 -6 44 -6q20 0 44 6q-6 -132 -6 -411q32 0 85 2q-5 -23 -5 -46q0 -21 5 -42q-90 3 -85 3q0 -121 5 -174q-46 6 -56 6q1 0 -68 -6q8 51 8 174q-75 1 -178 1q-44 0 -94 -2v60q0 5 24 38t70 99z" />
    <glyph glyph-name="five" unicode="5" horiz-adv-x="519" 
d="M66 137h10q22 -52 49 -74q32 -27 85 -27q52 0 87 44t35 119q0 66 -30 107q-33 45 -96 45q-42 0 -101 -36l-12 10q3 72 3 143q0 118 -10 191l5 9q90 -6 176 -6q64 0 164 6q-5 -37 -5 -51q0 -4 5 -54q-18 2 -75 2h-209q-2 -26 -2 -101v-41q-1 -28 -1 -43q58 20 105 20
q93 0 149 -45q61 -48 61 -137q0 -109 -82 -172q-73 -55 -180 -55t-174 65q31 51 43 81z" />
    <glyph glyph-name="six" unicode="6" horiz-adv-x="519" 
d="M263 30q97 0 97 168q0 157 -98 157q-93 0 -93 -161q0 -164 94 -164zM331 672q19 0 57 -4q3 -12 14 -43l-5 -3q-16 6 -40 6q-166 0 -190 -281q48 57 126 57q82 0 134 -48q58 -53 58 -151q0 -109 -74 -168q-61 -49 -142 -49q-119 0 -177 89q-49 75 -49 202q0 176 79 284.5
t209 108.5z" />
    <glyph glyph-name="seven" unicode="7" horiz-adv-x="519" 
d="M507 660v-24q-10 -12 -84 -141q-66 -116 -93 -166q-58 -108 -174 -329q-34 6 -54 6q-11 0 -49 -6l-2 7l25 36q42 61 162 258q117 192 149 253h-137q-76 0 -193 -7q5 31 5 56q0 10 -5 65q74 -8 450 -8z" />
    <glyph glyph-name="eight" unicode="8" horiz-adv-x="519" 
d="M260 352q-52 0 -75 -60q-16 -41 -16 -101q0 -160 90 -160q91 0 91 160q0 161 -90 161zM259 628q-75 0 -75 -114q0 -119 76 -119q75 0 75 114q0 119 -76 119zM190 372v5q-51 9 -83 42q-39 37 -39 95q0 79 55 120q50 38 137 38q80 0 131 -35q61 -42 61 -123
q0 -105 -121 -135v-4q81 -21 115 -65q31 -40 31 -113q0 -107 -73 -163q-59 -46 -141 -46q-102 0 -160 50q-62 53 -62 152q0 139 149 182z" />
    <glyph glyph-name="nine" unicode="9" horiz-adv-x="519" 
d="M252 671q118 0 176 -95q47 -77 47 -204q0 -132 -48 -232q-73 -152 -237 -152q-46 0 -88 21q-8 38 -21 72l12 2q46 -46 110 -46q88 0 125 113q22 68 22 158q-42 -52 -132 -52q-54 0 -101 28q-83 50 -83 169q0 101 58 159.5t160 58.5zM252 303q96 0 96 168q0 160 -97 160
q-55 0 -79 -64q-16 -42 -16 -97q0 -167 96 -167z" />
    <glyph glyph-name="colon" unicode=":" horiz-adv-x="278" 
d="M68 69q0 29 20.5 50t50.5 21q29 0 50 -21t21 -50q0 -28 -21 -49.5t-50 -21.5q-30 0 -50.5 21t-20.5 50zM68 390q0 29 20.5 50t50.5 21q29 0 50 -21t21 -50q0 -28 -21 -49.5t-50 -21.5q-30 0 -50.5 21t-20.5 50z" />
    <glyph glyph-name="semicolon" unicode=";" horiz-adv-x="278" 
d="M170 25l-133 -203l-22 10l63 233q20 75 66 75q21 0 37 -13.5t16 -37.5q0 -23 -27 -64zM68 390q0 29 20.5 50t50.5 21q29 0 50 -21t21 -50q0 -28 -21 -49.5t-50 -21.5q-30 0 -50.5 21t-20.5 50z" />
    <glyph glyph-name="less" unicode="&#x3c;" horiz-adv-x="667" 
d="M83 283l501 213v-70l-422 -178l422 -178v-70l-501 213v70z" />
    <glyph glyph-name="equal" unicode="=" horiz-adv-x="667" 
d="M74 261h519v-65h-519v65zM74 416h519v-65h-519v65z" />
    <glyph glyph-name="greater" unicode="&#x3e;" horiz-adv-x="667" 
d="M584 213l-501 -213v70l422 178l-422 178v70l501 -213v-70z" />
    <glyph glyph-name="question" unicode="?" horiz-adv-x="370" 
d="M259 243l-11 -37q-24 -10 -54 -10q-61 0 -93.5 32t-32.5 82q0 30 10 53q18 39 72 93l35 35q38 38 38 77q0 73 -85 73q-53 0 -80 -53h-9l-7 59q58 38 122 38q71 0 119.5 -39.5t48.5 -98.5q0 -49 -26 -90q-16 -24 -65 -75q-23 -24 -47 -47q-28 -33 -28 -58q0 -20 13.5 -33
t33.5 -13q16 0 44 14zM88 69q0 29 20.5 50t50.5 21q29 0 50 -21t21 -50q0 -28 -21 -49.5t-50 -21.5q-30 0 -50.5 21t-20.5 50z" />
    <glyph glyph-name="at" unicode="@" horiz-adv-x="800" 
d="M668 98l16 -27q-128 -91 -298 -91q-144 0 -240 84q-107 92 -107 254q0 165 114.5 271.5t286.5 106.5q143 0 232 -82t89 -207q0 -109 -58 -187.5t-140 -78.5q-88 0 -95 79q-39 -79 -119 -79q-58 0 -91.5 37t-33.5 104q0 81 59 154q63 77 143 77q78 0 93 -62l15 51h72
q-75 -244 -75 -277q0 -48 45 -48q55 1 101 70t46 158q0 114 -79 185t-204 71q-139 0 -234.5 -103t-95.5 -241q0 -134 83.5 -218t219.5 -84q137 0 255 83zM302 257q0 -80 63 -80q49 0 79 62q17 35 33 91q18 60 18 89q0 27 -16 42.5t-38 15.5q-54 0 -98 -80q-41 -73 -41 -140z
" />
    <glyph glyph-name="A" unicode="A" horiz-adv-x="648" 
d="M500 0l-42 111l-42 106q-86 4 -128 4q-40 0 -120 -4q-59 -142 -80 -217q-39 6 -48 6q-3 0 -45 -6l116 258q157 349 183 438q18 -5 33 -5q14 0 32 5q52 -148 144 -361q89 -206 149 -335q-90 6 -78 6q-16 0 -41 -3q-29 -3 -33 -3zM387 279l-94 246l-102 -246q12 0 52 -2
q32 -2 52 -2q30 0 92 4z" />
    <glyph glyph-name="B" unicode="B" horiz-adv-x="593" 
d="M546 190q0 -75 -60.5 -132.5t-180.5 -57.5q-21 0 -63 2.5t-63 2.5q-18 0 -48 -2q-35 -3 -48 -3q7 162 7 355q0 205 -8 331q21 -2 87 -5q12 0 71 2.5t68 2.5q209 0 209 -161q0 -64 -54 -108q-46 -38 -115 -48q94 -9 140 -44q58 -44 58 -135zM211 340v-201q0 -27 2 -83
q40 -6 54 -6q147 0 147 144q0 82 -45 118q-40 31 -122 31q-16 0 -36 -3zM211 552v-161q28 -2 41 -2q136 0 136 133q0 52 -27.5 83t-78.5 31q-34 0 -69 -3q-2 -54 -2 -81z" />
    <glyph glyph-name="C" unicode="C" horiz-adv-x="704" 
d="M675 644l-30 -98h-10q-47 94 -191 94q-124 0 -190 -78t-66 -221q0 -129 61 -209q69 -91 181 -91q134 0 231 114l11 -7l-11 -99q-114 -63 -253 -63q-153 0 -252 89q-105 94 -105 257q0 160 95 256q103 106 295 106q123 0 234 -50z" />
    <glyph glyph-name="D" unicode="D" horiz-adv-x="778" 
d="M727 363q0 -211 -149 -306q-89 -57 -217 -57q-30 0 -91.5 2.5t-92.5 2.5q-16 0 -94 -5l6 183q1 31 1 185q0 164 -7 318q68 -5 82 -5q26 0 84 2.5t89 2.5q186 0 274 -69q115 -90 115 -254zM213 507v-310q0 -24 5 -139q110 -5 136 -5q78 0 143 57q93 81 93 249
q0 114 -56 185q-70 89 -213 89q-46 0 -103 -5q-5 -100 -5 -121z" />
    <glyph glyph-name="E" unicode="E" horiz-adv-x="500" 
d="M215 624v-235q154 0 216 7q-5 -18 -5 -36q0 -22 5 -34q-91 7 -216 7v-271q90 0 239 7q-5 -11 -5 -33t5 -36q-90 6 -184 6q-91 0 -187 -6q3 71 5 125q4 133 4 226q0 206 -9 335q98 -6 181 -6q26 0 82 2q76 3 102 4q-5 -20 -5 -32q0 -24 5 -37l-94 5q-38 2 -139 2z" />
    <glyph glyph-name="F" unicode="F" horiz-adv-x="500" 
d="M220 624v-233h69q58 0 160 5q-5 -17 -5 -33q0 -12 5 -34l-55 2q-55 2 -174 2l1 -281q1 -15 4 -52q-28 6 -72 6q-36 0 -65 -6q9 189 9 354q0 140 -10 332q105 -6 189 -6q24 0 189 6q-5 -23 -5 -38q0 -17 5 -33q-135 9 -245 9z" />
    <glyph glyph-name="G" unicode="G" horiz-adv-x="778" 
d="M51 332q0 160 95 256q103 106 295 106q123 0 234 -50l-30 -98h-10q-47 94 -191 94q-124 0 -190 -78t-66 -221q0 -130 61 -209q70 -91 181 -91q87 0 142 36q3 70 3 91q0 49 -6 147q51 -7 71 -7q26 0 63 7q-8 -48 -8 -168q0 -49 3 -91q-132 -70 -290 -70q-153 0 -252 89
q-105 94 -105 257z" />
    <glyph glyph-name="H" unicode="H" horiz-adv-x="759" 
d="M545 176l1 161q-108 4 -162 4q-57 0 -171 -4v-100q0 -124 9 -237q-1 0 -30 3q-22 3 -39 3q1 0 -71 -6q9 171 9 455q0 121 -10 231q60 -6 72 -6q30 0 69 6q-9 -99 -9 -285q100 -4 151 -4q60 0 182 4q0 60 -2 172q-1 31 -5 113q57 -6 73 -6q13 0 70 6q-14 -112 -14 -450
q0 -164 10 -236q-72 6 -73 6q-5 0 -68 -6q4 70 8 176z" />
    <glyph glyph-name="I" unicode="I" horiz-adv-x="315" 
d="M97 455q0 134 -10 231q57 -6 71 -6q23 0 71 6q-11 -74 -11 -348q0 -237 10 -338q-10 0 -33.5 3t-36.5 3q-12 0 -36 -3q-27 -3 -36 -3q11 119 11 455z" />
    <glyph glyph-name="J" unicode="J" horiz-adv-x="315" 
d="M-7 -149l-7 48q82 10 104 64q15 39 15 178v368q0 71 -8 177q47 -6 72 -6q22 0 69 6l-8 -184v-153q-1 -128 -1 -168q0 -5 1 -32v-36q0 -167 -90 -221q-53 -32 -147 -41z" />
    <glyph glyph-name="K" unicode="K" horiz-adv-x="648" 
d="M89 455q0 119 -9 231q69 -6 70 -6q24 0 70 6q-5 -36 -8 -158q-1 -43 -1 -159q82 72 171 169q49 53 128 148q17 -6 47 -6q31 0 67 6q-63 -53 -163 -151q-33 -32 -139 -144l53 -70q194 -256 265 -321q-47 6 -89 6q2 0 -85 -6q-73 103 -114 157q-71 92 -141 170
q0 -221 9 -327q-4 0 -32 3q-24 3 -38 3q-12 0 -35 -3q-26 -3 -35 -3q9 169 9 455z" />
    <glyph glyph-name="L" unicode="L" horiz-adv-x="500" 
d="M93 273v140q0 60 -3 143q-1 56 -4 130q30 -6 69 -6q33 0 70 6q-10 -216 -10 -431q0 -25 3 -190h18q173 0 232 9q-5 -18 -5 -40q0 -18 5 -34q-153 6 -191 6q-81 0 -191 -6q0 7 3.5 133t3.5 140z" />
    <glyph glyph-name="M" unicode="M" horiz-adv-x="907" 
d="M183 686l31 -63q86 -176 189 -358l54 -96l37 65q115 202 240 452q11 -3 22 -3t21 3l8 -83q17 -173 40 -348q25 -186 40 -255q-48 6 -72 6q-21 0 -68 -6l-3 37q-4 54 -9 127l-32 290q-157 -267 -238 -454q-14 2 -20 2q-7 0 -19 -2q-31 59 -138 263q-43 78 -100 181
q-33 -260 -42 -444q-27 6 -46 6q-16 0 -42 -6l6 31q17 90 53 331q34 234 43 324q12 -3 23 -3q1 0 22 3z" />
    <glyph glyph-name="N" unicode="N" horiz-adv-x="759" 
d="M90 269v136q0 95 -2 281q16 -2 24 -2q7 0 23 2q132 -146 305 -316l118 -116q13 -12 50 -43v222q0 112 -12 253q24 -6 43 -6q18 0 42 6q-11 -148 -11 -338q0 -30 1 -129v-125q0 -11 1 -48v-51q-14 2 -20 2q-7 0 -21 -2q-243 264 -479 480q0 -151 3 -315q1 -55 9 -160
q-3 0 -20 3t-25 3q-16 0 -40 -6l8 139q3 52 3 130z" />
    <glyph glyph-name="O" unicode="O" horiz-adv-x="852" 
d="M190 340q0 -126 54 -207q62 -96 182 -96q118 0 182 98q54 83 54 205q0 135 -52 213q-61 90 -184 90q-118 0 -182 -100q-54 -84 -54 -203zM429 694q154 0 255 -81q115 -92 115 -261q0 -166 -103 -266t-270 -100q-162 0 -264 89q-109 94 -109 253q0 181 112 278
q101 88 264 88z" />
    <glyph glyph-name="P" unicode="P" horiz-adv-x="574" 
d="M218 307v-150q0 -80 7 -157q-34 6 -70 6t-69 -6q7 107 7 144l2 245q1 100 -2 171l-5 126q58 -5 100 -5q11 0 68.5 2.5t67.5 2.5q95 0 147 -38q68 -50 68 -141q0 -84 -54 -138q-66 -66 -198 -66q-23 0 -69 4zM218 633v-277q36 -4 53 -4q74 0 112 55q27 40 27 94
q0 62 -31 99t-91 37q-24 0 -70 -4z" />
    <glyph glyph-name="Q" unicode="Q" horiz-adv-x="852" 
d="M686 -192l-229 179q-11 -1 -33 -1q-177 0 -277 101q-96 97 -96 241q0 181 112 278q101 88 264 88q154 0 255 -81q115 -92 115 -261q0 -125 -60.5 -215t-165.5 -127l226 -140q-61 -27 -111 -62zM188 323q0 -105 50 -184q64 -102 188 -102q117 0 183 101q51 78 51 224
q0 119 -56 195q-63 86 -179 86q-94 0 -157 -65q-80 -84 -80 -255z" />
    <glyph glyph-name="R" unicode="R" horiz-adv-x="630" 
d="M218 632v-259q57 -3 69 -3q69 0 106 45q31 37 31 93q0 73 -42 104q-34 25 -93 25q4 0 -71 -5zM382 340l28 -40q19 -27 52 -75q87 -122 169 -225q-56 6 -89 6q-36 0 -81 -6q-19 30 -52 83q-58 89 -167 243h-24v-142q0 -15 2 -93t2 -91q-60 6 -67 6q-25 0 -69 -6
q9 222 9 412q0 145 -7 274q58 -5 100 -5q13 0 83.5 2.5t81.5 2.5q106 0 157 -49q46 -44 46 -112q0 -78 -53 -128q-46 -43 -121 -57z" />
    <glyph glyph-name="S" unicode="S" horiz-adv-x="537" 
d="M69 150h14q32 -69 73 -95q31 -20 82 -20q59 0 95 35t36 90q0 80 -82 115q-38 15 -103 42q-71 31 -98.5 72t-27.5 105q0 80 49 133q61 67 184 67q75 0 166 -41q-20 -50 -31 -95h-14q-11 42 -46.5 64.5t-84.5 22.5q-57 0 -87.5 -30.5t-30.5 -77.5q0 -50 37 -78
q23 -18 102 -49q66 -25 86 -36q30 -15 50 -37q49 -53 49 -132q0 -87 -58 -148q-69 -71 -196 -71q-85 0 -187 51q16 50 23 113z" />
    <glyph glyph-name="T" unicode="T" horiz-adv-x="556" 
d="M341 507v-370q0 -72 7 -137q-58 6 -73 6q-14 0 -68 -6q10 195 10 229l-1 279q0 33 -2 111h-50q-85 0 -156 -7q5 20 5 37t-5 37q95 -6 267 -6q152 0 267 6q-5 -28 -5 -38q0 -9 5 -36q-69 7 -199 7q-2 -72 -2 -112z" />
    <glyph glyph-name="U" unicode="U" horiz-adv-x="722" 
d="M211 686l-3 -76q-3 -76 -3 -258q0 -124 5 -162q5 -44 26 -72q45 -61 153 -61q60 0 105 28.5t62 74.5q13 36 13 135q0 245 -9 391q42 -6 45 -6q2 0 47 6l-3 -48q-4 -64 -10 -393q-2 -85 -27 -135q-23 -46 -75 -79q-67 -43 -168 -43q-108 0 -180 38q-91 49 -106 155
q-2 14 -2 53v272q0 95 -5 180q46 -6 70 -6q25 0 65 6z" />
    <glyph glyph-name="V" unicode="V" horiz-adv-x="630" 
d="M349 163l38 94q118 291 160 429q33 -6 46 -6q15 0 48 6q-52 -104 -143 -318q-78 -183 -143 -368q-24 6 -37 6q-18 0 -46 -6q-40 113 -51 142q-21 56 -68 169q-40 97 -92 225q-28 65 -65 150q29 -6 81 -6q24 0 74 6q37 -127 129 -364z" />
    <glyph glyph-name="W" unicode="W" horiz-adv-x="1000" 
d="M298 234l19 -56l25 65q19 51 66 186q61 179 80 257q39 -6 44 -6q16 0 44 6q31 -101 78 -250q41 -124 92 -261q34 88 82 232q33 97 83 279q22 -6 46 -6q23 0 45 6q-84 -210 -149 -395q-56 -159 -98 -291q-30 6 -40 6q11 0 -43 -6q-41 132 -57 179q-32 93 -74 218
q-15 42 -41 115l-30 -83q-37 -102 -95 -272q-7 -20 -49 -157q-25 6 -38 6t-41 -6l-25 76q-64 194 -112 330q-46 130 -103 280q60 -6 78 -6q33 0 70 6q36 -135 143 -452z" />
    <glyph glyph-name="X" unicode="X" horiz-adv-x="611" 
d="M359 375q131 -230 232 -375q-76 6 -87 6q-25 0 -77 -6l-44 90q-23 48 -98 179l-51 -72q-23 -33 -120 -197q-42 6 -52 6q-17 0 -47 -6l100 138q18 25 49 69l86 121q-35 63 -107 182l-112 176q45 -6 81 -6q31 0 79 6q70 -152 133 -253q34 52 79 122q26 44 77 131
q34 -6 54 -6l48 6q-87 -113 -223 -311z" />
    <glyph glyph-name="Y" unicode="Y" horiz-adv-x="593" 
d="M357 268v-37q0 -68 7 -231l-69 6q-10 0 -67 -6q6 156 6 271l-59 102q-68 113 -188 313q56 -6 82 -6q47 0 82 6q86 -182 175 -338q87 150 173 338q32 -6 58 -6t42 6q-11 -20 -103 -167q-42 -74 -126 -219q-13 -22 -13 -32z" />
    <glyph glyph-name="Z" unicode="Z" horiz-adv-x="611" 
d="M8 0v32q62 83 143 195q174 256 253 392q-219 0 -354 -11q3 36 3 39q0 20 -3 39q66 -6 269 -6q188 0 270 6q2 -14 2 -17q0 -8 -14 -27l-51 -71q-37 -52 -138 -203l-88 -132q-72 -107 -108 -169h96q103 0 185 7q31 3 114 7q-5 -30 -5 -41q0 -23 5 -40q-180 6 -290 6
q-188 0 -289 -6z" />
    <glyph glyph-name="bracketleft" unicode="[" horiz-adv-x="315" 
d="M178 664l-4 -98q-3 -73 -3 -221v-259q0 -47 5 -157q37 0 109 2q-4 -14 -4 -21q0 -10 4 -24q-49 3 -102 3q-63 0 -104 -3q7 173 7 239v375q0 127 -10 207q69 -3 119 -3q45 0 90 3q-4 -10 -4 -21q0 -7 4 -25q-54 3 -107 3z" />
    <glyph glyph-name="backslash" unicode="\" horiz-adv-x="389" 
d="M24 707h66l275 -737h-66z" />
    <glyph glyph-name="bracketright" unicode="]" horiz-adv-x="315" 
d="M229 500v-375q0 -70 2 -146q2 -33 5 -93q-54 4 -104 4q-34 0 -102 -4q3 16 3 24q0 12 -3 21q72 -2 109 -2q5 120 5 157v259q0 147 -3 221l-4 98q-53 0 -107 -3q3 27 3 26q0 10 -3 20q59 -2 90 -2l118 2q-9 -155 -9 -207z" />
    <glyph glyph-name="asciicircum" unicode="^" horiz-adv-x="667" 
d="M104 253l194 415h72l194 -415h-75l-155 336l-155 -336h-75z" />
    <glyph glyph-name="underscore" unicode="_" horiz-adv-x="500" 
d="M0 -125v50h500v-50h-500z" />
    <glyph glyph-name="grave" unicode="`" 
d="M67 713l141 -152h-51l-163 101q-21 13 -21 37q0 19 15 30t29 11q25 0 50 -27z" />
    <glyph glyph-name="a" unicode="a" horiz-adv-x="500" 
d="M197 264l34 9q21 5 41 10q30 10 34 25q1 5 1 13q0 106 -97 106q-90 0 -108 -71q-10 2 -15 2q-6 0 -16 -2q5 32 5 49q0 18 -1 27q50 30 76 40q39 16 83 16q84 0 133 -38t49 -112q0 -19 -1.5 -87t-1.5 -84q0 -78 5 -98q6 -24 30 -24q10 0 28 8q-4 -12 -4 -18t4 -18
q-57 -22 -85 -22q-40 0 -59 19q-12 11 -24 42q-51 -68 -134 -68q-76 0 -112 46q-26 33 -26 76q0 75 46 109q28 22 115 45zM304 144v104q-96 -25 -120 -41q-35 -22 -35 -72q0 -40 18 -63t48 -23q40 0 64.5 27.5t24.5 67.5z" />
    <glyph glyph-name="b" unicode="b" horiz-adv-x="593" 
d="M545 251q0 -107 -59 -182q-64 -81 -169 -81q-104 0 -156 70q-31 -21 -63 -58h-34q10 168 10 361q0 178 -12 380q30 -6 67 -6q27 0 61 6q-6 -106 -8 -338q62 85 153 85q84 0 142 -56q68 -65 68 -181zM299 34q122 0 122 207q0 186 -120 186q-121 0 -121 -196
q0 -197 119 -197z" />
    <glyph glyph-name="c" unicode="c" horiz-adv-x="481" 
d="M446 103l16 -9q-11 -16 -20 -70q-68 -36 -147 -36q-117 0 -186 77q-63 69 -63 167q0 107 64 177q71 79 198 79q70 0 153 -35q-17 -31 -23 -94h-19q-4 22 -21 43q-31 40 -85 40q-68 0 -107 -58q-31 -46 -31 -135q0 -86 31 -139q38 -66 118 -66q39 0 69 17q17 10 53 42z
" />
    <glyph glyph-name="d" unicode="d" horiz-adv-x="593" 
d="M413 0l3 69q-57 -83 -152 -83q-97 0 -158 70.5t-61 173.5q0 121 66 190q61 65 158 65q50 0 87 -20q23 -13 56 -46q0 222 -12 322q33 -6 71 -6q32 0 57 6q-11 -187 -11 -358q0 -310 11 -383q-30 6 -57 6q-10 0 -58 -6zM288 46q57 0 90.5 49.5t33.5 145.5q0 191 -120 191
q-67 0 -98 -62q-24 -48 -24 -120q0 -204 118 -204z" />
    <glyph glyph-name="e" unicode="e" horiz-adv-x="537" 
d="M493 236h-328q0 -189 159 -189q35 0 76.5 17.5t65.5 45.5l11 -7q-3 -7 -8 -21l-9 -43q-11 -12 -51 -28q-55 -23 -117 -23q-116 0 -182 67t-66 190q0 117 72 183q64 59 160 59q138 0 188 -91q33 -60 29 -160zM167 285h211q0 162 -100 162q-102 0 -111 -162z" />
    <glyph glyph-name="f" unicode="f" horiz-adv-x="315" 
d="M324 640l-7 -6q-30 20 -74 20q-67 0 -67 -64q0 -28 28 -118q57 0 69 1l37 3q-4 -16 -4 -27q0 -13 4 -27q-17 3 -104 3v-55q0 -262 10 -370q-57 6 -63 6q-14 0 -65 -6q6 38 7 101l3 176q0 108 -2 148h-32q-7 0 -43 -3q3 14 3 27q0 -6 -3 27q7 -1 76 -4q7 65 13 88
q9 39 31 78q62 109 160 109q8 0 30 -4q-8 -22 -8 -50q0 -38 1 -53z" />
    <glyph glyph-name="g" unicode="g" horiz-adv-x="519" 
d="M433 424l-37 2q48 -46 48 -109q0 -54 -33 -91q-42 -48 -131 -55q-38 -1 -88 -4q-37 -6 -37 -42q0 -44 60 -49q65 0 153 -4q63 -8 90 -35q36 -36 36 -90q0 -93 -75 -154q-72 -57 -174 -57q-94 0 -154 34q-64 37 -64 103q0 94 83 118l24 7q-70 23 -70 79q0 76 90 105
q-111 42 -111 140q0 78 56 122q52 42 138 42q25 0 72 -7q61 -9 105 -9q56 0 79 5q-3 -15 -3 -26q0 -18 3 -30q-38 4 -60 5zM247 -218q61 0 104 28q51 33 51 91q0 88 -149 88q-79 0 -110.5 -25.5t-31.5 -68.5q0 -57 40 -87q35 -26 96 -26zM245 203q37 0 60.5 32t23.5 95
q0 117 -84 117q-86 0 -86 -128q0 -116 86 -116z" />
    <glyph glyph-name="h" unicode="h" horiz-adv-x="574" 
d="M194 741l-2 -32q-7 -112 -7 -306q58 82 156 82q96 0 139 -67q23 -36 23 -122q0 -10 -1 -50.5t-1 -57.5q0 -108 6 -188q-30 6 -62 6q-13 0 -36 -3q-30 -3 -31 -3q11 103 11 209q0 116 -7 142q-16 62 -86 62q-78 0 -99 -65q-12 -37 -12 -117q0 -141 5 -231q-40 6 -63 6
q-1 0 -61 -6l1 19q8 140 7 373l-1 195q0 33 -7 154q30 -6 68 -6q32 0 60 6z" />
    <glyph glyph-name="i" unicode="i" 
d="M66 0l5 108q3 65 3 124q0 148 -10 248q40 -6 67 -6q30 0 62 6l-2 -45q-6 -135 -6 -171q0 -38 3 -182q0 -6 2 -41t2 -41q-38 6 -58 6q-22 0 -68 -6zM128 572q-27 0 -48 20.5t-21 48.5t20.5 49t48.5 21t49 -21t21 -49t-21.5 -48.5t-48.5 -20.5z" />
    <glyph glyph-name="j" unicode="j" 
d="M-9 -263l-11 38q58 13 77 42q26 40 26 157q0 61 -1 183.5t-1 159.5t-7 163q30 -6 65 -6q29 0 65 6q-8 -120 -8 -231q0 -37 1 -112.5t1 -113.5q0 -96 -8 -141q-13 -72 -85 -110q-40 -21 -114 -35zM139 572q-27 0 -48.5 20.5t-21.5 48.5t21 49t49 21t48.5 -21t20.5 -49
t-21 -48.5t-48 -20.5z" />
    <glyph glyph-name="k" unicode="k" horiz-adv-x="537" 
d="M189 214v-20q0 -144 5 -194q-26 6 -59 6q-20 0 -66 -6q7 98 7 211q0 15 1 96.5t1 94.5q0 239 -10 339q27 -5 67 -6q32 -1 63 6l-4 -64q-6 -96 -6 -325q0 -8 1 -35v-36q0 -13 5 -13q7 0 15 7q27 23 90 95.5t90 109.5q36 -6 64 -6q35 0 54 6l2 -6q-71 -58 -206 -178
l145 -201q56 -73 74 -90l-1 -5q-90 6 -93 6q-21 0 -69 -6q-28 47 -66 108l-61 90q-26 39 -36 39q-7 0 -7 -23z" />
    <glyph glyph-name="l" unicode="l" 
d="M63 741q38 -6 69 -6q24 0 64 6q-10 -108 -10 -368q0 -288 9 -373q-60 6 -61 6q-16 0 -69 -6q10 70 10 398q0 209 -12 343z" />
    <glyph glyph-name="m" unicode="m" horiz-adv-x="870" 
d="M186 215q0 -145 5 -215l-57 6q-6 0 -66 -6q7 126 7 264q0 110 -8 216q46 -6 69 -6t53 6q-4 -23 -6 -89q55 93 152 93q68 0 107 -34q21 -20 40 -59q60 93 163 93q77 0 119 -50q33 -39 33 -90q0 -20 -1.5 -73t-1.5 -74q0 -154 6 -197q-11 1 -35 4q-19 2 -28 2q10 0 -62 -6
q8 98 8 177q0 117 -1 133q-7 103 -86 103q-71 0 -93 -66q-13 -41 -13 -162q0 -43 7 -185q-60 6 -61 6q-7 0 -65 -6q8 60 8 194q0 129 -7 157q-16 62 -87 62q-59 0 -85 -58q-14 -31 -14 -140z" />
    <glyph glyph-name="n" unicode="n" horiz-adv-x="574" 
d="M504 316q0 -11 -2 -88.5t-2 -104.5q0 -83 7 -123q-66 6 -65 6q-8 0 -65 -6q12 72 12 189q0 134 -7 161q-17 66 -93 66q-61 0 -89 -58q-17 -35 -17 -132q0 -131 7 -226q-60 6 -63 6q-21 0 -63 -6q10 148 10 267q0 128 -8 213q30 -6 66 -6q23 0 55 6q-5 -29 -5 -83
q34 46 64 65q37 23 91 23q81 0 124 -44t43 -125z" />
    <glyph glyph-name="o" unicode="o" horiz-adv-x="593" 
d="M45 237q0 115 68.5 182.5t182.5 67.5q117 0 184 -64.5t67 -185.5q0 -116 -67.5 -182.5t-183.5 -66.5q-114 0 -182.5 67t-68.5 182zM170 238q0 -210 126 -210t126 210q0 209 -126 209t-126 -209z" />
    <glyph glyph-name="p" unicode="p" horiz-adv-x="593" 
d="M180 480l-3 -70q59 84 156 84t159 -78q56 -71 56 -171q0 -99 -52 -168q-61 -82 -173 -82q-51 0 -88 21q-23 12 -54 44q0 -203 11 -320q-30 6 -66 6q-27 0 -62 -6q12 149 12 374q0 240 -11 366q57 -6 61 -6q9 0 54 6zM423 235q0 198 -121 198q-66 0 -97 -68
q-24 -51 -24 -125q0 -193 125 -193q64 0 95 67q22 49 22 121z" />
    <glyph glyph-name="q" unicode="q" horiz-adv-x="593" 
d="M414 410l-3 70q45 -6 55 -6q23 0 59 6q-9 -121 -9 -365q0 -267 11 -375q-23 6 -63 6q-28 0 -66 -6q12 93 12 320q-65 -65 -141 -65q-109 0 -170 76q-56 69 -56 176t61.5 177t155.5 70q96 0 154 -84zM168 229q0 -70 23 -118q30 -64 93 -64q130 0 130 192q0 86 -32 138
q-34 56 -94 56q-120 0 -120 -204z" />
    <glyph glyph-name="r" unicode="r" horiz-adv-x="370" 
d="M69 0l4 98q2 49 2 160q0 99 -7 222q35 -6 66 -6q33 0 57 6q-6 -51 -6 -105q32 50 54 71q41 39 93 39q14 0 26 -3q-9 -17 -9 -72q0 -23 5 -43l-7 -5q-17 14 -59 14q-64 0 -89 -54q-12 -26 -12 -99q0 -130 9 -223l-26 3q-19 3 -32 3q-9 0 -69 -6z" />
    <glyph glyph-name="s" unicode="s" horiz-adv-x="407" 
d="M56 113h18q33 -76 123 -76q35 0 55 21t20 50q0 28 -25 45q-14 10 -61 28q-30 11 -68 25q-79 39 -79 127q0 68 46.5 111t127.5 43q62 0 134 -30q-21 -40 -25 -89h-16q-17 34 -31 47q-25 23 -65 23q-36 0 -58.5 -18t-22.5 -48t26 -47q18 -11 83.5 -33t90.5 -42
q44 -35 44 -99q0 -59 -42 -106q-53 -59 -149 -59q-58 0 -148 39l15 42q3 18 7 46z" />
    <glyph glyph-name="t" unicode="t" horiz-adv-x="333" 
d="M211 656l7 -3q-4 -13 -7 -181q57 0 69 1l37 3q-3 -13 -3 -25q0 -15 3 -30q-43 4 -109 4q0 -22 -1.5 -96.5t-1.5 -95.5q0 -118 11 -151q13 -40 61 -40q30 0 60 21q-4 -20 -4 -24q0 -9 4 -23q-56 -29 -113 -29t-90 26q-42 33 -42 113q0 18 3 136.5t3 162.5h-30
q-11 0 -47 -3q3 15 3 22q0 14 -3 32q28 -4 34 -4h44q0 68 -2 114q72 33 114 70z" />
    <glyph glyph-name="u" unicode="u" horiz-adv-x="574" 
d="M69 164q0 35 2 105.5t2 105.5q0 52 -6 105q35 -6 64 -6q32 0 65 6q-12 -61 -12 -218q0 -108 7 -134q8 -30 32.5 -47.5t55.5 -17.5q65 0 94 57q17 34 17 123q0 176 -7 237q36 -6 58 -6q27 0 68 6q-10 -148 -10 -268q0 -124 8 -212q-12 1 -35 4q-18 2 -28 2q-13 0 -57 -6
q4 37 4 81q-69 -92 -162 -92q-97 0 -140 79q-20 37 -20 96z" />
    <glyph glyph-name="v" unicode="v" horiz-adv-x="500" 
d="M151 480l12 -38q45 -143 116 -329l11 29q25 66 38 106q20 58 39 115q24 71 32 117q21 -6 41 -6q24 0 48 6l-58 -130q-34 -76 -79 -191q-23 -58 -58 -164q-26 6 -42 6q-17 0 -51 -6q-14 46 -45 135l-140 350q44 -6 69 -6q36 0 67 6z" />
    <glyph glyph-name="w" unicode="w" horiz-adv-x="796" 
d="M150 480l28 -96q15 -50 84 -266l25 70q41 115 92 292q20 -6 40 -6q24 0 48 6l16 -56q49 -170 100 -304l15 40q44 116 100 320q24 -6 44 -6q16 0 42 6q-17 -43 -49 -122l-42 -103q-62 -151 -95 -260q-19 6 -40 6q-19 0 -51 -6l-17 56q-31 103 -49 155l-45 134
q-4 -9 -27 -74l-60 -170q-8 -24 -29 -101q-16 6 -39 6q-25 0 -51 -6l-39 129q-37 123 -136 356q36 -6 69 -6q36 0 66 6z" />
    <glyph glyph-name="x" unicode="x" horiz-adv-x="500" 
d="M206 409l62 -96q58 79 108 167q20 -6 41 -6q1 0 52 6l-59 -69q-71 -83 -114 -140q26 -42 186 -271q-66 6 -71 6l-69 -6q-45 76 -112 178q-44 -58 -116 -178q-26 6 -42 6l-54 -6q23 29 91 109t91 113q-11 21 -76 116q-38 56 -72 102q-12 18 -28 40q42 -6 75 -6q22 0 66 6
q13 -24 41 -71z" />
    <glyph glyph-name="y" unicode="y" horiz-adv-x="500" 
d="M234 241l47 -114l18 42q38 90 70 193q26 84 37 118q24 -6 44 -6q17 0 45 6q-52 -102 -161 -357q-126 -293 -147 -381q-26 6 -45 6q-20 0 -46 -6l16 26q27 43 112 214q-8 26 -97 233l-119 265q42 -6 70 -6q23 0 69 6q21 -80 87 -239z" />
    <glyph glyph-name="z" unicode="z" horiz-adv-x="481" 
d="M19 0v31q71 87 245 343l30 44h-39q-114 0 -208 -10q3 15 3 32t-3 39q48 -6 201 -6q163 0 201 6v-34l-30 -39q-159 -206 -236 -345h35q162 0 233 7q-5 -19 -5 -37q0 -21 3 -31q-29 0 -106 3q-68 3 -109 3q-145 0 -215 -6z" />
    <glyph glyph-name="braceleft" unicode="{" horiz-adv-x="400" 
d="M30 275v42q132 3 132 138v50q0 101 26 142q44 69 183 73v-43q-82 -5 -109 -55q-15 -29 -15 -99v-46q0 -78 -17 -112q-29 -58 -118 -69q89 -11 118 -67q17 -34 17 -114v-46q0 -69 16 -99q26 -50 108 -55v-43q-135 4 -179 69q-30 43 -30 146v50q0 73 -29.5 105t-102.5 33z
" />
    <glyph glyph-name="bar" unicode="|" horiz-adv-x="222" 
d="M75 -250v1000h72v-1000h-72z" />
    <glyph glyph-name="braceright" unicode="}" horiz-adv-x="400" 
d="M370 317v-42q-132 -3 -132 -138v-50q0 -101 -26 -142q-44 -69 -183 -73v43q82 5 109 55q15 29 15 99v46q0 78 17 112q29 58 118 69q-89 11 -118 67q-17 34 -17 114v46q0 69 -15 99q-27 50 -109 55v43q135 -4 180 -69q29 -43 29 -146v-50q0 -73 29.5 -105t102.5 -33z" />
    <glyph glyph-name="asciitilde" unicode="~" horiz-adv-x="667" 
d="M108 173h-50q4 61 36 102q36 46 94 46q48 0 152.5 -38.5t140.5 -38.5q67 0 78 83h50q-4 -61 -36 -102q-36 -46 -94 -46q-49 0 -148 38.5t-145 38.5q-28 0 -49 -19q-26 -23 -29 -64z" />
    <glyph glyph-name="exclamdown" unicode="&#xa1;" horiz-adv-x="278" 
d="M82 -27l48 319h20l47 -328q8 -56 8 -91q0 -41 -24 -62q-19 -15 -43 -15q-35 0 -52 27q-14 20 -14 45q0 39 10 105zM66 415q0 29 20.5 50t50.5 21q29 0 50 -21t21 -50q0 -28 -21 -49.5t-50 -21.5q-30 0 -50.5 21t-20.5 50z" />
    <glyph glyph-name="cent" unicode="&#xa2;" horiz-adv-x="519" 
d="M162 -123l39 127q-74 27 -116 93q-39 61 -39 135q0 107 64 177q71 79 198 79q16 0 40 -2l34 112l45 -11l-34 -110q20 -5 68 -24q-17 -31 -23 -94h-19q-14 43 -42 64l-113 -366q30 -13 60 -13q39 0 69 17q17 10 53 42q12 -6 16 -9q-11 -16 -20 -70q-68 -36 -147 -36
q-29 0 -50 4l-39 -126zM225 84l109 356q-14 2 -21 2q-74 0 -109 -63q-29 -51 -29 -130q0 -115 50 -165z" />
    <glyph glyph-name="sterling" unicode="&#xa3;" horiz-adv-x="519" 
d="M472 553h-9q-25 46 -42 62q-27 24 -70 24q-66 0 -92 -66q-11 -28 -10 -113l1 -85h35q58 0 115 5q-4 -26 -4 -30q0 -8 4 -31l-46 4q-23 2 -104 2q-2 -41 -5 -59q-5 -36 -17 -68q-21 -54 -75 -94h109q140 0 236 7q0 -4 -3 -25q-2 -17 -2 -29q0 -8 2 -28q3 -24 3 -29
q-86 7 -222 7q-175 0 -245 -7q5 22 5 43t-5 44q46 0 69 16q40 28 40 111q0 60 -7 111q-49 0 -99 -3q4 20 4 30q0 6 -4 28q50 -5 93 -5q-2 34 -2 44q0 135 59 198q64 68 172 68q59 0 135 -26q-7 -34 -19 -106z" />
    <glyph glyph-name="currency" unicode="&#xa4;" horiz-adv-x="519" 
d="M441 195l67 -67l-46 -46l-67 67q-63 -46 -134 -46q-75 0 -136 46l-67 -67l-46 46l67 67q-46 65 -46 135q0 77 46 135l-67 67l46 46l67 -67q62 46 135 46q66 0 135 -46l67 67l46 -46l-67 -67q46 -58 46 -135q0 -75 -46 -135zM115 330q0 -61 42 -103t103 -42t103 42t42 103
q0 62 -42 103.5t-103 41.5t-103 -41.5t-42 -103.5z" />
    <glyph glyph-name="yen" unicode="&#xa5;" horiz-adv-x="519" 
d="M317 258v-48q85 0 163 5q-4 -26 -4 -30q0 -9 4 -30q-63 5 -163 5q0 -60 5 -160q-63 6 -62 6q-8 0 -62 -6q5 65 5 160q-89 0 -163 -5q4 24 4 32q0 6 -4 28q63 -5 163 -5v51l-10 22q-82 0 -153 -5q4 24 4 32q0 6 -4 28q53 -5 132 -5q-125 222 -202 335q41 -6 75 -6
q43 0 71 6q87 -188 171 -334q77 133 169 334q28 -6 49 -6q25 0 44 6q-82 -125 -203 -335q27 0 134 5q-4 -26 -4 -30q0 -9 4 -30q-61 5 -153 5q-10 -15 -10 -25z" />
    <glyph glyph-name="brokenbar" unicode="&#xa6;" horiz-adv-x="222" 
d="M75 -175v350h72v-350h-72zM75 325v350h72v-350h-72z" />
    <glyph glyph-name="section" unicode="&#xa7;" horiz-adv-x="519" 
d="M72 -88l16 95h9q54 -102 144 -102q52 0 82 29q27 27 27 67q0 41 -41 70q-25 18 -115 56q-53 23 -90 49q-54 38 -54 109q0 79 80 136q-41 45 -41 95q0 70 50.5 115t132.5 45q103 0 155 -49q-19 -33 -33 -76h-7q-19 40 -37 56q-30 26 -83 26q-36 0 -62 -19q-31 -22 -31 -60
q0 -40 36 -67q23 -17 107 -53q75 -32 102 -55q46 -38 46 -97q0 -74 -74 -141q52 -47 52 -104q0 -48 -28 -90q-26 -38 -65 -58q-55 -28 -120 -28q-82 0 -158 51zM399 233q0 31 -25 51q-20 17 -82 45t-81 38q-24 12 -58 36q-38 -34 -38 -66q0 -40 31 -66q18 -15 66 -35
q58 -24 153 -72q34 34 34 69z" />
    <glyph glyph-name="dieresis" unicode="&#xa8;" 
d="M291 630q0 -24 -17.5 -41.5t-41.5 -17.5q-25 0 -42 17.5t-17 41.5q0 25 17 42t42 17t42 -17.5t17 -41.5zM86 630q0 -24 -17.5 -41.5t-41.5 -17.5q-25 0 -42 17.5t-17 41.5q0 25 17 42t42 17t42 -17.5t17 -41.5z" />
    <glyph glyph-name="copyright" unicode="&#xa9;" horiz-adv-x="820" 
d="M410 696q149 0 255 -104.5t106 -253.5q0 -147 -105.5 -252.5t-255.5 -105.5t-255.5 105.5t-105.5 252.5q0 149 106 253.5t255 104.5zM721 338q0 130 -91 221.5t-220 91.5t-220 -91.5t-91 -221.5q0 -129 91 -221t220 -92q132 0 221.5 90.5t89.5 222.5zM572 523l-18 -59h-6
q-27 55 -114 55q-154 0 -154 -178q0 -73 35 -122q40 -57 110 -57q81 0 139 67l6 -4l-6 -59q-70 -38 -152 -38q-92 0 -151 53q-63 57 -63 155q0 95 57 154q62 63 177 63q71 0 140 -30z" />
    <glyph glyph-name="ordfeminine" unicode="&#xaa;" horiz-adv-x="325" 
d="M307 420v-27q-37 -13 -57 -13q-39 0 -55 33q-30 -37 -86 -37q-40 0 -65 18q-28 20 -28 57q0 45 30 67q21 14 76 27l22 5q15 3 30 7q19 6 19 19q0 58 -61 58q-56 0 -68 -40h-25q4 13 4 28v20q46 34 107 34q55 0 87.5 -23t31.5 -67q-2 -83 -2 -103q0 -43 3 -54
q4 -14 19 -14q3 0 18 5zM191 470v58q-58 -15 -74 -24q-21 -13 -21 -40q0 -46 40 -46q25 0 40 15t15 37z" />
    <glyph glyph-name="guillemotleft" unicode="&#xab;" horiz-adv-x="444" 
d="M49 245l29 44q34 50 96 153q15 -12 56 -39q-34 -37 -107 -158q6 -8 37.5 -51t36.5 -50l33 -44q-30 -20 -53 -40q-41 65 -128 185zM341 60l-27 45q-14 20 -29 41q-44 63 -71 99l29 44q58 88 96 153q25 -22 55 -39q-35 -38 -106 -158q27 -37 74 -101l32 -44
q-20 -14 -53 -40z" />
    <glyph glyph-name="logicalnot" unicode="&#xac;" horiz-adv-x="667" 
d="M74 416h519v-265h-65v200h-454v65z" />
    <glyph glyph-name="minus" unicode="&#xad;" horiz-adv-x="667" 
d="M593 338v-65h-519v65h519z" />
    <glyph glyph-name="minus" unicode="&#x2212;" horiz-adv-x="667" 
d="M593 338v-65h-519v65h519z" />
    <glyph glyph-name="registered" unicode="&#xae;" horiz-adv-x="500" 
d="M209 580v-81q8 -1 26 -1q54 0 54 45q0 39 -53 39q-15 0 -27 -2zM156 505q0 54 -2 99q18 -2 42 -2q5 0 33 1t33 1q82 0 82 -56t-71 -65l98 -119q-24 2 -34 2q-8 0 -32 -2q-27 38 -87 112h-9q0 -36 2 -112q-20 2 -29 2q-7 0 -29 -2q3 67 3 141zM250 696q92 0 154.5 -62
t62.5 -153q0 -90 -63 -152.5t-154 -62.5q-92 0 -154.5 62.5t-62.5 152.5q0 91 62.5 153t154.5 62zM429 481q0 76 -51.5 127.5t-127.5 51.5q-75 0 -127 -51.5t-52 -127.5t52 -127.5t127 -51.5t127 52t52 127z" />
    <glyph glyph-name="macron" unicode="&#xaf;" 
d="M-13 600v65h286v-65h-286z" />
    <glyph glyph-name="macron" unicode="&#x2c9;" 
d="M-13 600v65h286v-65h-286z" />
    <glyph glyph-name="degree" unicode="&#xb0;" horiz-adv-x="400" 
d="M48 523q0 66 43.5 109t108.5 43t108.5 -43.5t43.5 -108.5q0 -64 -43.5 -108t-108.5 -44t-108.5 44t-43.5 108zM110 523q0 -40 25.5 -66t64.5 -26t64.5 26.5t25.5 65.5t-25.5 65.5t-64.5 26.5q-38 0 -64 -26.5t-26 -65.5z" />
    <glyph glyph-name="plusminus" unicode="&#xb1;" horiz-adv-x="667" 
d="M301 565h65v-196h227v-65h-227v-196h-65v196h-227v65h227v196zM593 65v-65h-519v65h519z" />
    <glyph glyph-name="twosuperior" unicode="&#xb2;" horiz-adv-x="340" 
d="M20 270v24q86 72 128 124q56 69 56 136q0 86 -63 86t-72 -76l-8 -6l-40 38q36 79 136 79q56 0 92 -23q45 -28 45 -86q0 -37 -14.5 -65.5t-53.5 -67.5q-70 -70 -108 -98q160 0 192 4q-3 -13 -3 -38q0 -15 2 -31q-103 4 -144 4q-57 0 -145 -4z" />
    <glyph glyph-name="threesuperior" unicode="&#xb3;" horiz-adv-x="340" 
d="M313 384q0 -58 -56 -92q-48 -30 -114 -30q-75 0 -121 39q14 20 28 53h13q3 -17 20 -34q25 -25 65 -25q33 0 54.5 23t21.5 62q0 82 -75 82q-8 0 -38 -5q3 6 3 19t-3 25q12 -4 25 -4q72 0 72 76q0 66 -62 66q-61 0 -71 -67h-12q-8 16 -33 42q40 58 131 58q131 0 131 -88
q0 -76 -91 -99q-2 0 -5 -2q0 -2 7 -2q110 -5 110 -97z" />
    <glyph glyph-name="acute" unicode="&#xb4;" 
d="M266 671l-164 -101h-51l141 152q25 27 48 27q19 0 33 -11.5t14 -29.5q0 -24 -21 -37z" />
    <glyph glyph-name="mu" unicode="&#xb5;" horiz-adv-x="574" 
d="M499 212q0 -124 8 -212q-12 1 -35 4q-18 2 -28 2q-13 0 -57 -6q4 37 4 81q-18 -42 -58.5 -67t-85.5 -25q-38 0 -66 21q0 -170 10 -270q-28 6 -65 6q-28 0 -61 -6q10 117 10 365q0 307 -8 375q35 -6 64 -6q32 0 65 6q-12 -56 -12 -238q0 -94 14 -128q20 -51 86 -51
q106 0 106 180q0 176 -7 237q36 -6 58 -6q27 0 68 6q-10 -148 -10 -268z" />
    <glyph glyph-name="mu" unicode="&#x3bc;" horiz-adv-x="574" 
d="M499 212q0 -124 8 -212q-12 1 -35 4q-18 2 -28 2q-13 0 -57 -6q4 37 4 81q-18 -42 -58.5 -67t-85.5 -25q-38 0 -66 21q0 -170 10 -270q-28 6 -65 6q-28 0 -61 -6q10 117 10 365q0 307 -8 375q35 -6 64 -6q32 0 65 6q-12 -56 -12 -238q0 -94 14 -128q20 -51 86 -51
q106 0 106 180q0 176 -7 237q36 -6 58 -6q27 0 68 6q-10 -148 -10 -268z" />
    <glyph glyph-name="paragraph" unicode="&#xb6;" horiz-adv-x="600" 
d="M558 626h-50v-829h-75v829h-112v-829h-75v426q-99 7 -152.5 67.5t-53.5 161.5q0 90 51 152q67 82 208 82h259v-60z" />
    <glyph glyph-name="periodcentered" unicode="&#xb7;" 
d="M59 306q0 29 20.5 50t50.5 21q29 0 50 -21t21 -50q0 -28 -21 -49.5t-50 -21.5q-30 0 -50.5 21t-20.5 50z" />
    <glyph glyph-name="periodcentered" unicode="&#x2219;" 
d="M59 306q0 29 20.5 50t50.5 21q29 0 50 -21t21 -50q0 -28 -21 -49.5t-50 -21.5q-30 0 -50.5 21t-20.5 50z" />
    <glyph glyph-name="cedilla" unicode="&#xb8;" 
d="M111 0h42l-31 -64q12 4 29 4q90 0 90 -68q0 -88 -131 -88q-56 0 -89 16l16 35q36 -12 63 -12q55 0 55 40q0 37 -51 37q-8 0 -24 -4l-12 8z" />
    <glyph glyph-name="onesuperior" unicode="&#xb9;" horiz-adv-x="340" 
d="M229 431q0 -103 5 -157q-36 4 -45 4q11 0 -49 -4q8 66 8 229v107q-44 -22 -93 -50q-12 13 -29 29v9q50 17 128 53q33 15 69 36l13 -6q-7 -58 -7 -250z" />
    <glyph glyph-name="ordmasculine" unicode="&#xba;" horiz-adv-x="386" 
d="M359 526q0 -70 -44.5 -109.5t-121.5 -39.5q-76 0 -121 40t-45 109t45 109.5t121 40.5q78 0 122 -38.5t44 -111.5zM114 527q0 -121 79 -121t79 120q0 121 -79 121t-79 -120z" />
    <glyph glyph-name="guillemotright" unicode="&#xbb;" horiz-adv-x="444" 
d="M202 289l29 -44q-53 -65 -128 -185q-23 20 -53 40q28 35 107 145q-73 121 -107 158q25 14 56 39q19 -36 96 -153zM366 289l29 -44q-81 -104 -127 -185q-23 18 -53 40q47 63 106 145q-29 48 -46 75q-32 49 -60 83q30 17 55 39q20 -37 96 -153z" />
    <glyph glyph-name="onequarter" unicode="&#xbc;" horiz-adv-x="845" 
d="M689 157v160l-121 -160h121zM575 222l93 122q17 21 41 57q14 -4 33 -4q11 0 29 4q-4 -80 -4 -244q20 0 55 1q-4 -17 -4 -30q0 -11 4 -27q-10 0 -28 1h-27q0 -70 4 -102q-32 4 -40 4t-22 -2q-17 -2 -25 -2q5 31 5 102q-43 1 -107 1q-35 0 -69 -2v39q0 1 17 23q1 2 45 59z
M604 696h48l-400 -717h-48zM229 431q0 -103 5 -157q-36 4 -45 4q11 0 -49 -4q8 66 8 229v107q-44 -22 -93 -50q-12 13 -29 29v9q50 17 128 53q33 15 69 36l13 -6q-7 -58 -7 -250z" />
    <glyph glyph-name="onehalf" unicode="&#xbd;" horiz-adv-x="845" 
d="M599 696h48l-400 -717h-48zM525 0v24q86 72 128 124q56 69 56 136q0 86 -63 86t-72 -76l-8 -6l-40 38q36 79 136 79q56 0 92 -23q45 -28 45 -86q0 -37 -14.5 -65.5t-53.5 -67.5q-70 -70 -108 -98q160 0 192 4q-3 -13 -3 -38q0 -15 2 -31q-103 4 -144 4q-57 0 -145 -4z
M229 431q0 -103 5 -157q-36 4 -45 4q11 0 -49 -4q8 66 8 229v107q-44 -22 -93 -50q-12 13 -29 29v9q50 17 128 53q33 15 69 36l13 -6q-7 -58 -7 -250z" />
    <glyph glyph-name="threequarters" unicode="&#xbe;" horiz-adv-x="845" 
d="M689 157v160l-121 -160h121zM575 222l93 122q17 21 41 57q14 -4 33 -4q11 0 29 4q-4 -80 -4 -244q20 0 55 1q-4 -17 -4 -30q0 -11 4 -27q-10 0 -28 1h-27q0 -70 4 -102q-32 4 -40 4t-22 -2q-17 -2 -25 -2q5 31 5 102q-43 1 -107 1q-35 0 -69 -2v39q0 1 17 23q1 2 45 59z
M609 696h48l-400 -717h-48zM313 384q0 -58 -56 -92q-48 -30 -114 -30q-75 0 -121 39q14 20 28 53h13q3 -17 20 -34q25 -25 65 -25q33 0 54.5 23t21.5 62q0 82 -75 82q-8 0 -38 -5q3 6 3 19t-3 25q12 -4 25 -4q72 0 72 76q0 66 -62 66q-61 0 -71 -67h-12q-8 16 -33 42
q40 58 131 58q131 0 131 -88q0 -76 -91 -99q-2 0 -5 -2q0 -2 7 -2q110 -5 110 -97z" />
    <glyph glyph-name="questiondown" unicode="&#xbf;" horiz-adv-x="370" 
d="M106 238l11 37q24 10 54 10q61 0 95 -33q31 -31 31 -81q0 -30 -10 -53q-18 -39 -72 -93l-35 -35q-38 -38 -38 -77q0 -73 85 -73q54 0 80 53h9l7 -59q-58 -38 -122 -38q-71 0 -119.5 39.5t-48.5 98.5q0 49 26 90q16 24 65 75q23 24 47 47q28 33 28 58q0 20 -13.5 33
t-33.5 13q-16 0 -44 -14zM134 414q0 29 20.5 50t50.5 21q29 0 50 -21t21 -50q0 -28 -21 -49.5t-50 -21.5q-30 0 -50.5 21t-20.5 50z" />
    <glyph glyph-name="Agrave" unicode="&#xc0;" horiz-adv-x="648" 
d="M500 0l-42 111l-42 106q-86 4 -128 4q-40 0 -120 -4q-59 -142 -80 -217q-39 6 -48 6q-3 0 -45 -6l116 258q157 349 183 438q18 -5 33 -5q14 0 32 5q52 -148 144 -361q89 -206 149 -335q-90 6 -78 6q-16 0 -41 -3q-29 -3 -33 -3zM387 279l-94 246l-102 -246q12 0 52 -2
q32 -2 52 -2q30 0 92 4zM272 873l141 -152h-51l-163 101q-21 13 -21 37q0 19 15 30t29 11q25 0 50 -27z" />
    <glyph glyph-name="Aacute" unicode="&#xc1;" horiz-adv-x="648" 
d="M500 0l-42 111l-42 106q-86 4 -128 4q-40 0 -120 -4q-59 -142 -80 -217q-39 6 -48 6q-3 0 -45 -6l116 258q157 349 183 438q18 -5 33 -5q14 0 32 5q52 -148 144 -361q89 -206 149 -335q-90 6 -78 6q-16 0 -41 -3q-29 -3 -33 -3zM387 279l-94 246l-102 -246q12 0 52 -2
q32 -2 52 -2q30 0 92 4zM461 831l-164 -101h-51l141 152q25 27 48 27q19 0 33 -11.5t14 -29.5q0 -24 -21 -37z" />
    <glyph glyph-name="Acircumflex" unicode="&#xc2;" horiz-adv-x="648" 
d="M500 0l-42 111l-42 106q-86 4 -128 4q-40 0 -120 -4q-59 -142 -80 -217q-39 6 -48 6q-3 0 -45 -6l116 258q157 349 183 438q18 -5 33 -5q14 0 32 5q52 -148 144 -361q89 -206 149 -335q-90 6 -78 6q-16 0 -41 -3q-29 -3 -33 -3zM387 279l-94 246l-102 -246q12 0 52 -2
q32 -2 52 -2q30 0 92 4zM364 893l124 -172h-50l-113 100l-114 -100h-49l123 172h79z" />
    <glyph glyph-name="Atilde" unicode="&#xc3;" horiz-adv-x="648" 
d="M500 0l-42 111l-42 106q-86 4 -128 4q-40 0 -120 -4q-59 -142 -80 -217q-39 6 -48 6q-3 0 -45 -6l116 258q157 349 183 438q18 -5 33 -5q14 0 32 5q52 -148 144 -361q89 -206 149 -335q-90 6 -78 6q-16 0 -41 -3q-29 -3 -33 -3zM387 279l-94 246l-102 -246q12 0 52 -2
q32 -2 52 -2q30 0 92 4zM466 856h36q-29 -112 -111 -112q-33 0 -85 21.5t-63 21.5q-37 0 -52 -44h-36q34 112 110 112q26 0 78 -21.5t70 -21.5q38 0 53 44z" />
    <glyph glyph-name="Adieresis" unicode="&#xc4;" horiz-adv-x="648" 
d="M500 0l-42 111l-42 106q-86 4 -128 4q-40 0 -120 -4q-59 -142 -80 -217q-39 6 -48 6q-3 0 -45 -6l116 258q157 349 183 438q18 -5 33 -5q14 0 32 5q52 -148 144 -361q89 -206 149 -335q-90 6 -78 6q-16 0 -41 -3q-29 -3 -33 -3zM387 279l-94 246l-102 -246q12 0 52 -2
q32 -2 52 -2q30 0 92 4zM486 790q0 -24 -17.5 -41.5t-41.5 -17.5q-25 0 -42 17.5t-17 41.5q0 25 17 42t42 17t42 -17.5t17 -41.5zM281 790q0 -24 -17.5 -41.5t-41.5 -17.5q-25 0 -42 17.5t-17 41.5q0 25 17 42t42 17t42 -17.5t17 -41.5z" />
    <glyph glyph-name="Aring" unicode="&#xc5;" horiz-adv-x="648" 
d="M500 0l-42 111l-42 106q-86 4 -128 4q-40 0 -120 -4q-59 -142 -80 -217q-39 6 -48 6q-3 0 -45 -6l116 258q157 349 183 438q18 -5 33 -5q14 0 32 5q52 -148 144 -361q89 -206 149 -335q-90 6 -78 6q-16 0 -41 -3q-29 -3 -33 -3zM387 279l-94 246l-102 -246q12 0 52 -2
q32 -2 52 -2q30 0 92 4zM427 816q0 -42 -31 -72.5t-72 -30.5q-42 0 -72.5 30.5t-30.5 72.5q0 41 30.5 72t72.5 31q41 0 72 -31t31 -72zM385 816q0 24 -18.5 42.5t-42.5 18.5q-25 0 -43 -18.5t-18 -42.5q0 -25 18.5 -43t42.5 -18t42.5 18t18.5 43z" />
    <glyph glyph-name="AE" unicode="&#xc6;" horiz-adv-x="852" 
d="M570 333v-271q92 0 239 7q-5 -11 -5 -33t5 -36q-90 6 -180 6q-96 0 -189 -6l4 106q3 80 3 110q-40 4 -118 4q-64 0 -123 -4q-18 -23 -72 -113q-30 -51 -58 -103q-36 6 -54 6q-10 0 -27.5 -3t-25.5 -3q10 9 172 241q55 78 162 240q70 106 125 205q100 -6 187 -6
q32 0 188 6q-5 -20 -5 -32q0 -24 5 -37l-94 5q-38 2 -139 2v-235q154 0 216 7q-5 -18 -5 -36q0 -22 5 -34q-91 7 -216 7zM447 277l2 326q-4 -9 -89 -142l-94 -148q-7 -12 -23 -36q55 -4 104 -4q56 0 100 4z" />
    <glyph glyph-name="Ccedilla" unicode="&#xc7;" horiz-adv-x="704" 
d="M341 -96l38 84q-143 9 -232 96q-96 94 -96 248q0 160 95 256q103 106 295 106q123 0 234 -50l-30 -98h-10q-47 94 -191 94q-124 0 -190 -78t-66 -221q0 -129 61 -209q69 -91 181 -91q134 0 231 114l11 -7l-11 -99q-110 -60 -241 -62l-25 -51q12 4 29 4q90 0 90 -68
q0 -88 -131 -88q-56 0 -89 16l16 35q36 -12 63 -12q55 0 55 40q0 37 -51 37q-8 0 -24 -4z" />
    <glyph glyph-name="Egrave" unicode="&#xc8;" horiz-adv-x="500" 
d="M215 624v-235q154 0 216 7q-5 -18 -5 -36q0 -22 5 -34q-91 7 -216 7v-271q90 0 239 7q-5 -11 -5 -33t5 -36q-90 6 -184 6q-91 0 -187 -6q3 71 5 125q4 133 4 226q0 206 -9 335q98 -6 181 -6q26 0 82 2q76 3 102 4q-5 -20 -5 -32q0 -24 5 -37l-94 5q-38 2 -139 2zM188 873
l141 -152h-51l-163 101q-21 13 -21 37q0 19 15 30t29 11q25 0 50 -27z" />
    <glyph glyph-name="Eacute" unicode="&#xc9;" horiz-adv-x="500" 
d="M215 624v-235q154 0 216 7q-5 -18 -5 -36q0 -22 5 -34q-91 7 -216 7v-271q90 0 239 7q-5 -11 -5 -33t5 -36q-90 6 -184 6q-91 0 -187 -6q3 71 5 125q4 133 4 226q0 206 -9 335q98 -6 181 -6q26 0 82 2q76 3 102 4q-5 -20 -5 -32q0 -24 5 -37l-94 5q-38 2 -139 2zM417 831
l-164 -101h-51l141 152q25 27 48 27q19 0 33 -11.5t14 -29.5q0 -24 -21 -37z" />
    <glyph glyph-name="Ecircumflex" unicode="&#xca;" horiz-adv-x="500" 
d="M215 624v-235q154 0 216 7q-5 -18 -5 -36q0 -22 5 -34q-91 7 -216 7v-271q90 0 239 7q-5 -11 -5 -33t5 -36q-90 6 -184 6q-91 0 -187 -6q3 71 5 125q4 133 4 226q0 206 -9 335q98 -6 181 -6q26 0 82 2q76 3 102 4q-5 -20 -5 -32q0 -24 5 -37l-94 5q-38 2 -139 2zM305 893
l124 -172h-50l-113 100l-114 -100h-49l123 172h79z" />
    <glyph glyph-name="Edieresis" unicode="&#xcb;" horiz-adv-x="500" 
d="M215 624v-235q154 0 216 7q-5 -18 -5 -36q0 -22 5 -34q-91 7 -216 7v-271q90 0 239 7q-5 -11 -5 -33t5 -36q-90 6 -184 6q-91 0 -187 -6q3 71 5 125q4 133 4 226q0 206 -9 335q98 -6 181 -6q26 0 82 2q76 3 102 4q-5 -20 -5 -32q0 -24 5 -37l-94 5q-38 2 -139 2zM422 790
q0 -24 -17.5 -41.5t-41.5 -17.5q-25 0 -42 17.5t-17 41.5q0 25 17 42t42 17t42 -17.5t17 -41.5zM217 790q0 -24 -17.5 -41.5t-41.5 -17.5q-25 0 -42 17.5t-17 41.5q0 25 17 42t42 17t42 -17.5t17 -41.5z" />
    <glyph glyph-name="Igrave" unicode="&#xcc;" horiz-adv-x="315" 
d="M97 455q0 134 -10 231q57 -6 71 -6q23 0 71 6q-11 -74 -11 -348q0 -237 10 -338q-10 0 -33.5 3t-36.5 3q-12 0 -36 -3q-27 -3 -36 -3q11 119 11 455zM95 873l141 -152h-51l-163 101q-21 13 -21 37q0 19 15 30t29 11q25 0 50 -27z" />
    <glyph glyph-name="Iacute" unicode="&#xcd;" horiz-adv-x="315" 
d="M97 455q0 134 -10 231q57 -6 71 -6q23 0 71 6q-11 -74 -11 -348q0 -237 10 -338q-10 0 -33.5 3t-36.5 3q-12 0 -36 -3q-27 -3 -36 -3q11 119 11 455zM294 831l-164 -101h-51l141 152q25 27 48 27q19 0 33 -11.5t14 -29.5q0 -24 -21 -37z" />
    <glyph glyph-name="Icircumflex" unicode="&#xce;" horiz-adv-x="315" 
d="M97 455q0 134 -10 231q57 -6 71 -6q23 0 71 6q-11 -74 -11 -348q0 -237 10 -338q-10 0 -33.5 3t-36.5 3q-12 0 -36 -3q-27 -3 -36 -3q11 119 11 455zM197 893l124 -172h-50l-113 100l-114 -100h-49l123 172h79z" />
    <glyph glyph-name="Idieresis" unicode="&#xcf;" horiz-adv-x="315" 
d="M97 455q0 134 -10 231q57 -6 71 -6q23 0 71 6q-11 -74 -11 -348q0 -237 10 -338q-10 0 -33.5 3t-36.5 3q-12 0 -36 -3q-27 -3 -36 -3q11 119 11 455zM319 790q0 -24 -17.5 -41.5t-41.5 -17.5q-25 0 -42 17.5t-17 41.5q0 25 17 42t42 17t42 -17.5t17 -41.5zM114 790
q0 -24 -17.5 -41.5t-41.5 -17.5q-25 0 -42 17.5t-17 41.5q0 25 17 42t42 17t42 -17.5t17 -41.5z" />
    <glyph glyph-name="Eth" unicode="&#xd0;" horiz-adv-x="778" 
d="M83 0l6 195q1 33 1 148q-13 0 -83 -5q3 18 3 35q0 16 -3 32q49 -6 83 -6q0 73 -2 157q-2 68 -5 129q68 -5 82 -5q26 0 84 2.5t89 2.5q186 0 274 -69q115 -90 115 -253q0 -211 -149 -306q-89 -57 -217 -57q-30 0 -91.5 2.5t-92.5 2.5q-16 0 -94 -5zM384 340l-48 1
q-96 2 -123 2q0 -170 5 -285q110 -5 136 -5q78 0 143 57q93 81 93 249q0 114 -56 185q-70 89 -213 89q-46 0 -103 -5q-5 -100 -5 -121v-108q82 1 171 8l-3 -33q0 5 3 -34z" />
    <glyph glyph-name="Ntilde" unicode="&#xd1;" horiz-adv-x="759" 
d="M90 269v136q0 95 -2 281q16 -2 24 -2q7 0 23 2q132 -146 305 -316l118 -116q13 -12 50 -43v222q0 112 -12 253q24 -6 43 -6q18 0 42 6q-11 -148 -11 -338q0 -30 1 -129v-125q0 -11 1 -48v-51q-14 2 -20 2q-7 0 -21 -2q-243 264 -479 480q0 -151 3 -315q1 -55 9 -160
q-3 0 -20 3t-25 3q-16 0 -40 -6l8 139q3 52 3 130zM521 856h36q-29 -112 -111 -112q-33 0 -85 21.5t-63 21.5q-37 0 -52 -44h-36q34 112 110 112q26 0 78 -21.5t70 -21.5q38 0 53 44z" />
    <glyph glyph-name="Ograve" unicode="&#xd2;" horiz-adv-x="852" 
d="M190 340q0 -126 54 -207q62 -96 182 -96q118 0 182 98q54 83 54 205q0 135 -52 213q-61 90 -184 90q-118 0 -182 -100q-54 -84 -54 -203zM429 694q154 0 255 -81q115 -92 115 -261q0 -166 -103 -266t-270 -100q-162 0 -264 89q-109 94 -109 253q0 181 112 278
q101 88 264 88zM364 873l141 -152h-51l-163 101q-21 13 -21 37q0 19 15 30t29 11q25 0 50 -27z" />
    <glyph glyph-name="Oacute" unicode="&#xd3;" horiz-adv-x="852" 
d="M190 340q0 -126 54 -207q62 -96 182 -96q118 0 182 98q54 83 54 205q0 135 -52 213q-61 90 -184 90q-118 0 -182 -100q-54 -84 -54 -203zM429 694q154 0 255 -81q115 -92 115 -261q0 -166 -103 -266t-270 -100q-162 0 -264 89q-109 94 -109 253q0 181 112 278
q101 88 264 88zM563 831l-164 -101h-51l141 152q25 27 48 27q19 0 33 -11.5t14 -29.5q0 -24 -21 -37z" />
    <glyph glyph-name="Ocircumflex" unicode="&#xd4;" horiz-adv-x="852" 
d="M190 340q0 -126 54 -207q62 -96 182 -96q118 0 182 98q54 83 54 205q0 135 -52 213q-61 90 -184 90q-118 0 -182 -100q-54 -84 -54 -203zM429 694q154 0 255 -81q115 -92 115 -261q0 -166 -103 -266t-270 -100q-162 0 -264 89q-109 94 -109 253q0 181 112 278
q101 88 264 88zM466 893l124 -172h-50l-113 100l-114 -100h-49l123 172h79z" />
    <glyph glyph-name="Otilde" unicode="&#xd5;" horiz-adv-x="852" 
d="M190 340q0 -126 54 -207q62 -96 182 -96q118 0 182 98q54 83 54 205q0 135 -52 213q-61 90 -184 90q-118 0 -182 -100q-54 -84 -54 -203zM429 694q154 0 255 -81q115 -92 115 -261q0 -166 -103 -266t-270 -100q-162 0 -264 89q-109 94 -109 253q0 181 112 278
q101 88 264 88zM568 856h36q-29 -112 -111 -112q-33 0 -85 21.5t-63 21.5q-37 0 -52 -44h-36q34 112 110 112q26 0 78 -21.5t70 -21.5q38 0 53 44z" />
    <glyph glyph-name="Odieresis" unicode="&#xd6;" horiz-adv-x="852" 
d="M190 340q0 -126 54 -207q62 -96 182 -96q118 0 182 98q54 83 54 205q0 135 -52 213q-61 90 -184 90q-118 0 -182 -100q-54 -84 -54 -203zM429 694q154 0 255 -81q115 -92 115 -261q0 -166 -103 -266t-270 -100q-162 0 -264 89q-109 94 -109 253q0 181 112 278
q101 88 264 88zM588 790q0 -24 -17.5 -41.5t-41.5 -17.5q-25 0 -42 17.5t-17 41.5q0 25 17 42t42 17t42 -17.5t17 -41.5zM383 790q0 -24 -17.5 -41.5t-41.5 -17.5q-25 0 -42 17.5t-17 41.5q0 25 17 42t42 17t42 -17.5t17 -41.5z" />
    <glyph glyph-name="multiply" unicode="&#xd7;" horiz-adv-x="667" 
d="M287 306l-205 204l46 46l205 -205l204 205l46 -46l-205 -204l205 -205l-46 -47l-204 205l-205 -205l-46 47z" />
    <glyph glyph-name="Oslash" unicode="&#xd8;" horiz-adv-x="852" 
d="M197 46l-111 -125q-17 19 -42 34q55 58 113 122l-10 10q-96 96 -96 241q0 181 112 278q101 88 264 88q133 0 227 -61l102 120q11 -18 41 -37q-55 -56 -105 -112q105 -90 105 -252q0 -166 -103 -266t-270 -100q-140 0 -227 60zM596 567q-63 76 -171 76q-94 0 -157 -65
q-80 -84 -80 -255q0 -93 40 -169q151 166 368 413zM622 528q-104 -116 -366 -415q62 -76 170 -76q124 0 185 106q49 85 49 219q0 96 -38 166z" />
    <glyph glyph-name="Ugrave" unicode="&#xd9;" horiz-adv-x="722" 
d="M211 686l-3 -76q-3 -76 -3 -258q0 -124 5 -162q5 -44 26 -72q45 -61 153 -61q60 0 105 28.5t62 74.5q13 36 13 135q0 245 -9 391q42 -6 45 -6q2 0 47 6l-3 -48q-4 -64 -10 -393q-2 -85 -27 -135q-23 -46 -75 -79q-67 -43 -168 -43q-108 0 -180 38q-91 49 -106 155
q-2 14 -2 53v272q0 95 -5 180q46 -6 70 -6q25 0 65 6zM299 873l141 -152h-51l-163 101q-21 13 -21 37q0 19 15 30t29 11q25 0 50 -27z" />
    <glyph glyph-name="Uacute" unicode="&#xda;" horiz-adv-x="722" 
d="M211 686l-3 -76q-3 -76 -3 -258q0 -124 5 -162q5 -44 26 -72q45 -61 153 -61q60 0 105 28.5t62 74.5q13 36 13 135q0 245 -9 391q42 -6 45 -6q2 0 47 6l-3 -48q-4 -64 -10 -393q-2 -85 -27 -135q-23 -46 -75 -79q-67 -43 -168 -43q-108 0 -180 38q-91 49 -106 155
q-2 14 -2 53v272q0 95 -5 180q46 -6 70 -6q25 0 65 6zM528 831l-164 -101h-51l141 152q25 27 48 27q19 0 33 -11.5t14 -29.5q0 -24 -21 -37z" />
    <glyph glyph-name="Ucircumflex" unicode="&#xdb;" horiz-adv-x="722" 
d="M211 686l-3 -76q-3 -76 -3 -258q0 -124 5 -162q5 -44 26 -72q45 -61 153 -61q60 0 105 28.5t62 74.5q13 36 13 135q0 245 -9 391q42 -6 45 -6q2 0 47 6l-3 -48q-4 -64 -10 -393q-2 -85 -27 -135q-23 -46 -75 -79q-67 -43 -168 -43q-108 0 -180 38q-91 49 -106 155
q-2 14 -2 53v272q0 95 -5 180q46 -6 70 -6q25 0 65 6zM416 893l124 -172h-50l-113 100l-114 -100h-49l123 172h79z" />
    <glyph glyph-name="Udieresis" unicode="&#xdc;" horiz-adv-x="722" 
d="M211 686l-3 -76q-3 -76 -3 -258q0 -124 5 -162q5 -44 26 -72q45 -61 153 -61q60 0 105 28.5t62 74.5q13 36 13 135q0 245 -9 391q42 -6 45 -6q2 0 47 6l-3 -48q-4 -64 -10 -393q-2 -85 -27 -135q-23 -46 -75 -79q-67 -43 -168 -43q-108 0 -180 38q-91 49 -106 155
q-2 14 -2 53v272q0 95 -5 180q46 -6 70 -6q25 0 65 6zM533 790q0 -24 -17.5 -41.5t-41.5 -17.5q-25 0 -42 17.5t-17 41.5q0 25 17 42t42 17t42 -17.5t17 -41.5zM328 790q0 -24 -17.5 -41.5t-41.5 -17.5q-25 0 -42 17.5t-17 41.5q0 25 17 42t42 17t42 -17.5t17 -41.5z" />
    <glyph glyph-name="Yacute" unicode="&#xdd;" horiz-adv-x="593" 
d="M357 268v-37q0 -68 7 -231l-69 6q-10 0 -67 -6q6 156 6 271l-59 102q-68 113 -188 313q56 -6 82 -6q47 0 82 6q86 -182 175 -338q87 150 173 338q32 -6 58 -6t42 6q-11 -20 -103 -167q-42 -74 -126 -219q-13 -22 -13 -32zM463 831l-164 -101h-51l141 152q25 27 48 27
q19 0 33 -11.5t14 -29.5q0 -24 -21 -37z" />
    <glyph glyph-name="Thorn" unicode="&#xde;" horiz-adv-x="574" 
d="M93 560l-5 126q69 -6 72 -6q23 0 65 6q-7 -42 -7 -153q48 3 98 3q103 0 155 -38q68 -50 68 -141q0 -84 -54 -138q-66 -66 -198 -66q-23 0 -69 4v-47q0 -15 7 -110q-34 6 -70 6t-69 -6q7 107 7 144l2 245q1 100 -2 171zM218 483v-277q36 -4 53 -4q74 0 112 55q27 40 27 94
q0 59 -29 96q-32 40 -89 40q-30 0 -74 -4z" />
    <glyph glyph-name="germandbls" unicode="&#xdf;" horiz-adv-x="574" 
d="M67 0l2 91q5 228 5 293v54q-1 42 -1 53q0 74 6 103q9 42 41 78q65 72 175 72q74 0 116.5 -33t42.5 -93q0 -46 -21 -77q-13 -19 -51 -50q-52 -43 -52 -57q0 -15 45 -52q31 -23 72 -53q43 -34 62 -60q26 -36 26 -79q0 -74 -58 -135q-62 -63 -146 -63q-58 0 -104 27
q19 42 28 87h16q7 -32 34 -51q23 -16 52 -16q37 0 63.5 23.5t26.5 66.5q0 39 -32 74q-21 23 -84 68q-55 39 -70 56q-23 25 -23 56t45.5 73.5t59.5 63.5q19 31 19 78q0 105 -83 105q-64 0 -82 -64q-12 -45 -12 -183l1 -271q0 -111 5 -185q-37 5 -59 5q-10 0 -65 -5z" />
    <glyph glyph-name="agrave" unicode="&#xe0;" horiz-adv-x="500" 
d="M197 264l34 9q21 5 41 10q30 10 34 25q1 5 1 13q0 106 -97 106q-90 0 -108 -71q-10 2 -15 2q-6 0 -16 -2q5 32 5 49q0 18 -1 27q50 30 76 40q39 16 83 16q84 0 133 -38t49 -112q0 -19 -1.5 -87t-1.5 -84q0 -78 5 -98q6 -24 30 -24q10 0 28 8q-4 -12 -4 -18t4 -18
q-57 -22 -85 -22q-40 0 -59 19q-12 11 -24 42q-51 -68 -134 -68q-76 0 -112 46q-26 33 -26 76q0 75 46 109q28 22 115 45zM304 144v104q-96 -25 -120 -41q-35 -22 -35 -72q0 -40 18 -63t48 -23q40 0 64.5 27.5t24.5 67.5zM188 713l141 -152h-51l-163 101q-21 13 -21 37
q0 19 15 30t29 11q25 0 50 -27z" />
    <glyph glyph-name="aacute" unicode="&#xe1;" horiz-adv-x="500" 
d="M197 264l34 9q21 5 41 10q30 10 34 25q1 5 1 13q0 106 -97 106q-90 0 -108 -71q-10 2 -15 2q-6 0 -16 -2q5 32 5 49q0 18 -1 27q50 30 76 40q39 16 83 16q84 0 133 -38t49 -112q0 -19 -1.5 -87t-1.5 -84q0 -78 5 -98q6 -24 30 -24q10 0 28 8q-4 -12 -4 -18t4 -18
q-57 -22 -85 -22q-40 0 -59 19q-12 11 -24 42q-51 -68 -134 -68q-76 0 -112 46q-26 33 -26 76q0 75 46 109q28 22 115 45zM304 144v104q-96 -25 -120 -41q-35 -22 -35 -72q0 -40 18 -63t48 -23q40 0 64.5 27.5t24.5 67.5zM377 671l-164 -101h-51l141 152q25 27 48 27
q19 0 33 -11.5t14 -29.5q0 -24 -21 -37z" />
    <glyph glyph-name="acircumflex" unicode="&#xe2;" horiz-adv-x="500" 
d="M197 264l34 9q21 5 41 10q30 10 34 25q1 5 1 13q0 106 -97 106q-90 0 -108 -71q-10 2 -15 2q-6 0 -16 -2q5 32 5 49q0 18 -1 27q50 30 76 40q39 16 83 16q84 0 133 -38t49 -112q0 -19 -1.5 -87t-1.5 -84q0 -78 5 -98q6 -24 30 -24q10 0 28 8q-4 -12 -4 -18t4 -18
q-57 -22 -85 -22q-40 0 -59 19q-12 11 -24 42q-51 -68 -134 -68q-76 0 -112 46q-26 33 -26 76q0 75 46 109q28 22 115 45zM304 144v104q-96 -25 -120 -41q-35 -22 -35 -72q0 -40 18 -63t48 -23q40 0 64.5 27.5t24.5 67.5zM290 733l124 -172h-50l-113 100l-114 -100h-49
l123 172h79z" />
    <glyph glyph-name="atilde" unicode="&#xe3;" horiz-adv-x="500" 
d="M197 264l34 9q21 5 41 10q30 10 34 25q1 5 1 13q0 106 -97 106q-90 0 -108 -71q-10 2 -15 2q-6 0 -16 -2q5 32 5 49q0 18 -1 27q50 30 76 40q39 16 83 16q84 0 133 -38t49 -112q0 -19 -1.5 -87t-1.5 -84q0 -78 5 -98q6 -24 30 -24q10 0 28 8q-4 -12 -4 -18t4 -18
q-57 -22 -85 -22q-40 0 -59 19q-12 11 -24 42q-51 -68 -134 -68q-76 0 -112 46q-26 33 -26 76q0 75 46 109q28 22 115 45zM304 144v104q-96 -25 -120 -41q-35 -22 -35 -72q0 -40 18 -63t48 -23q40 0 64.5 27.5t24.5 67.5zM392 696h36q-29 -112 -111 -112q-33 0 -85 21.5
t-63 21.5q-37 0 -52 -44h-36q34 112 110 112q26 0 78 -21.5t70 -21.5q38 0 53 44z" />
    <glyph glyph-name="adieresis" unicode="&#xe4;" horiz-adv-x="500" 
d="M197 264l34 9q21 5 41 10q30 10 34 25q1 5 1 13q0 106 -97 106q-90 0 -108 -71q-10 2 -15 2q-6 0 -16 -2q5 32 5 49q0 18 -1 27q50 30 76 40q39 16 83 16q84 0 133 -38t49 -112q0 -19 -1.5 -87t-1.5 -84q0 -78 5 -98q6 -24 30 -24q10 0 28 8q-4 -12 -4 -18t4 -18
q-57 -22 -85 -22q-40 0 -59 19q-12 11 -24 42q-51 -68 -134 -68q-76 0 -112 46q-26 33 -26 76q0 75 46 109q28 22 115 45zM304 144v104q-96 -25 -120 -41q-35 -22 -35 -72q0 -40 18 -63t48 -23q40 0 64.5 27.5t24.5 67.5zM412 630q0 -24 -17.5 -41.5t-41.5 -17.5
q-25 0 -42 17.5t-17 41.5q0 25 17 42t42 17t42 -17.5t17 -41.5zM207 630q0 -24 -17.5 -41.5t-41.5 -17.5q-25 0 -42 17.5t-17 41.5q0 25 17 42t42 17t42 -17.5t17 -41.5z" />
    <glyph glyph-name="aring" unicode="&#xe5;" horiz-adv-x="500" 
d="M197 264l34 9q21 5 41 10q30 10 34 25q1 5 1 13q0 106 -97 106q-90 0 -108 -71q-10 2 -15 2q-6 0 -16 -2q5 32 5 49q0 18 -1 27q50 30 76 40q39 16 83 16q84 0 133 -38t49 -112q0 -19 -1.5 -87t-1.5 -84q0 -78 5 -98q6 -24 30 -24q10 0 28 8q-4 -12 -4 -18t4 -18
q-57 -22 -85 -22q-40 0 -59 19q-12 11 -24 42q-51 -68 -134 -68q-76 0 -112 46q-26 33 -26 76q0 75 46 109q28 22 115 45zM304 144v104q-96 -25 -120 -41q-35 -22 -35 -72q0 -40 18 -63t48 -23q40 0 64.5 27.5t24.5 67.5zM348 656q0 -42 -31 -72.5t-72 -30.5
q-42 0 -72.5 30.5t-30.5 72.5q0 41 30.5 72t72.5 31q41 0 72 -31t31 -72zM306 656q0 24 -18.5 42.5t-42.5 18.5q-25 0 -43 -18.5t-18 -42.5q0 -25 18.5 -43t42.5 -18t42.5 18t18.5 43z" />
    <glyph glyph-name="ae" unicode="&#xe6;" horiz-adv-x="796" 
d="M100 354h-28l6 29q2 10 2 21t-4 29q16 15 58 32q59 23 119 23q88 0 136 -50q64 49 153 49q146 0 193 -115q18 -44 18 -137l-162 3q-56 1 -167 -2q0 -85 32 -130q43 -60 134 -60q68 0 135 62l10 -6q-10 -32 -14 -63q-79 -53 -169 -53q-85 0 -143 40q-39 26 -55 60
q-14 -19 -21 -28q-16 -18 -37 -33q-53 -38 -116 -38q-56 0 -93 25q-51 34 -51 109q0 71 57 105q36 22 141 45q73 16 80 22.5t7 28.5q0 105 -110 105q-84 0 -111 -73zM319 166v82q-78 -21 -94 -26q-37 -12 -52 -25q-25 -22 -25 -64q0 -30 14 -53q21 -32 65 -32q52 0 79 49
q13 23 13 69zM424 285h214q0 80 -16 111q-26 50 -85 50q-70 0 -96 -60q-15 -34 -17 -101z" />
    <glyph glyph-name="ccedilla" unicode="&#xe7;" horiz-adv-x="481" 
d="M218 -96l39 88q-100 11 -158 85q-53 66 -53 155q0 107 64 177q71 79 198 79q70 0 153 -35q-17 -31 -23 -94h-19q-4 22 -21 43q-31 40 -85 40q-68 0 -107 -58q-31 -46 -31 -135q0 -86 31 -139q38 -66 118 -66q39 0 69 17q17 10 53 42l16 -9q-11 -16 -20 -70
q-67 -36 -145 -36l-25 -52q12 4 29 4q90 0 90 -68q0 -88 -131 -88q-56 0 -89 16l16 35q36 -12 63 -12q55 0 55 40q0 37 -51 37q-8 0 -24 -4z" />
    <glyph glyph-name="egrave" unicode="&#xe8;" horiz-adv-x="537" 
d="M493 236h-328q0 -189 159 -189q35 0 76.5 17.5t65.5 45.5l11 -7q-3 -7 -8 -21l-9 -43q-11 -12 -51 -28q-55 -23 -117 -23q-116 0 -182 67t-66 190q0 117 72 183q64 59 160 59q138 0 188 -91q33 -60 29 -160zM167 285h211q0 162 -100 162q-102 0 -111 -162zM206 713
l141 -152h-51l-163 101q-21 13 -21 37q0 19 15 30t29 11q25 0 50 -27z" />
    <glyph glyph-name="eacute" unicode="&#xe9;" horiz-adv-x="537" 
d="M493 236h-328q0 -189 159 -189q35 0 76.5 17.5t65.5 45.5l11 -7q-3 -7 -8 -21l-9 -43q-11 -12 -51 -28q-55 -23 -117 -23q-116 0 -182 67t-66 190q0 117 72 183q64 59 160 59q138 0 188 -91q33 -60 29 -160zM167 285h211q0 162 -100 162q-102 0 -111 -162zM415 671
l-164 -101h-51l141 152q25 27 48 27q19 0 33 -11.5t14 -29.5q0 -24 -21 -37z" />
    <glyph glyph-name="ecircumflex" unicode="&#xea;" horiz-adv-x="537" 
d="M493 236h-328q0 -189 159 -189q35 0 76.5 17.5t65.5 45.5l11 -7q-3 -7 -8 -21l-9 -43q-11 -12 -51 -28q-55 -23 -117 -23q-116 0 -182 67t-66 190q0 117 72 183q64 59 160 59q138 0 188 -91q33 -60 29 -160zM167 285h211q0 162 -100 162q-102 0 -111 -162zM308 733
l124 -172h-50l-113 100l-114 -100h-49l123 172h79z" />
    <glyph glyph-name="edieresis" unicode="&#xeb;" horiz-adv-x="537" 
d="M493 236h-328q0 -189 159 -189q35 0 76.5 17.5t65.5 45.5l11 -7q-3 -7 -8 -21l-9 -43q-11 -12 -51 -28q-55 -23 -117 -23q-116 0 -182 67t-66 190q0 117 72 183q64 59 160 59q138 0 188 -91q33 -60 29 -160zM167 285h211q0 162 -100 162q-102 0 -111 -162zM430 630
q0 -24 -17.5 -41.5t-41.5 -17.5q-25 0 -42 17.5t-17 41.5q0 25 17 42t42 17t42 -17.5t17 -41.5zM225 630q0 -24 -17.5 -41.5t-41.5 -17.5q-25 0 -42 17.5t-17 41.5q0 25 17 42t42 17t42 -17.5t17 -41.5z" />
    <glyph glyph-name="igrave" unicode="&#xec;" 
d="M193 480l-2 -45q-6 -135 -6 -171q0 -38 3 -182q0 -6 2 -41t2 -41q-38 6 -58 6q-22 0 -68 -6l5 108q3 65 3 124q0 148 -10 248q40 -6 67 -6q30 0 62 6zM67 713l141 -152h-51l-163 101q-21 13 -21 37q0 19 15 30t29 11q25 0 50 -27z" />
    <glyph glyph-name="iacute" unicode="&#xed;" 
d="M193 480l-2 -45q-6 -135 -6 -171q0 -38 3 -182q0 -6 2 -41t2 -41q-38 6 -58 6q-22 0 -68 -6l5 108q3 65 3 124q0 148 -10 248q40 -6 67 -6q30 0 62 6zM266 671l-164 -101h-51l141 152q25 27 48 27q19 0 33 -11.5t14 -29.5q0 -24 -21 -37z" />
    <glyph glyph-name="icircumflex" unicode="&#xee;" 
d="M193 480l-2 -45q-6 -135 -6 -171q0 -38 3 -182q0 -6 2 -41t2 -41q-38 6 -58 6q-22 0 -68 -6l5 108q3 65 3 124q0 148 -10 248q40 -6 67 -6q30 0 62 6zM169 733l124 -172h-50l-113 100l-114 -100h-49l123 172h79z" />
    <glyph glyph-name="idieresis" unicode="&#xef;" 
d="M193 480l-2 -45q-6 -135 -6 -171q0 -38 3 -182q0 -6 2 -41t2 -41q-38 6 -58 6q-22 0 -68 -6l5 108q3 65 3 124q0 148 -10 248q40 -6 67 -6q30 0 62 6zM291 630q0 -24 -17.5 -41.5t-41.5 -17.5q-25 0 -42 17.5t-17 41.5q0 25 17 42t42 17t42 -17.5t17 -41.5zM86 630
q0 -24 -17.5 -41.5t-41.5 -17.5q-25 0 -42 17.5t-17 41.5q0 25 17 42t42 17t42 -17.5t17 -41.5z" />
    <glyph glyph-name="eth" unicode="&#xf0;" horiz-adv-x="593" 
d="M45 237q0 115 68.5 182.5t182.5 67.5q31 0 56 -5q-29 49 -104 118q-96 -32 -148 -58q-11 25 -28 46q65 16 140 44q-51 43 -120 85q44 16 72 30q68 -36 132 -85q48 17 148 58q11 -23 28 -46q-87 -22 -139 -43q214 -163 214 -386q0 -124 -67 -190.5t-184 -66.5
q-114 0 -182.5 67t-68.5 182zM170 238q0 -210 126 -210t126 210q0 209 -126 209t-126 -209z" />
    <glyph glyph-name="ntilde" unicode="&#xf1;" horiz-adv-x="574" 
d="M504 316q0 -11 -2 -88.5t-2 -104.5q0 -83 7 -123q-66 6 -65 6q-8 0 -65 -6q12 72 12 189q0 134 -7 161q-17 66 -93 66q-61 0 -89 -58q-17 -35 -17 -132q0 -131 7 -226q-60 6 -63 6q-21 0 -63 -6q10 148 10 267q0 128 -8 213q30 -6 66 -6q23 0 55 6q-5 -29 -5 -83
q34 46 64 65q37 23 91 23q81 0 124 -44t43 -125zM429 696h36q-29 -112 -111 -112q-33 0 -85 21.5t-63 21.5q-37 0 -52 -44h-36q34 112 110 112q26 0 78 -21.5t70 -21.5q38 0 53 44z" />
    <glyph glyph-name="ograve" unicode="&#xf2;" horiz-adv-x="593" 
d="M45 237q0 115 68.5 182.5t182.5 67.5q117 0 184 -64.5t67 -185.5q0 -116 -67.5 -182.5t-183.5 -66.5q-114 0 -182.5 67t-68.5 182zM170 238q0 -210 126 -210t126 210q0 209 -126 209t-126 -209zM234 713l141 -152h-51l-163 101q-21 13 -21 37q0 19 15 30t29 11
q25 0 50 -27z" />
    <glyph glyph-name="oacute" unicode="&#xf3;" horiz-adv-x="593" 
d="M45 237q0 115 68.5 182.5t182.5 67.5q117 0 184 -64.5t67 -185.5q0 -116 -67.5 -182.5t-183.5 -66.5q-114 0 -182.5 67t-68.5 182zM170 238q0 -210 126 -210t126 210q0 209 -126 209t-126 -209zM433 671l-164 -101h-51l141 152q25 27 48 27q19 0 33 -11.5t14 -29.5
q0 -24 -21 -37z" />
    <glyph glyph-name="ocircumflex" unicode="&#xf4;" horiz-adv-x="593" 
d="M45 237q0 115 68.5 182.5t182.5 67.5q117 0 184 -64.5t67 -185.5q0 -116 -67.5 -182.5t-183.5 -66.5q-114 0 -182.5 67t-68.5 182zM170 238q0 -210 126 -210t126 210q0 209 -126 209t-126 -209zM336 733l124 -172h-50l-113 100l-114 -100h-49l123 172h79z" />
    <glyph glyph-name="otilde" unicode="&#xf5;" horiz-adv-x="593" 
d="M45 237q0 115 68.5 182.5t182.5 67.5q117 0 184 -64.5t67 -185.5q0 -116 -67.5 -182.5t-183.5 -66.5q-114 0 -182.5 67t-68.5 182zM170 238q0 -210 126 -210t126 210q0 209 -126 209t-126 -209zM438 696h36q-29 -112 -111 -112q-33 0 -85 21.5t-63 21.5q-37 0 -52 -44
h-36q34 112 110 112q26 0 78 -21.5t70 -21.5q38 0 53 44z" />
    <glyph glyph-name="odieresis" unicode="&#xf6;" horiz-adv-x="593" 
d="M45 237q0 115 68.5 182.5t182.5 67.5q117 0 184 -64.5t67 -185.5q0 -116 -67.5 -182.5t-183.5 -66.5q-114 0 -182.5 67t-68.5 182zM170 238q0 -210 126 -210t126 210q0 209 -126 209t-126 -209zM458 630q0 -24 -17.5 -41.5t-41.5 -17.5q-25 0 -42 17.5t-17 41.5
q0 25 17 42t42 17t42 -17.5t17 -41.5zM253 630q0 -24 -17.5 -41.5t-41.5 -17.5q-25 0 -42 17.5t-17 41.5q0 25 17 42t42 17t42 -17.5t17 -41.5z" />
    <glyph glyph-name="divide" unicode="&#xf7;" horiz-adv-x="667" 
d="M593 338v-65h-519v65h519zM399 111q0 -26 -19.5 -45.5t-45.5 -19.5q-27 0 -46.5 19t-19.5 46t19.5 46.5t46.5 19.5q25 0 45 -20t20 -46zM399 499q0 -26 -19.5 -45.5t-45.5 -19.5q-27 0 -46.5 19t-19.5 46t19.5 46.5t46.5 19.5q25 0 45 -20t20 -46z" />
    <glyph glyph-name="oslash" unicode="&#xf8;" horiz-adv-x="593" 
d="M151 26l-76 -93l-34 28l76 91q-72 70 -72 184q0 113 66.5 182t178.5 69q92 0 153 -37l79 95l34 -28l-78 -92q69 -65 69 -172q0 -124 -62 -193q-64 -72 -185 -72q-91 0 -149 38zM182 131l211 258q-32 58 -96 58q-127 0 -127 -205q0 -66 12 -111zM422 240q0 60 -12 103
l-211 -258q34 -57 95 -57q128 0 128 212z" />
    <glyph glyph-name="ugrave" unicode="&#xf9;" horiz-adv-x="574" 
d="M69 164q0 35 2 105.5t2 105.5q0 52 -6 105q35 -6 64 -6q32 0 65 6q-12 -61 -12 -218q0 -108 7 -134q8 -30 32.5 -47.5t55.5 -17.5q65 0 94 57q17 34 17 123q0 176 -7 237q36 -6 58 -6q27 0 68 6q-10 -148 -10 -268q0 -124 8 -212q-12 1 -35 4q-18 2 -28 2q-13 0 -57 -6
q4 37 4 81q-69 -92 -162 -92q-97 0 -140 79q-20 37 -20 96zM225 713l141 -152h-51l-163 101q-21 13 -21 37q0 19 15 30t29 11q25 0 50 -27z" />
    <glyph glyph-name="uacute" unicode="&#xfa;" horiz-adv-x="574" 
d="M69 164q0 35 2 105.5t2 105.5q0 52 -6 105q35 -6 64 -6q32 0 65 6q-12 -61 -12 -218q0 -108 7 -134q8 -30 32.5 -47.5t55.5 -17.5q65 0 94 57q17 34 17 123q0 176 -7 237q36 -6 58 -6q27 0 68 6q-10 -148 -10 -268q0 -124 8 -212q-12 1 -35 4q-18 2 -28 2q-13 0 -57 -6
q4 37 4 81q-69 -92 -162 -92q-97 0 -140 79q-20 37 -20 96zM454 671l-164 -101h-51l141 152q25 27 48 27q19 0 33 -11.5t14 -29.5q0 -24 -21 -37z" />
    <glyph glyph-name="ucircumflex" unicode="&#xfb;" horiz-adv-x="574" 
d="M69 164q0 35 2 105.5t2 105.5q0 52 -6 105q35 -6 64 -6q32 0 65 6q-12 -61 -12 -218q0 -108 7 -134q8 -30 32.5 -47.5t55.5 -17.5q65 0 94 57q17 34 17 123q0 176 -7 237q36 -6 58 -6q27 0 68 6q-10 -148 -10 -268q0 -124 8 -212q-12 1 -35 4q-18 2 -28 2q-13 0 -57 -6
q4 37 4 81q-69 -92 -162 -92q-97 0 -140 79q-20 37 -20 96zM327 733l124 -172h-50l-113 100l-114 -100h-49l123 172h79z" />
    <glyph glyph-name="udieresis" unicode="&#xfc;" horiz-adv-x="574" 
d="M69 164q0 35 2 105.5t2 105.5q0 52 -6 105q35 -6 64 -6q32 0 65 6q-12 -61 -12 -218q0 -108 7 -134q8 -30 32.5 -47.5t55.5 -17.5q65 0 94 57q17 34 17 123q0 176 -7 237q36 -6 58 -6q27 0 68 6q-10 -148 -10 -268q0 -124 8 -212q-12 1 -35 4q-18 2 -28 2q-13 0 -57 -6
q4 37 4 81q-69 -92 -162 -92q-97 0 -140 79q-20 37 -20 96zM449 630q0 -24 -17.5 -41.5t-41.5 -17.5q-25 0 -42 17.5t-17 41.5q0 25 17 42t42 17t42 -17.5t17 -41.5zM244 630q0 -24 -17.5 -41.5t-41.5 -17.5q-25 0 -42 17.5t-17 41.5q0 25 17 42t42 17t42 -17.5t17 -41.5z
" />
    <glyph glyph-name="yacute" unicode="&#xfd;" horiz-adv-x="500" 
d="M234 241l47 -114l18 42q38 90 70 193q26 84 37 118q24 -6 44 -6q17 0 45 6q-52 -102 -161 -357q-126 -293 -147 -381q-26 6 -45 6q-20 0 -46 -6l16 26q27 43 112 214q-8 26 -97 233l-119 265q42 -6 70 -6q23 0 69 6q21 -80 87 -239zM417 671l-164 -101h-51l141 152
q25 27 48 27q19 0 33 -11.5t14 -29.5q0 -24 -21 -37z" />
    <glyph glyph-name="thorn" unicode="&#xfe;" horiz-adv-x="593" 
d="M548 245q0 -99 -52 -168q-61 -82 -173 -82q-51 0 -88 21q-23 12 -54 44q0 -203 11 -320q-30 6 -66 6q-38 0 -62 -6q12 149 12 505q0 370 -11 496q54 -6 66 -6t35 3t30 3q-19 -161 -19 -331q59 84 156 84t159 -78q56 -71 56 -171zM423 235q0 198 -121 198q-66 0 -97 -68
q-24 -51 -24 -125q0 -193 125 -193q64 0 95 67q22 49 22 121z" />
    <glyph glyph-name="ydieresis" unicode="&#xff;" horiz-adv-x="500" 
d="M234 241l47 -114l18 42q38 90 70 193q26 84 37 118q24 -6 44 -6q17 0 45 6q-52 -102 -161 -357q-126 -293 -147 -381q-26 6 -45 6q-20 0 -46 -6l16 26q27 43 112 214q-8 26 -97 233l-119 265q42 -6 70 -6q23 0 69 6q21 -80 87 -239zM417 630q0 -24 -17.5 -41.5
t-41.5 -17.5q-25 0 -42 17.5t-17 41.5q0 25 17 42t42 17t42 -17.5t17 -41.5zM212 630q0 -24 -17.5 -41.5t-41.5 -17.5q-25 0 -42 17.5t-17 41.5q0 25 17 42t42 17t42 -17.5t17 -41.5z" />
    <glyph glyph-name="dotlessi" unicode="&#x131;" 
d="M193 480l-2 -45q-6 -135 -6 -171q0 -38 3 -182q0 -6 2 -41t2 -41q-38 6 -58 6q-22 0 -68 -6l5 108q3 65 3 124q0 148 -10 248q40 -6 67 -6q30 0 62 6z" />
    <glyph glyph-name="Lslash" unicode="&#x141;" horiz-adv-x="500" 
d="M93 329v88q0 31 -3 138q-2 65 -4 131q30 -6 69 -6q33 0 70 6l-2 -50q-8 -200 -8 -237q48 30 157 100q-4 -26 -4 -42q0 -22 4 -38q-32 -13 -51 -23q-29 -15 -106 -60v-105q0 -1 3 -166h18q173 0 232 9q-5 -18 -5 -38t5 -36q-153 6 -191 6q-81 0 -191 -6q1 41 4 154
q3 92 3 108q-31 -21 -70 -49q4 52 4 44q0 -4 -4 32q36 19 70 40z" />
    <glyph glyph-name="lslash" unicode="&#x142;" 
d="M75 255v74q-33 -29 -65 -67q3 29 3 46q0 20 -3 35q32 27 65 56q0 209 -12 342q38 -6 69 -6q34 0 64 6q-4 -49 -8 -115q-2 -55 -2 -110q25 23 63 69q-3 -24 -3 -48q0 -4 3 -37q-21 -16 -63 -52v-112q0 -45 1 -126t1 -91q0 -26 7 -119q-54 6 -58 6q-24 0 -72 -6
q10 116 10 255z" />
    <glyph glyph-name="OE" unicode="&#x152;" horiz-adv-x="1000" 
d="M41 338q0 164 97 261q93 95 243 95q121 0 222 -84q0 35 -2 76q98 -6 178 -6q-11 0 178 6q-5 -20 -5 -32q0 -24 5 -37l-94 5q-38 2 -137 2v-235q152 0 214 7q-5 -18 -5 -36q0 -22 5 -34q-91 7 -214 7v-271q90 0 237 7q-5 -11 -5 -33t5 -36q-90 6 -180 6q-100 0 -181 -6
q3 41 3 74q-26 -40 -104 -66q-67 -22 -123 -22q-133 0 -227 83q-110 97 -110 269zM610 346q0 151 -64 228q-57 69 -151 69q-112 0 -171 -101q-49 -85 -49 -208q0 -145 70 -226q60 -71 150 -71q109 0 167 101q48 84 48 208z" />
    <glyph glyph-name="oe" unicode="&#x153;" horiz-adv-x="889" 
d="M819 110l11 -7q-3 -4 -16 -64q-12 -14 -54 -30q-56 -21 -116 -21q-108 0 -175 60q-72 -60 -178 -60q-111 0 -179 68.5t-68 179.5q0 113 66.5 182t178.5 69q115 0 181 -56q67 56 160 56q117 0 170 -65q49 -61 46 -186h-327q0 -189 158 -189q31 0 68 14q47 17 74 49z
M421 240q0 208 -125 208q-127 0 -127 -206q0 -214 124 -214q128 0 128 212zM520 285h211q0 162 -101 162t-110 -162z" />
    <glyph glyph-name="Scaron" unicode="&#x160;" horiz-adv-x="537" 
d="M69 150h14q32 -69 73 -95q31 -20 82 -20q59 0 95 35t36 90q0 80 -82 115q-38 15 -103 42q-71 31 -98.5 72t-27.5 105q0 80 49 133q61 67 184 67q75 0 166 -41q-20 -50 -31 -95h-14q-11 42 -46.5 64.5t-84.5 22.5q-57 0 -87.5 -30.5t-30.5 -77.5q0 -50 37 -78
q23 -18 102 -49q66 -25 86 -36q30 -15 50 -37q49 -53 49 -132q0 -87 -58 -148q-69 -71 -196 -71q-85 0 -187 51q16 50 23 113zM229 721l-123 172h49l114 -101l113 101h50l-124 -172h-79z" />
    <glyph glyph-name="scaron" unicode="&#x161;" horiz-adv-x="407" 
d="M56 113h18q33 -76 123 -76q35 0 55 21t20 50q0 28 -25 45q-14 10 -61 28q-30 11 -68 25q-79 39 -79 127q0 68 46.5 111t127.5 43q62 0 134 -30q-21 -40 -25 -89h-16q-17 34 -31 47q-25 23 -65 23q-36 0 -58.5 -18t-22.5 -48t26 -47q18 -11 83.5 -33t90.5 -42
q44 -35 44 -99q0 -59 -42 -106q-53 -59 -149 -59q-58 0 -148 39l15 42q3 18 7 46zM164 561l-123 172h49l114 -101l113 101h50l-124 -172h-79z" />
    <glyph glyph-name="Ydieresis" unicode="&#x178;" horiz-adv-x="593" 
d="M357 268v-37q0 -68 7 -231l-69 6q-10 0 -67 -6q6 156 6 271l-59 102q-68 113 -188 313q56 -6 82 -6q47 0 82 6q86 -182 175 -338q87 150 173 338q32 -6 58 -6t42 6q-11 -20 -103 -167q-42 -74 -126 -219q-13 -22 -13 -32zM468 790q0 -24 -17.5 -41.5t-41.5 -17.5
q-25 0 -42 17.5t-17 41.5q0 25 17 42t42 17t42 -17.5t17 -41.5zM263 790q0 -24 -17.5 -41.5t-41.5 -17.5q-25 0 -42 17.5t-17 41.5q0 25 17 42t42 17t42 -17.5t17 -41.5z" />
    <glyph glyph-name="Zcaron" unicode="&#x17d;" horiz-adv-x="611" 
d="M8 0v32q62 83 143 195q174 256 253 392q-219 0 -354 -11q3 36 3 39q0 20 -3 39q66 -6 269 -6q188 0 270 6q2 -14 2 -17q0 -8 -14 -27l-51 -71q-37 -52 -138 -203l-88 -132q-72 -107 -108 -169h96q103 0 185 7q31 3 114 7q-5 -30 -5 -41q0 -23 5 -40q-180 6 -290 6
q-188 0 -289 -6zM266 721l-123 172h49l114 -101l113 101h50l-124 -172h-79z" />
    <glyph glyph-name="zcaron" unicode="&#x17e;" horiz-adv-x="481" 
d="M19 0v31q71 87 245 343l30 44h-39q-114 0 -208 -10q3 15 3 32t-3 39q48 -6 201 -6q163 0 201 6v-34l-30 -39q-159 -206 -236 -345h35q162 0 233 7q-5 -19 -5 -37q0 -21 3 -31q-29 0 -106 3q-68 3 -109 3q-145 0 -215 -6zM201 561l-123 172h49l114 -101l113 101h50
l-124 -172h-79z" />
    <glyph glyph-name="florin" unicode="&#x192;" horiz-adv-x="519" 
d="M7 -127l14 7q18 -21 53 -21q34 0 46 29q8 20 16 96q5 46 30 204q11 69 26 160q-67 0 -102 -3q6 15 6 28q0 12 -2 26q34 -3 104 -3q26 93 46 135q31 66 84 111q61 52 148 52q-11 -59 -13 -96l-11 -4q-22 24 -53 24q-55 0 -66 -70q-8 -65 -19 -152q73 0 114 3
q-6 -16 -6 -26q0 -17 2 -28q-35 3 -119 3q-7 -37 -19 -113l-21 -135q-28 -181 -127 -266q-64 -55 -139 -55q11 24 11 53q0 17 -3 41z" />
    <glyph glyph-name="circumflex" unicode="&#x2c6;" 
d="M169 733l124 -172h-50l-113 100l-114 -100h-49l123 172h79z" />
    <glyph glyph-name="caron" unicode="&#x2c7;" 
d="M90 561l-123 172h49l114 -101l113 101h50l-124 -172h-79z" />
    <glyph glyph-name="breve" unicode="&#x2d8;" 
d="M-18 720h39q19 -89 103 -89q100 0 114 90h40q-11 -87 -55 -126q-38 -34 -99 -34q-129 0 -142 159z" />
    <glyph glyph-name="dotaccent" unicode="&#x2d9;" 
d="M188 630q0 -24 -17.5 -41.5t-41.5 -17.5q-25 0 -42 17.5t-17 41.5q0 25 17 42t42 17t42 -17.5t17 -41.5z" />
    <glyph glyph-name="ring" unicode="&#x2da;" 
d="M232 656q0 -42 -31 -72.5t-72 -30.5q-42 0 -72.5 30.5t-30.5 72.5q0 41 30.5 72t72.5 31q41 0 72 -31t31 -72zM190 656q0 24 -18.5 42.5t-42.5 18.5q-25 0 -43 -18.5t-18 -42.5q0 -25 18.5 -43t42.5 -18t42.5 18t18.5 43z" />
    <glyph glyph-name="ogonek" unicode="&#x2db;" 
d="M200 12h31q-23 -23 -59 -67q-17 -25 -17 -44q0 -26 18 -40q13 -10 29 -10q22 0 56 27l17 -18q-35 -38 -52 -51q-29 -20 -63 -20q-37 0 -58 25q-19 22 -19 52q0 41 40 83q22 23 77 63z" />
    <glyph glyph-name="tilde" unicode="&#x2dc;" 
d="M271 696h36q-29 -112 -111 -112q-33 0 -85 21.5t-63 21.5q-37 0 -52 -44h-36q34 112 110 112q26 0 78 -21.5t70 -21.5q38 0 53 44z" />
    <glyph glyph-name="hungarumlaut" unicode="&#x2dd;" 
d="M52 561h-48l120 152q21 27 47 27q20 0 33.5 -11t13.5 -29q0 -24 -20 -38zM203 561h-48l120 152q21 27 47 27q20 0 33.5 -11t13.5 -29q0 -24 -20 -38z" />
    <glyph glyph-name="endash" unicode="&#x2013;" horiz-adv-x="500" 
d="M-3 292h506v-84h-506v84z" />
    <glyph glyph-name="emdash" unicode="&#x2014;" horiz-adv-x="1000" 
d="M130 292h740v-84h-740v84z" />
    <glyph glyph-name="quoteleft" unicode="&#x2018;" 
d="M192 715l22 -10l-63 -234q-10 -37 -21 -52q-17 -23 -47 -23q-22 0 -36.5 14t-14.5 36t27 64z" />
    <glyph glyph-name="quoteright" unicode="&#x2019;" 
d="M67 396l-22 10l63 234q10 37 21 52q17 23 47 23q22 0 36.5 -14t14.5 -36t-27 -64z" />
    <glyph glyph-name="quotesinglbase" unicode="&#x201a;" 
d="M53 -178l-22 10l63 234q10 37 21 52q17 23 47 23q22 0 36.5 -14t14.5 -36t-27 -64z" />
    <glyph glyph-name="quotedblleft" unicode="&#x201c;" horiz-adv-x="444" 
d="M196 715l22 -10l-63 -234q-10 -37 -21 -52q-17 -23 -47 -23q-22 0 -36.5 14t-14.5 36t27 64zM377 715l22 -10l-63 -234q-10 -37 -21 -52q-17 -23 -47 -23q-22 0 -36.5 14t-14.5 36t27 64z" />
    <glyph glyph-name="quotedblright" unicode="&#x201d;" horiz-adv-x="444" 
d="M67 396l-22 10l63 234q10 37 21 52q17 23 47 23q22 0 36.5 -14t14.5 -36t-27 -64zM248 396l-22 10l63 234q10 37 21 52q17 23 47 23q22 0 36.5 -14t14.5 -36t-27 -64z" />
    <glyph glyph-name="quotedblbase" unicode="&#x201e;" horiz-adv-x="444" 
d="M53 -178l-22 10l63 234q10 37 21 52q17 23 47 23q22 0 36.5 -14t14.5 -36t-27 -64zM234 -178l-22 10l63 234q10 37 21 52q17 23 47 23q22 0 36.5 -14t14.5 -36t-27 -64z" />
    <glyph glyph-name="dagger" unicode="&#x2020;" horiz-adv-x="519" 
d="M308 582v-114h69q16 0 100 4q-3 -19 -3 -40q0 -20 3 -41q-21 1 -60 3q-35 2 -45 2h-64v-292q0 -66 5 -104q-3 0 -25 3q-18 3 -30 3q-23 0 -52 -6q5 101 5 396h-65q-20 0 -52 -2q-40 -2 -52 -2q3 45 3 43q0 22 -3 37q61 -4 169 -4q0 121 -5 221q34 -6 54 -6q15 0 55 6
q-7 -61 -7 -107z" />
    <glyph glyph-name="daggerdbl" unicode="&#x2021;" horiz-adv-x="519" 
d="M212 247v195h-66q1 0 -104 -3q3 21 3 42q0 11 -3 38q56 -6 170 -6q0 61 -6 176q34 -6 54 -6q15 0 55 6q-7 -65 -7 -107v-69h69q34 0 100 6q-3 -42 -3 -41q0 2 3 -40q-16 0 -49.5 2t-50.5 2h-69v-195h69q18 0 100 5q-3 -19 -3 -40q0 -20 3 -41q-16 0 -49.5 2.5t-50.5 2.5
h-69v-72q0 -66 5 -104q-3 0 -23 3q-16 3 -28 3q-21 0 -56 -6q5 89 6 176h-66q-34 0 -104 -4q3 23 3 44q0 12 -3 36q83 -5 170 -5z" />
    <glyph glyph-name="bullet" unicode="&#x2022;" horiz-adv-x="500" 
d="M424 351q0 -71 -51.5 -122.5t-122.5 -51.5t-122.5 51.5t-51.5 122.5q0 72 51.5 123t122.5 51t122.5 -51t51.5 -123z" />
    <glyph glyph-name="ellipsis" unicode="&#x2026;" horiz-adv-x="1000" 
d="M96 69q0 29 20.5 50t50.5 21q29 0 50 -21t21 -50q0 -28 -21 -49.5t-50 -21.5q-30 0 -50.5 21t-20.5 50zM429 69q0 29 20.5 50t50.5 21q29 0 50 -21t21 -50q0 -28 -21 -49.5t-50 -21.5q-30 0 -50.5 21t-20.5 50zM762 69q0 29 20.5 50t50.5 21q29 0 50 -21t21 -50
q0 -28 -21 -49.5t-50 -21.5q-30 0 -50.5 21t-20.5 50z" />
    <glyph glyph-name="perthousand" unicode="&#x2030;" horiz-adv-x="1000" 
d="M545 161q0 125 -63 125q-41 0 -54 -48q-8 -27 -8 -85q0 -128 63 -128q62 0 62 136zM634 158q0 -89 -56 -133q-42 -33 -96 -33q-67 0 -110 45q-41 42 -41 103q0 79 36 126q39 53 116 53q72 0 111.5 -44.5t39.5 -116.5zM994 158q0 -89 -56 -133q-42 -33 -96 -33
q-67 0 -110 45q-41 42 -41 103q0 79 36 126q39 53 116 53q72 0 111.5 -44.5t39.5 -116.5zM905 161q0 125 -63 125q-41 0 -54 -48q-8 -27 -8 -85q0 -128 63 -128q62 0 62 136zM220 521q0 125 -63 125q-41 0 -54 -48q-8 -27 -8 -85q0 -128 63 -128q62 0 62 136zM309 518
q0 -89 -56 -133q-42 -33 -96 -33q-67 0 -110 45q-41 42 -41 103q0 79 36 126q39 53 116 53q72 0 111.5 -44.5t39.5 -116.5zM498 696h48l-400 -717h-48z" />
    <glyph glyph-name="guilsinglleft" unicode="&#x2039;" horiz-adv-x="278" 
d="M48 245l29 44q34 50 96 153q15 -12 56 -39q-34 -37 -107 -158q6 -8 37.5 -51t36.5 -50l33 -44q-30 -20 -53 -40q-41 65 -128 185z" />
    <glyph glyph-name="guilsinglright" unicode="&#x203a;" horiz-adv-x="278" 
d="M201 289l28 -44q-56 -71 -127 -185q-23 18 -53 40q27 34 106 145q-59 106 -106 158q30 17 55 39q32 -54 58 -95q17 -25 39 -58z" />
    <glyph glyph-name="fraction" unicode="&#x2044;" horiz-adv-x="167" 
d="M260 696h48l-400 -717h-48z" />
    <glyph glyph-name="trademark" unicode="&#x2122;" horiz-adv-x="951" 
d="M181 446v146q0 29 -1 53q-80 0 -118 -3q3 9 3 23q0 11 -3 21q61 -4 158 -4q84 0 151 4q-3 -13 -3 -20q0 -3 3 -24q-34 3 -112 3q-1 -19 -1 -55v-193q0 -26 3 -71q-20 4 -44 4q-18 0 -41 -4q5 100 5 120zM468 686l17 -34q33 -65 110 -188l29 -46q54 83 156 268q9 -1 14 -1
q6 0 17 1l4 -44q1 -10 23 -183q10 -75 23 -133q-26 4 -44 4q-17 0 -42 -4q-3 56 -6 86q-8 65 -17 145q-87 -131 -133 -231q-8 2 -14 2t-14 -2q-17 32 -79 137q-25 41 -54 89q-10 -73 -23 -226q-28 4 -30 4q-6 0 -28 -4q34 160 59 360q10 -1 17 -1t15 1z" />
    <glyph glyph-name="fi" unicode="&#xf001;" horiz-adv-x="556" 
d="M324 640l-7 -6q-30 20 -74 20q-67 0 -67 -64q0 -28 28 -118q57 0 69 1l37 3q-4 -16 -4 -27q0 -13 4 -27q-17 3 -104 3v-55q0 -262 10 -370q-57 6 -63 6q-14 0 -65 -6q6 38 7 101l3 176q0 108 -2 148h-32q-7 0 -43 -3q3 14 3 27q0 -6 -3 27q7 -1 76 -4q7 65 13 88
q9 39 31 78q62 109 160 109q8 0 30 -4q-8 -22 -8 -50q0 -38 1 -53zM490 480l-2 -45q-6 -135 -6 -171q0 -38 3 -182q0 -6 2 -41t2 -41q-38 6 -58 6q-22 0 -68 -6l5 108q3 65 3 124q0 148 -10 248q40 -6 67 -6q30 0 62 6zM425 572q-27 0 -48 20.5t-21 48.5t20.5 49t48.5 21
t49 -21t21 -49t-21.5 -48.5t-48.5 -20.5z" />
    <glyph glyph-name="fl" unicode="&#xf002;" horiz-adv-x="556" 
d="M360 741q38 -6 69 -6q24 0 64 6q-10 -108 -10 -368q0 -288 9 -373q-60 6 -61 6q-16 0 -69 -6q10 70 10 398q0 209 -12 343zM324 640l-7 -6q-30 20 -74 20q-67 0 -67 -64q0 -28 28 -118q57 0 69 1l37 3q-4 -16 -4 -27q0 -13 4 -27q-17 3 -104 3v-55q0 -262 10 -370
q-57 6 -63 6q-14 0 -65 -6q6 38 7 101l3 176q0 108 -2 148h-32q-7 0 -43 -3q3 14 3 27q0 -6 -3 27q7 -1 76 -4q7 65 13 88q9 39 31 78q62 109 160 109q8 0 30 -4q-8 -22 -8 -50q0 -38 1 -53z" />
    <glyph glyph-name="glyph231" horiz-adv-x="260" 
 />
  </font>
</defs>
</svg>
