<svg id="Layer_1" data-name="Layer 1" xmlns="http://www.w3.org/2000/svg" viewBox="0 0 150 150"><defs><style>.cls-1,.cls-2{fill:none;}.cls-1,.cls-2,.cls-3{stroke:#fff;stroke-linecap:round;stroke-linejoin:round;stroke-width:2px;}.cls-1,.cls-3{fill-rule:evenodd;}.cls-3{fill:#fff;}</style></defs><path class="cls-1" d="M18.82,85.93a3.5,3.5,0,1,1-3.5,3.5,3.5,3.5,0,0,1,3.5-3.5Z"/><polyline class="cls-1" points="67.21 56.8 60.94 58.39 77.04 89.43"/><line class="cls-2" x1="33.21" y1="64.03" x2="42.64" y2="88.34"/><polyline class="cls-1" points="41.69 94.5 19.05 89.43 35 69.02 64.35 66.05 65.21 67.73 49.6 89.54"/><path class="cls-1" d="M71,72.77a17.74,17.74,0,1,1-2.07.91"/><path class="cls-1" d="M30,75.49a17.68,17.68,0,0,1,6.77,13.94c0,.57,0,1.13-.08,1.69"/><path class="cls-1" d="M36.31,93.49A17.73,17.73,0,1,1,28,74.13"/><polyline class="cls-1" points="27.86 63.84 29.62 64.45 37.94 63.67"/><path class="cls-1" d="M45.57,87.25a4.7,4.7,0,1,1-4.7,4.7,4.7,4.7,0,0,1,4.7-4.7Z"/><polyline class="cls-1" points="1.13 109.66 91.81 109.66 112.85 85.42 124.6 85.42"/><path class="cls-3" d="M131.7,41.34A17.22,17.22,0,0,0,114.52,58.6c0,4.58,1.37,7.51,4,11l10.5,13.6c1.75,2.26,3.51,2.2,5.26,0l10.5-13.61c2.68-3.46,4-6.4,4-11A17.22,17.22,0,0,0,131.7,41.34Zm0,26.82a9.73,9.73,0,1,1,9.72-9.73A9.73,9.73,0,0,1,131.7,68.16Z"/></svg>