<svg id="Layer_1" data-name="Layer 1" xmlns="http://www.w3.org/2000/svg" viewBox="0 0 150 150"><defs><style>.cls-1,.cls-2{fill:none;stroke:#fff;stroke-linecap:round;stroke-linejoin:round;stroke-width:2px;}.cls-1,.cls-3{fill-rule:evenodd;}.cls-3{fill:#fff;}</style></defs><polyline class="cls-1" points="22.58 119.27 22.58 110.76 30.16 110.76 30.16 68.95 26.5 68.95 22.17 61.52 1.15 61.52"/><polyline class="cls-1" points="148.85 61.52 127.83 61.52 123.5 68.95 119.85 68.95 119.85 110.76 127.42 110.76 127.42 119.27"/><polyline class="cls-1" points="96.6 119.27 96.6 110.76 104.17 110.76 104.17 68.95 100.52 68.95 96.19 61.52 53.82 61.52 49.48 68.95 45.83 68.95 45.83 110.76 53.4 110.76 53.4 119.27"/><line class="cls-2" x1="22.17" y1="61.52" x2="53.82" y2="61.52"/><line class="cls-2" x1="96.19" y1="61.52" x2="127.84" y2="61.52"/><line class="cls-2" x1="30.16" y1="68.95" x2="45.83" y2="68.95"/><line class="cls-2" x1="104.17" y1="68.95" x2="119.85" y2="68.95"/><line class="cls-2" x1="104.17" y1="110.76" x2="119.85" y2="110.76"/><line class="cls-2" x1="30.16" y1="110.76" x2="45.83" y2="110.76"/><line class="cls-2" x1="1.15" y1="119.27" x2="148.85" y2="119.27"/><path class="cls-3" d="M80.66,30.73V50.06h57.13V30.73Zm10.2,6.43H85.22a1,1,0,0,1,0-2h5.64a1,1,0,0,1,0,2Zm8.48,0H93.69a1,1,0,0,1,0-2h5.65a1,1,0,0,1,0,2Zm8.47,0h-5.64a1,1,0,1,1,0-2h5.64a1,1,0,0,1,0,2Zm8.48,0h-5.64a1,1,0,0,1,0-2h5.64a1,1,0,0,1,0,2Zm8.47,0h-5.64a1,1,0,0,1,0-2h5.64a1,1,0,1,1,0,2Zm8.48,0h-5.65a1,1,0,0,1,0-2h5.65a1,1,0,0,1,0,2Z"/><path class="cls-3" d="M38.18,30.73c-7.51,0-12.68.88-18.76,3.73-.48.23-1,.46-1.42.7H31.1a1,1,0,0,1,0,2H14.55c-3.68,2.42-6.12,5.17-5.65,7.59.21,2.09,2,5.31,4.15,5.31H73.81V30.73Zm2.41,6.43H35a1,1,0,0,1,0-2h5.64a1,1,0,0,1,0,2Zm9.49,0H44.44a1,1,0,0,1,0-2h5.64a1,1,0,0,1,0,2Zm9.49,0H53.92a1,1,0,0,1,0-2h5.65a1,1,0,0,1,0,2Zm9.49,0H63.41a1,1,0,0,1,0-2h5.65a1,1,0,0,1,0,2Z"/><line class="cls-2" x1="77.19" y1="32.75" x2="77.19" y2="50.06"/><line class="cls-2" x1="141.18" y1="32.75" x2="141.18" y2="50.06"/><line class="cls-2" x1="1.15" y1="50.06" x2="148.85" y2="50.06"/></svg>