<svg id="Layer_1" data-name="Layer 1" xmlns="http://www.w3.org/2000/svg" viewBox="0 0 150 150"><defs><style>.cls-1,.cls-2,.cls-3{fill:none;}.cls-1,.cls-3{stroke:#fff;stroke-linecap:round;stroke-linejoin:round;stroke-width:2px;}.cls-2{stroke:#000;stroke-miterlimit:22.93;stroke-width:1.28px;}.cls-3,.cls-4{fill-rule:evenodd;}.cls-4,.cls-5{fill:#fff;}</style></defs><line class="cls-1" x1="24.5" y1="52.73" x2="24.5" y2="48.4"/><line class="cls-1" x1="32.13" y1="48.4" x2="16.88" y2="48.4"/><line class="cls-1" x1="35.94" y1="52.73" x2="35.94" y2="37.8"/><line class="cls-2" x1="11.25" y1="59.51" x2="46.05" y2="59.51"/><path class="cls-3" d="M69.1,73.28l1,4.17,21.2,2.92,42.57-9.74c4.85-1.16,9-2,13-5.38,1.28-1.14,2.09-2.43,1.85-3.59-.54-2.57-5-2.85-7.13-3-1.27-.12-2.14-.54-3.31-.75-2.13-.38-5,.22-7.14.7l-46,10.51a4.75,4.75,0,0,1-3.43-.84L71.75,61c-2.42-1.66-3.72-2-5.45-1.8l-2.71.49c-.5.15-.57.54-.23,1.14l4.83,10.22"/><path class="cls-3" d="M141.91,58.68c-.34,1.51-1.1,1.45-1.77,1.6L132.52,62"/><line class="cls-1" x1="122.01" y1="69.57" x2="97.45" y2="75.19"/><line class="cls-1" x1="137.45" y1="73.33" x2="139.48" y2="72.87"/><line class="cls-1" x1="102.64" y1="81.68" x2="111.26" y2="79.95"/><line class="cls-1" x1="78.02" y1="71.17" x2="65.09" y2="74.13"/><path class="cls-4" d="M22,100.61a1,1,0,0,1,1-1h59.3V91.19H26.67a1,1,0,0,1,0-2H37.09V72.88l8.7-6.9V53.74H11.25V66L20,72.88V90.19H6.37v20.89H22Z"/><rect class="cls-5" x="23.97" y="101.61" width="58.3" height="9.48"/><line class="cls-1" x1="1.31" y1="111.08" x2="148.69" y2="111.08"/></svg>