<svg width="80" height="88" viewBox="0 0 80 88" fill="none" xmlns="http://www.w3.org/2000/svg">
<path d="M7.45668 4.37832L12.0935 1.62905C16.4422 -0.946326 22.0103 0.349693 25.1041 4.65544L31.2645 13.2338C33.9448 16.9693 34.0849 22.0511 31.6114 25.7941L24.7158 36.2142C26.4066 41.125 29.2186 45.6967 33.1471 49.9305C36.8975 54.0381 41.4274 57.3494 46.4684 59.6684L56.242 53.7016C59.9444 51.4457 64.6683 51.9989 67.9516 55.0753L75.6142 62.2385C79.4375 65.817 80.2493 71.7647 77.5177 76.157L74.5936 80.8639C71.6792 85.5489 66.5877 88.1704 61.2308 87.7368C48.5755 86.7213 35.2213 78.1918 21.1494 62.1526C7.05724 46.0885 0.0130696 31.3327 0.025847 17.903C0.029942 12.2518 2.85385 7.10509 7.45668 4.37832Z" fill="#223A59"/>
</svg>
