<?xml version="1.0" standalone="no"?>
<!DOCTYPE svg PUBLIC "-//W3C//DTD SVG 20010904//EN"
 "http://www.w3.org/TR/2001/REC-SVG-20010904/DTD/svg10.dtd">
<svg version="1.0" xmlns="http://www.w3.org/2000/svg"
 width="458.000000pt" height="265.000000pt" viewBox="0 0 458.000000 265.000000"
 preserveAspectRatio="xMidYMid meet">

<g transform="translate(0.000000,265.000000) scale(0.100000,-0.100000)"
fill="#000000" stroke="none">
<path d="M3240 2500 c-316 -53 -638 -180 -950 -374 l-119 -74 -53 13 c-84 22
-237 37 -308 29 l-65 -7 80 -27 c76 -26 226 -98 326 -156 l46 -27 79 65 c237
196 550 369 919 509 99 38 173 68 165 68 -8 -1 -62 -9 -120 -19z"/>
<path d="M2725 2009 c-44 -11 -90 -22 -102 -24 -17 -4 -23 -12 -23 -34 0 -22
7 -31 30 -41 18 -8 33 -23 38 -39 9 -35 9 -918 -1 -954 -5 -20 -16 -29 -37
-34 -24 -4 -30 -11 -30 -32 l0 -26 157 1 158 0 3 27 c3 22 -1 27 -17 27 -12 0
-30 9 -41 20 -17 17 -20 33 -20 113 0 80 3 97 20 117 11 13 23 20 28 16 4 -4
43 -78 87 -163 l80 -156 93 -1 92 -1 0 26 c0 15 -6 29 -14 32 -8 3 -30 34 -49
69 -126 231 -187 350 -187 360 1 27 135 193 172 213 28 15 38 26 38 45 l0 25
-135 0 -135 0 0 -25 c0 -20 7 -29 34 -38 67 -25 56 -70 -58 -236 l-61 -88 -3
411 c-2 383 -3 411 -20 410 -9 -1 -53 -10 -97 -20z"/>
<path d="M1945 1788 c-19 -84 -96 -198 -146 -213 -13 -4 -19 -16 -19 -36 0
-25 4 -29 29 -29 l29 0 4 -288 c3 -281 4 -288 28 -337 32 -65 79 -90 148 -80
39 6 55 15 95 56 49 51 58 78 32 99 -13 11 -19 8 -40 -14 -29 -31 -70 -34 -85
-7 -6 12 -10 124 -10 295 l0 276 60 0 60 0 0 35 0 35 -60 0 -60 0 0 120 0 120
-29 0 c-25 0 -30 -5 -36 -32z"/>
<path d="M2307 1597 l-98 -21 3 -30 c2 -23 9 -32 28 -36 46 -11 50 -36 49
-310 -1 -140 -4 -266 -8 -280 -4 -17 -17 -28 -39 -35 -25 -7 -32 -15 -32 -35
l0 -25 160 0 160 0 0 28 c0 20 -5 27 -18 27 -11 0 -27 9 -38 21 -18 20 -19 43
-22 370 l-3 349 -22 -1 c-12 -1 -66 -10 -120 -22z"/>
<path d="M1332 1592 c-87 -32 -122 -77 -122 -160 0 -55 26 -92 64 -92 32 0 50
24 75 99 25 76 45 101 80 101 32 0 44 -8 60 -37 13 -25 19 -152 8 -170 -4 -7
-44 -31 -88 -54 -99 -52 -181 -124 -204 -182 -22 -53 -23 -151 -3 -198 20 -47
65 -87 104 -95 42 -8 110 23 154 69 19 21 37 37 40 37 3 0 11 -15 18 -34 19
-51 47 -71 98 -70 46 1 100 34 130 79 22 34 5 60 -38 60 l-33 0 -5 260 c-6
296 -10 315 -87 369 -36 25 -54 30 -120 33 -58 3 -91 -1 -131 -15z m178 -439
c0 -151 -27 -213 -91 -213 -25 0 -33 6 -46 37 -21 52 -14 141 16 185 26 38 88
88 108 88 10 0 13 -23 13 -97z"/>
<path d="M3432 1592 c-29 -11 -66 -32 -83 -48 -68 -65 -56 -204 18 -204 33 0
60 31 77 89 26 90 43 111 87 111 42 0 63 -33 67 -105 7 -100 1 -110 -76 -149
-183 -93 -256 -192 -238 -322 22 -165 157 -211 271 -94 44 45 55 49 55 21 0
-29 46 -79 80 -86 39 -8 108 22 143 64 15 18 27 36 27 39 -1 21 -23 37 -52 37
-30 0 -33 3 -40 40 -4 22 -7 139 -7 261 -1 211 -2 223 -24 265 -33 61 -89 91
-181 96 -52 3 -85 -2 -124 -15z m168 -461 c0 -125 -1 -130 -26 -161 -21 -24
-33 -30 -58 -28 -40 4 -56 35 -56 111 0 75 26 127 88 172 26 19 48 35 50 35 1
0 2 -58 2 -129z"/>
<path d="M590 1573 c0 -12 13 -34 28 -50 29 -29 27 -23 186 -523 57 -182 63
-195 87 -198 21 -2 27 3 36 30 11 34 102 331 155 503 37 121 59 167 93 193 14
11 25 29 25 41 0 20 -5 21 -100 21 -55 0 -103 1 -107 3 -5 1 -9 -9 -11 -23 -2
-20 5 -28 30 -40 54 -25 51 -74 -19 -307 -20 -68 -39 -123 -42 -123 -10 0
-114 347 -114 380 0 35 19 60 45 60 15 0 19 6 16 25 l-3 26 -153 2 c-150 2
-152 2 -152 -20z"/>
<path d="M3924 1586 c-17 -8 -34 -22 -38 -32 -6 -16 -4 -16 16 3 34 30 63 36
96 19 32 -16 42 -34 42 -71 0 -13 -3 -31 -6 -40 -7 -18 -55 -45 -79 -45 -26 0
-75 55 -76 87 -1 20 -3 22 -6 7 -11 -56 50 -112 108 -99 64 14 91 100 47 149
-29 32 -64 39 -104 22z"/>
<path d="M3931 1503 c1 -32 4 -46 6 -30 5 34 26 35 42 1 6 -15 14 -24 17 -21
3 3 1 14 -5 25 -5 10 -7 29 -4 41 6 25 -9 41 -39 41 -15 0 -18 -9 -17 -57z
m49 26 c0 -12 -29 -24 -37 -16 -3 4 -3 13 0 21 6 16 37 11 37 -5z"/>
<path d="M1297 553 c-11 -10 -8 -43 3 -43 6 0 10 11 10 25 0 26 -2 29 -13 18z"/>
<path d="M1970 370 c0 -120 4 -190 10 -190 6 0 10 70 10 190 0 120 -4 190 -10
190 -6 0 -10 -70 -10 -190z"/>
<path d="M2600 537 c0 -15 4 -27 10 -27 5 0 9 9 7 20 -5 31 -17 36 -17 7z"/>
<path d="M3660 370 c0 -120 4 -190 10 -190 6 0 10 70 10 190 0 120 -4 190 -10
190 -6 0 -10 -70 -10 -190z"/>
<path d="M1180 500 c0 -33 -3 -40 -20 -40 -11 0 -20 -4 -20 -10 0 -5 9 -10 20
-10 18 0 20 -8 22 -127 l3 -128 28 -3 c15 -2 27 1 27 7 0 6 -3 10 -7 10 -31
-5 -33 3 -33 121 0 113 1 120 20 120 11 0 20 5 20 10 0 6 -9 10 -20 10 -17 0
-20 7 -20 40 0 22 -4 40 -10 40 -5 0 -10 -18 -10 -40z"/>
<path d="M2480 501 c0 -34 -3 -41 -20 -41 -11 0 -20 -4 -20 -10 0 -5 9 -10 20
-10 18 0 20 -8 22 -127 l3 -128 28 -3 c15 -2 27 1 27 6 0 5 -8 9 -17 8 -16 -1
-18 12 -21 122 -2 117 -2 122 18 122 11 0 20 5 20 10 0 6 -10 10 -23 10 -20 0
-23 4 -19 34 2 18 -1 37 -7 40 -7 5 -11 -7 -11 -33z"/>
<path d="M420 442 c-43 -35 -48 -187 -8 -237 25 -32 88 -35 118 -5 11 11 20
24 20 29 0 5 3 16 6 25 3 9 2 16 -4 16 -6 0 -15 -13 -20 -29 -19 -55 -88 -66
-113 -18 -19 35 -17 159 3 190 32 48 89 43 108 -9 5 -13 14 -24 19 -24 16 0
-9 59 -29 70 -29 16 -76 12 -100 -8z"/>
<path d="M600 320 c0 -87 4 -140 10 -140 6 0 10 40 10 100 0 113 11 147 55
166 26 11 27 13 8 14 -12 0 -31 -10 -43 -22 l-20 -22 0 22 c0 12 -4 22 -10 22
-6 0 -10 -53 -10 -140z"/>
<path d="M751 434 c-39 -50 -39 -178 0 -228 41 -53 140 -20 138 45 -1 22 -2
21 -15 -9 -30 -69 -104 -66 -123 5 -21 73 -20 73 69 73 76 0 80 1 80 23 0 41
-21 97 -40 107 -36 19 -87 12 -109 -16z m98 -1 c12 -10 24 -35 28 -55 l6 -38
-72 0 c-78 0 -80 2 -60 59 17 48 62 63 98 34z"/>
<path d="M967 442 c-9 -10 -17 -29 -16 -43 1 -23 1 -23 13 4 7 16 19 33 27 38
41 26 93 -8 87 -58 -3 -24 -10 -30 -58 -46 -65 -21 -80 -38 -80 -87 0 -44 24
-70 64 -70 31 0 66 16 66 30 0 5 -13 2 -29 -8 -24 -13 -34 -14 -55 -4 -22 10
-26 18 -26 51 0 45 8 52 74 74 l48 17 -4 -58 c-6 -66 4 -102 29 -102 13 0 14
3 5 12 -8 8 -12 48 -12 113 0 128 -10 149 -71 153 -34 2 -49 -2 -62 -16z"/>
<path d="M1297 453 c-11 -11 -8 -261 3 -268 6 -4 10 43 10 134 0 78 -1 141 -3
141 -2 0 -7 -3 -10 -7z"/>
<path d="M1390 320 c0 -87 4 -140 10 -140 6 0 10 43 10 110 0 104 1 112 25
135 28 29 57 32 79 9 13 -12 16 -40 16 -135 0 -73 4 -119 10 -119 6 0 10 46
10 118 0 139 -10 162 -67 162 -20 0 -45 -7 -55 -17 -17 -15 -18 -15 -18 0 0
10 -4 17 -10 17 -6 0 -10 -53 -10 -140z"/>
<path d="M1632 435 c-26 -33 -36 -91 -27 -157 12 -83 68 -121 123 -82 12 8 22
20 22 26 0 6 -8 4 -18 -5 -27 -25 -69 -21 -87 7 -37 56 -26 194 16 217 33 17
69 2 85 -36 10 -24 13 -68 11 -155 -2 -107 -5 -124 -22 -136 -31 -23 -71 -17
-94 14 -19 25 -20 25 -21 6 0 -50 90 -68 132 -26 22 21 23 32 26 187 3 114 0
165 -7 165 -6 0 -11 -9 -11 -20 l0 -20 -20 20 c-29 29 -83 27 -108 -5z"/>
<path d="M2078 443 c-20 -23 -32 -63 -20 -63 6 0 13 11 16 25 12 49 83 58 107
14 21 -40 4 -66 -58 -86 -70 -22 -91 -53 -73 -107 6 -19 18 -37 26 -40 29 -11
73 -6 89 11 16 16 18 16 27 0 5 -9 16 -17 23 -17 17 0 20 17 5 22 -5 2 -11 54
-14 117 -3 96 -6 116 -22 128 -26 19 -88 17 -106 -4z m97 -212 c-27 -54 -95
-51 -109 5 -10 39 16 70 71 86 l48 14 3 -38 c2 -20 -4 -51 -13 -67z"/>
<path d="M2288 450 c-22 -13 -32 -64 -18 -90 6 -11 35 -31 64 -44 57 -25 72
-50 56 -92 -11 -28 -52 -41 -84 -26 -12 5 -27 25 -33 43 l-11 34 -1 -31 c-1
-40 27 -66 74 -66 94 0 111 109 22 148 -57 24 -77 43 -77 70 0 24 33 54 61 54
20 0 49 -31 49 -53 0 -9 5 -17 11 -17 13 0 4 47 -13 67 -12 15 -76 17 -100 3z"/>
<path d="M2600 320 c0 -78 4 -139 8 -136 13 8 15 263 3 271 -8 4 -11 -38 -11
-135z"/>
<path d="M2690 320 c0 -78 4 -140 9 -140 9 0 19 215 12 258 -2 12 -7 22 -12
22 -5 0 -9 -63 -9 -140z"/>
<path d="M2738 449 c-10 -5 -18 -14 -18 -19 0 -5 13 -2 29 8 24 13 34 14 55 4
26 -12 26 -12 26 -131 0 -69 4 -122 10 -126 6 -4 10 38 10 118 0 107 -2 126
-18 140 -21 19 -68 22 -94 6z"/>
<path d="M2932 435 c-26 -33 -36 -91 -27 -157 13 -89 78 -126 130 -73 l25 24
0 -44 c0 -81 -75 -117 -119 -57 -14 18 -20 22 -21 11 -1 -53 89 -74 132 -31
22 21 23 32 26 187 2 112 0 165 -7 165 -6 0 -11 -10 -11 -22 l0 -22 -16 22
c-23 33 -86 31 -112 -3z m97 -4 c37 -37 41 -154 7 -206 -20 -30 -65 -34 -89
-7 -22 24 -32 117 -18 169 17 62 62 82 100 44z"/>
<path d="M3242 443 c56 -205 74 -263 84 -263 6 0 27 60 47 134 41 148 41 146
28 146 -5 0 -21 -51 -36 -112 -15 -62 -31 -119 -35 -126 -3 -7 -21 43 -39 112
-19 69 -38 126 -43 126 -6 0 -8 -8 -6 -17z"/>
<path d="M3468 443 c-18 -21 -30 -63 -18 -63 4 0 11 11 14 25 8 31 45 50 80
41 19 -5 27 -15 32 -40 8 -46 3 -51 -59 -71 -59 -20 -75 -31 -77 -60 -7 -65
13 -95 61 -95 33 0 69 16 69 30 0 5 -13 2 -29 -8 -24 -13 -34 -14 -55 -4 -22
10 -26 18 -26 51 0 45 11 56 75 75 l47 15 -4 -57 c-6 -66 4 -102 29 -102 13 0
14 3 5 12 -8 8 -12 48 -12 113 0 128 -10 149 -71 153 -34 2 -49 -2 -61 -15z"/>
<path d="M3752 340 c-1 -69 2 -130 6 -137 17 -27 59 -33 96 -13 29 14 36 15
36 4 0 -8 5 -14 10 -14 6 0 10 51 10 134 0 79 -4 137 -10 141 -6 4 -10 -30
-10 -95 0 -69 -5 -110 -15 -129 -21 -42 -56 -52 -90 -27 -17 12 -20 32 -26
138 l-6 123 -1 -125z"/>
<path d="M3990 440 c-27 -27 -33 -57 -28 -144 4 -87 22 -116 74 -116 18 0 40
3 49 6 16 6 45 54 45 74 0 20 -15 9 -30 -22 -19 -40 -40 -53 -72 -45 -29 8
-38 23 -48 85 l-7 42 79 0 78 0 0 38 c0 20 -9 52 -20 70 -17 27 -25 32 -60 32
-26 0 -47 -7 -60 -20z m100 -12 c12 -13 20 -35 20 -55 l0 -33 -65 0 -65 0 0
30 c0 36 38 80 69 80 11 0 29 -10 41 -22z"/>
</g>
</svg>
