<svg xmlns="http://www.w3.org/2000/svg" viewBox="0 0 111.49 26.29"><defs><style>.cls-1{fill:#231f20;fill-rule:evenodd;}</style></defs><g id="Layer_2" data-name="Layer 2"><g id="Layer_1-2" data-name="Layer 1"><path class="cls-1" d="M109.11,19.71h-2.52v-7h-4.53L100.3,15.1l-2,2.59h0l-1.5,2H93.71l3.44-4.6h0l2.19-2.91h0l1.33-1.78h10.82v2.34h-2.38ZM101,16.06l2.72,3.65H100.6l-1.16-1.55Zm-4.59-1.92-1-1.4h-2v7h-.81l-1.71-1.56L87.69,15.3v4.41H85.17v-9.3h.76L87.69,12l3.14,2.88V10.41h6L98,12Z"/><path class="cls-1" d="M109.11,19.71h-2.52v-7h-4.53L100.3,15.1l-2,2.59h0l-1.5,2H93.71l3.44-4.6h0l2.19-2.91h0l1.33-1.78h10.82v2.34h-2.38ZM101,16.06l2.72,3.65H100.6l-1.16-1.55Zm-4.59-1.92-1-1.4h-2v7h-.81l-1.71-1.56L87.69,15.3v4.41H85.17v-9.3h.76L87.69,12l3.14,2.88V10.41h6L98,12Z"/><path class="cls-1" d="M.48,22.72V24.1H1.82v.29H1.55l-.22,0H.48V26H1.7l.28,0v.33H0V22.46H2l0,.16,0,.16-.27-.05H.48Z"/><path class="cls-1" d="M6.86,22.46H7c.08.73.13,1.18.14,1.34.06.54.11,1,.15,1.26s.09.69.16,1.17l-.26,0-.26,0c0-.37-.06-.72-.09-1.06l-.09-1c0-.33-.07-.59-.1-.8L6,24.44c-.19.35-.35.66-.48.92s-.27.55-.38.81H5.12l-.3-.63-.35-.71c-.11-.2-.23-.44-.38-.73s-.26-.48-.38-.72L3.53,25a11.86,11.86,0,0,0-.09,1.25l-.19,0-.2,0q.12-.72.3-2c.13-.88.2-1.46.23-1.73h.14l.47.92c.14.28.32.61.52,1s.41.73.56,1Z"/><path class="cls-1" d="M10.32,22.37,12,26.23l-.28,0-.29,0c-.14-.38-.25-.69-.34-.92l-.24-.57H9.42c-.21.53-.33.83-.35.91a5.66,5.66,0,0,0-.19.58l-.2,0-.2,0,1.72-3.86Zm.41,2.14-.6-1.41-.6,1.41Z"/><path class="cls-1" d="M14.88,22.37l1.65,3.86-.29,0-.29,0c-.13-.38-.24-.69-.33-.92s-.14-.34-.25-.57H14l-.36.91a6,6,0,0,0-.18.58l-.21,0-.19,0,1.71-3.86Zm.41,2.14-.61-1.41-.6,1.41Z"/><path class="cls-1" d="M17.6,26.23V22.46h1.16a1.7,1.7,0,0,1,.92.2.72.72,0,0,1,.3.63.9.9,0,0,1-.35.73,1.73,1.73,0,0,1-.78.32L20,25.78l.27.31.1.14-.32,0-.31,0-.35-.48-.64-.85-.44-.52h-.21v1.85l-.24,0-.24,0Zm.48-3.58v1.53h.51a.69.69,0,0,0,.2,0,.94.94,0,0,0,.51-.27.73.73,0,0,0,.2-.51.64.64,0,0,0-.61-.69,1.23,1.23,0,0,0-.29,0h-.52Z"/><path class="cls-1" d="M23.89,26.21V22.46H25a1.88,1.88,0,0,1,.93.17.63.63,0,0,1,.29.59.88.88,0,0,1-.24.62,1.23,1.23,0,0,1-.62.35,1.09,1.09,0,0,1,.65.2.76.76,0,0,1,.35.67,1.07,1.07,0,0,1-.49.93,1.28,1.28,0,0,1-.56.19,4.54,4.54,0,0,1-.6,0Zm.49-3.55v1.45h.24l.39,0a1,1,0,0,0,.31-.09.67.67,0,0,0,.42-.67.57.57,0,0,0-.24-.52,1.26,1.26,0,0,0-.69-.15Zm0,1.67V26h.55a.92.92,0,0,0,.66-.24.81.81,0,0,0,.26-.62.71.71,0,0,0-.32-.65,1.5,1.5,0,0,0-.82-.17Z"/><path class="cls-1" d="M28.29,22.46v2.1a1.84,1.84,0,0,0,.25,1.1,1.13,1.13,0,0,0,1,.37,1,1,0,0,0,.92-.42,1.9,1.9,0,0,0,.27-1.1V22.46H31v2.19a1.66,1.66,0,0,1-.43,1.22,1.62,1.62,0,0,1-1.18.42,1.69,1.69,0,0,1-1.19-.39,1.14,1.14,0,0,1-.32-.57,2.6,2.6,0,0,1-.07-.67v-2.2h.48Z"/><path class="cls-1" d="M32.54,25.48h.05a1.42,1.42,0,0,0,.37.42.9.9,0,0,0,.53.15.75.75,0,0,0,.55-.23.84.84,0,0,0,.21-.57.7.7,0,0,0-.44-.65L33,24.23a.87.87,0,0,1-.44-.8,1,1,0,0,1,.36-.79,1.32,1.32,0,0,1,.86-.27,1.54,1.54,0,0,1,.42.07.91.91,0,0,1,.36.2l-.07.16-.08.29h0a.79.79,0,0,0-.26-.35.68.68,0,0,0-.42-.13.73.73,0,0,0-.5.18.6.6,0,0,0-.2.46.71.71,0,0,0,.45.65l.83.37a.84.84,0,0,1,.45.76,1.18,1.18,0,0,1-.39.93,1.4,1.4,0,0,1-1,.33,1.61,1.61,0,0,1-.5-.09,1,1,0,0,1-.4-.23,1,1,0,0,0,.06-.22C32.51,25.68,32.52,25.59,32.54,25.48Z"/><polygon class="cls-1" points="36.14 26.23 36.14 22.46 36.38 22.47 36.62 22.46 36.62 26.23 36.38 26.21 36.14 26.23"/><polygon class="cls-1" points="41.25 22.46 41.25 26.23 41.09 26.23 40.8 25.89 38.43 23.26 38.38 23.26 38.38 26.23 38.22 26.21 38.07 26.23 38.07 22.46 38.28 22.45 40.89 25.3 40.95 25.3 40.95 22.46 41.1 22.47 41.25 22.46"/><path class="cls-1" d="M43.18,22.72V24.1h1.34v.29h-.27l-.22,0h-.85V26H44.4l.28,0v.33h-2V22.46h1.95l0,.16,0,.16-.27-.05h-1.2Z"/><path class="cls-1" d="M46.22,25.48h.06a1.56,1.56,0,0,0,.36.42.94.94,0,0,0,.53.15.73.73,0,0,0,.55-.23.8.8,0,0,0,.22-.57.71.71,0,0,0-.44-.65l-.83-.37a.88.88,0,0,1-.45-.8,1,1,0,0,1,.36-.79,1.34,1.34,0,0,1,.86-.27,1.55,1.55,0,0,1,.43.07.91.91,0,0,1,.36.2l-.07.16-.08.29H48a.72.72,0,0,0-.26-.35.64.64,0,0,0-.42-.13.71.71,0,0,0-.49.18.6.6,0,0,0-.2.46.71.71,0,0,0,.45.65l.83.37a.84.84,0,0,1,.45.76A1.18,1.18,0,0,1,48,26a1.41,1.41,0,0,1-1,.33,1.55,1.55,0,0,1-.49-.09,1,1,0,0,1-.4-.23l.06-.22Q46.21,25.65,46.22,25.48Z"/><path class="cls-1" d="M49.92,25.48h0a1.42,1.42,0,0,0,.37.42.92.92,0,0,0,.53.15.75.75,0,0,0,.55-.23.8.8,0,0,0,.22-.57.71.71,0,0,0-.45-.65l-.83-.37a.89.89,0,0,1-.44-.8,1,1,0,0,1,.36-.79,1.34,1.34,0,0,1,.86-.27,1.61,1.61,0,0,1,.43.07.81.81,0,0,1,.35.2l-.06.16s0,.11-.08.29h-.06a.72.72,0,0,0-.26-.35.68.68,0,0,0-.42-.13.71.71,0,0,0-.49.18.57.57,0,0,0-.2.46.71.71,0,0,0,.44.65l.84.37a.84.84,0,0,1,.45.76,1.16,1.16,0,0,1-.4.93,1.4,1.4,0,0,1-1,.33,1.55,1.55,0,0,1-.49-.09.94.94,0,0,1-.4-.23,2.25,2.25,0,0,0,.05-.22C49.89,25.68,49.91,25.59,49.92,25.48Z"/><path class="cls-1" d="M55.62,26.21V22.46h1.62a3.14,3.14,0,0,1,.79.08,1.14,1.14,0,0,1,.42.25,1.49,1.49,0,0,1,.45.6,2.39,2.39,0,0,1,0,1.74,1.87,1.87,0,0,1-.5.66,1.58,1.58,0,0,1-.59.31,4,4,0,0,1-1.07.11Zm.48-3.53V26h.72a3.49,3.49,0,0,0,.51,0,1.21,1.21,0,0,0,.38-.12,1.31,1.31,0,0,0,.62-.65,2.38,2.38,0,0,0,.17-.93A1.66,1.66,0,0,0,58.12,23a1.93,1.93,0,0,0-1.32-.37l-.39,0Z"/><polygon class="cls-1" points="60.3 26.23 60.3 22.46 60.55 22.47 60.79 22.46 60.79 26.23 60.55 26.21 60.3 26.23"/><path class="cls-1" d="M62.14,25.48h.06a1.56,1.56,0,0,0,.36.42.94.94,0,0,0,.53.15.73.73,0,0,0,.55-.23.8.8,0,0,0,.22-.57.71.71,0,0,0-.44-.65l-.83-.37a.88.88,0,0,1-.45-.8.93.93,0,0,1,.37-.79,1.29,1.29,0,0,1,.85-.27,1.55,1.55,0,0,1,.43.07.91.91,0,0,1,.36.2l-.07.16-.08.29h-.06a.67.67,0,0,0-.26-.35.64.64,0,0,0-.42-.13.71.71,0,0,0-.49.18.6.6,0,0,0-.2.46.71.71,0,0,0,.45.65l.83.37a.84.84,0,0,1,.45.76,1.18,1.18,0,0,1-.39.93,1.41,1.41,0,0,1-1,.33,1.55,1.55,0,0,1-.49-.09,1,1,0,0,1-.4-.23c0-.08,0-.15.06-.22S62.13,25.59,62.14,25.48Z"/><path class="cls-1" d="M66.85,22.72v3.51h-.24l-.25,0V22.72h-.61l-.59.06,0-.17,0-.16H68l0,.16,0,.17-.52-.05Z"/><path class="cls-1" d="M69.26,26.23V22.46h1.16a1.67,1.67,0,0,1,.92.2.72.72,0,0,1,.3.63.9.9,0,0,1-.35.73,1.65,1.65,0,0,1-.77.32l1.12,1.44.27.31.11.14-.32,0-.31,0L71,25.75l-.65-.85L70,24.38h-.21v1.85l-.24,0-.24,0Zm.48-3.58v1.53h.51a.64.64,0,0,0,.2,0,.91.91,0,0,0,.51-.27.73.73,0,0,0,.2-.51.63.63,0,0,0-.61-.69,1.23,1.23,0,0,0-.29,0h-.52Z"/><polygon class="cls-1" points="73.28 26.23 73.28 22.46 73.52 22.47 73.76 22.46 73.76 26.23 73.52 26.21 73.28 26.23"/><path class="cls-1" d="M78.2,25.63l0,.35a1.88,1.88,0,0,1-.56.23,2.82,2.82,0,0,1-.65.08,1.87,1.87,0,0,1-1.42-.54A1.93,1.93,0,0,1,75,24.32a1.84,1.84,0,0,1,.6-1.44,2.12,2.12,0,0,1,1.47-.51,3.07,3.07,0,0,1,.6.07,2.81,2.81,0,0,1,.58.19,1.67,1.67,0,0,0-.06.2c0,.09,0,.16,0,.22h0a1,1,0,0,0-.21-.19,1.45,1.45,0,0,0-.84-.29,1.35,1.35,0,0,0-1.13.53,1.94,1.94,0,0,0-.38,1.23A1.89,1.89,0,0,0,76,25.6a1.34,1.34,0,0,0,1.06.47,1.92,1.92,0,0,0,.61-.11A1.84,1.84,0,0,0,78.2,25.63Z"/><path class="cls-1" d="M81.09,22.72v3.51h-.24l-.24,0V22.72H80l-.59.06v-.33h2.83l0,.16,0,.17-.51-.05Z"/><path class="cls-1" d="M.48,22.72V24.1H1.82v.29H1.55l-.22,0H.48V26H1.7l.28,0v.33H0V22.46H2l0,.16,0,.16-.27-.05H.48Z"/><path class="cls-1" d="M6.86,22.46H7c.08.73.13,1.18.14,1.34.06.54.11,1,.15,1.26s.09.69.16,1.17l-.26,0-.26,0c0-.37-.06-.72-.09-1.06l-.09-1c0-.33-.07-.59-.1-.8L6,24.44c-.19.35-.35.66-.48.92s-.27.55-.38.81H5.12l-.3-.63-.35-.71c-.11-.2-.23-.44-.38-.73s-.26-.48-.38-.72L3.53,25a11.86,11.86,0,0,0-.09,1.25l-.19,0-.2,0q.12-.72.3-2c.13-.88.2-1.46.23-1.73h.14l.47.92c.14.28.32.61.52,1s.41.73.56,1Z"/><path class="cls-1" d="M10.32,22.37,12,26.23l-.28,0-.29,0c-.14-.38-.25-.69-.34-.92l-.24-.57H9.42c-.21.53-.33.83-.35.91a5.66,5.66,0,0,0-.19.58l-.2,0-.2,0,1.72-3.86Zm.41,2.14-.6-1.41-.6,1.41Z"/><path class="cls-1" d="M14.88,22.37l1.65,3.86-.29,0-.29,0c-.13-.38-.24-.69-.33-.92s-.14-.34-.25-.57H14l-.36.91a6,6,0,0,0-.18.58l-.21,0-.19,0,1.71-3.86Zm.41,2.14-.61-1.41-.6,1.41Z"/><path class="cls-1" d="M17.6,26.23V22.46h1.16a1.7,1.7,0,0,1,.92.2.72.72,0,0,1,.3.63.9.9,0,0,1-.35.73,1.73,1.73,0,0,1-.78.32L20,25.78l.27.31.1.14-.32,0-.31,0-.35-.48-.64-.85-.44-.52h-.21v1.85l-.24,0-.24,0Zm.48-3.58v1.53h.51a.69.69,0,0,0,.2,0,.94.94,0,0,0,.51-.27.73.73,0,0,0,.2-.51.64.64,0,0,0-.61-.69,1.23,1.23,0,0,0-.29,0h-.52Z"/><path class="cls-1" d="M23.89,26.21V22.46H25a1.88,1.88,0,0,1,.93.17.63.63,0,0,1,.29.59.88.88,0,0,1-.24.62,1.23,1.23,0,0,1-.62.35,1.09,1.09,0,0,1,.65.2.76.76,0,0,1,.35.67,1.07,1.07,0,0,1-.49.93,1.28,1.28,0,0,1-.56.19,4.54,4.54,0,0,1-.6,0Zm.49-3.55v1.45h.24l.39,0a1,1,0,0,0,.31-.09.67.67,0,0,0,.42-.67.57.57,0,0,0-.24-.52,1.26,1.26,0,0,0-.69-.15Zm0,1.67V26h.55a.92.92,0,0,0,.66-.24.81.81,0,0,0,.26-.62.71.71,0,0,0-.32-.65,1.5,1.5,0,0,0-.82-.17Z"/><path class="cls-1" d="M28.29,22.46v2.1a1.84,1.84,0,0,0,.25,1.1,1.13,1.13,0,0,0,1,.37,1,1,0,0,0,.92-.42,1.9,1.9,0,0,0,.27-1.1V22.46H31v2.19a1.66,1.66,0,0,1-.43,1.22,1.62,1.62,0,0,1-1.18.42,1.69,1.69,0,0,1-1.19-.39,1.14,1.14,0,0,1-.32-.57,2.6,2.6,0,0,1-.07-.67v-2.2h.48Z"/><path class="cls-1" d="M32.54,25.48h.05a1.42,1.42,0,0,0,.37.42.9.9,0,0,0,.53.15.75.75,0,0,0,.55-.23.84.84,0,0,0,.21-.57.7.7,0,0,0-.44-.65L33,24.23a.87.87,0,0,1-.44-.8,1,1,0,0,1,.36-.79,1.32,1.32,0,0,1,.86-.27,1.54,1.54,0,0,1,.42.07.91.91,0,0,1,.36.2l-.07.16-.08.29h0a.79.79,0,0,0-.26-.35.68.68,0,0,0-.42-.13.73.73,0,0,0-.5.18.6.6,0,0,0-.2.46.71.71,0,0,0,.45.65l.83.37a.84.84,0,0,1,.45.76,1.18,1.18,0,0,1-.39.93,1.4,1.4,0,0,1-1,.33,1.61,1.61,0,0,1-.5-.09,1,1,0,0,1-.4-.23,1,1,0,0,0,.06-.22C32.51,25.68,32.52,25.59,32.54,25.48Z"/><polygon class="cls-1" points="36.14 26.23 36.14 22.46 36.38 22.47 36.62 22.46 36.62 26.23 36.38 26.21 36.14 26.23"/><polygon class="cls-1" points="41.25 22.46 41.25 26.23 41.09 26.23 40.8 25.89 38.43 23.26 38.38 23.26 38.38 26.23 38.22 26.21 38.07 26.23 38.07 22.46 38.28 22.45 40.89 25.3 40.95 25.3 40.95 22.46 41.1 22.47 41.25 22.46"/><path class="cls-1" d="M43.18,22.72V24.1h1.34v.29h-.27l-.22,0h-.85V26H44.4l.28,0v.33h-2V22.46h1.95l0,.16,0,.16-.27-.05h-1.2Z"/><path class="cls-1" d="M46.22,25.48h.06a1.56,1.56,0,0,0,.36.42.94.94,0,0,0,.53.15.73.73,0,0,0,.55-.23.8.8,0,0,0,.22-.57.71.71,0,0,0-.44-.65l-.83-.37a.88.88,0,0,1-.45-.8,1,1,0,0,1,.36-.79,1.34,1.34,0,0,1,.86-.27,1.55,1.55,0,0,1,.43.07.91.91,0,0,1,.36.2l-.07.16-.08.29H48a.72.72,0,0,0-.26-.35.64.64,0,0,0-.42-.13.71.71,0,0,0-.49.18.6.6,0,0,0-.2.46.71.71,0,0,0,.45.65l.83.37a.84.84,0,0,1,.45.76A1.18,1.18,0,0,1,48,26a1.41,1.41,0,0,1-1,.33,1.55,1.55,0,0,1-.49-.09,1,1,0,0,1-.4-.23l.06-.22Q46.21,25.65,46.22,25.48Z"/><path class="cls-1" d="M49.92,25.48h0a1.42,1.42,0,0,0,.37.42.92.92,0,0,0,.53.15.75.75,0,0,0,.55-.23.8.8,0,0,0,.22-.57.71.71,0,0,0-.45-.65l-.83-.37a.89.89,0,0,1-.44-.8,1,1,0,0,1,.36-.79,1.34,1.34,0,0,1,.86-.27,1.61,1.61,0,0,1,.43.07.81.81,0,0,1,.35.2l-.06.16s0,.11-.08.29h-.06a.72.72,0,0,0-.26-.35.68.68,0,0,0-.42-.13.71.71,0,0,0-.49.18.57.57,0,0,0-.2.46.71.71,0,0,0,.44.65l.84.37a.84.84,0,0,1,.45.76,1.16,1.16,0,0,1-.4.93,1.4,1.4,0,0,1-1,.33,1.55,1.55,0,0,1-.49-.09.94.94,0,0,1-.4-.23,2.25,2.25,0,0,0,.05-.22C49.89,25.68,49.91,25.59,49.92,25.48Z"/><path class="cls-1" d="M55.62,26.21V22.46h1.62a3.14,3.14,0,0,1,.79.08,1.14,1.14,0,0,1,.42.25,1.49,1.49,0,0,1,.45.6,2.39,2.39,0,0,1,0,1.74,1.87,1.87,0,0,1-.5.66,1.58,1.58,0,0,1-.59.31,4,4,0,0,1-1.07.11Zm.48-3.53V26h.72a3.49,3.49,0,0,0,.51,0,1.21,1.21,0,0,0,.38-.12,1.31,1.31,0,0,0,.62-.65,2.38,2.38,0,0,0,.17-.93A1.66,1.66,0,0,0,58.12,23a1.93,1.93,0,0,0-1.32-.37l-.39,0Z"/><polygon class="cls-1" points="60.3 26.23 60.3 22.46 60.55 22.47 60.79 22.46 60.79 26.23 60.55 26.21 60.3 26.23"/><path class="cls-1" d="M62.14,25.48h.06a1.56,1.56,0,0,0,.36.42.94.94,0,0,0,.53.15.73.73,0,0,0,.55-.23.8.8,0,0,0,.22-.57.71.71,0,0,0-.44-.65l-.83-.37a.88.88,0,0,1-.45-.8.93.93,0,0,1,.37-.79,1.29,1.29,0,0,1,.85-.27,1.55,1.55,0,0,1,.43.07.91.91,0,0,1,.36.2l-.07.16-.08.29h-.06a.67.67,0,0,0-.26-.35.64.64,0,0,0-.42-.13.71.71,0,0,0-.49.18.6.6,0,0,0-.2.46.71.71,0,0,0,.45.65l.83.37a.84.84,0,0,1,.45.76,1.18,1.18,0,0,1-.39.93,1.41,1.41,0,0,1-1,.33,1.55,1.55,0,0,1-.49-.09,1,1,0,0,1-.4-.23c0-.08,0-.15.06-.22S62.13,25.59,62.14,25.48Z"/><path class="cls-1" d="M66.85,22.72v3.51h-.24l-.25,0V22.72h-.61l-.59.06,0-.17,0-.16H68l0,.16,0,.17-.52-.05Z"/><path class="cls-1" d="M69.26,26.23V22.46h1.16a1.67,1.67,0,0,1,.92.2.72.72,0,0,1,.3.63.9.9,0,0,1-.35.73,1.65,1.65,0,0,1-.77.32l1.12,1.44.27.31.11.14-.32,0-.31,0L71,25.75l-.65-.85L70,24.38h-.21v1.85l-.24,0-.24,0Zm.48-3.58v1.53h.51a.64.64,0,0,0,.2,0,.91.91,0,0,0,.51-.27.73.73,0,0,0,.2-.51.63.63,0,0,0-.61-.69,1.23,1.23,0,0,0-.29,0h-.52Z"/><polygon class="cls-1" points="73.28 26.23 73.28 22.46 73.52 22.47 73.76 22.46 73.76 26.23 73.52 26.21 73.28 26.23"/><path class="cls-1" d="M78.2,25.63l0,.35a1.88,1.88,0,0,1-.56.23,2.82,2.82,0,0,1-.65.08,1.87,1.87,0,0,1-1.42-.54A1.93,1.93,0,0,1,75,24.32a1.84,1.84,0,0,1,.6-1.44,2.12,2.12,0,0,1,1.47-.51,3.07,3.07,0,0,1,.6.07,2.81,2.81,0,0,1,.58.19,1.67,1.67,0,0,0-.06.2c0,.09,0,.16,0,.22h0a1,1,0,0,0-.21-.19,1.45,1.45,0,0,0-.84-.29,1.35,1.35,0,0,0-1.13.53,1.94,1.94,0,0,0-.38,1.23A1.89,1.89,0,0,0,76,25.6a1.34,1.34,0,0,0,1.06.47,1.92,1.92,0,0,0,.61-.11A1.84,1.84,0,0,0,78.2,25.63Z"/><path class="cls-1" d="M81.09,22.72v3.51h-.24l-.24,0V22.72H80l-.59.06v-.33h2.83l0,.16,0,.17-.51-.05Z"/><polygon class="cls-1" points="16.26 19.71 16.26 14.76 4.93 14.76 4.93 12.25 16.26 12.25 16.26 7.3 4.93 7.3 4.93 4.95 16.26 4.95 16.26 0 16.26 0 0 0 0 19.71 16.26 19.71"/><path class="cls-1" d="M51.89,6.5c0-.16,0-.3,0-.43a6.05,6.05,0,0,0-6-6.05L35.75,0a7.54,7.54,0,0,1,3,5h5.36a2.61,2.61,0,0,1,2.78,2.88h0v4.24a2.63,2.63,0,0,1-2.81,2.7H38.7a7.82,7.82,0,0,1-3.17,5h1l9.12,0a6.24,6.24,0,0,0,6.23-5.75l0-.36V6.5Z"/><path class="cls-1" d="M37.41,6.07a6.06,6.06,0,0,0-6-6.07H17.68V19.71H32.12a6.42,6.42,0,0,0,5.28-6.32,6.21,6.21,0,0,0-1.2-3.68,6.08,6.08,0,0,0,1.21-3.64Zm-6,1.08H22.62V5h8.81a1.1,1.1,0,0,1,0,2.2Zm1,6.28a1.32,1.32,0,0,1-1.28,1.33H22.62V12.1h8.51a.56.56,0,0,1,.17,0h0A1.3,1.3,0,0,1,32.41,13.43Z"/><path class="cls-1" d="M59.45,19.39H55.67V5.14H53.58v-4h5.87V19.39Zm9.83,0H65.5V5.14H63.41v-4h5.87V19.39ZM76.06,1.12h5V12h1.74v3.63H81.05v3.78H77.5V15.61h-7V12.53l5.6-11.41ZM77.5,4.88,74.09,12H77.5Z"/></g></g></svg>