<?xml version="1.0" encoding="UTF-8"?>
<!-- Generator: Adobe Illustrator 26.0.1, SVG Export Plug-In . SVG Version: 6.00 Build 0)  -->
<svg xmlns="http://www.w3.org/2000/svg" xmlns:xlink="http://www.w3.org/1999/xlink" version="1.1" id="Layer_1" x="0px" y="0px" viewBox="0 0 465.28 108.8" style="enable-background:new 0 0 465.28 108.8;" xml:space="preserve">
<style type="text/css">
	.st0{fill:#FFFFFF;}
</style>
<path class="st0" d="M47.11,93.73c0,0,1.11-0.4,2.21-0.4c1.14,0,2.25,0.4,2.25,0.4c0.18-0.23,0.33-0.49,0.43-0.77l5.35-11.07  l5.33,11.06c0.1,0.29,0.26,0.55,0.44,0.78c0,0,1.17-0.42,2.21-0.42c1.04,0,2.21,0.42,2.21,0.42c0.18-0.23,0.34-0.49,0.44-0.78  l5.32-11.06l5.34,11.07c0.1,0.28,0.25,0.54,0.43,0.77c0,0,1.11-0.4,2.25-0.4c1.1,0,2.21,0.4,2.21,0.4c0.18-0.23,0.33-0.49,0.44-0.77  l31.3-65.44c0,0-0.81-0.05-1.48-0.38c-0.67-0.34-1.29-1.01-1.29-1.01h0L81.34,85.84l-5.13-9.96l28.51-59.23c0,0-0.9-0.14-1.54-0.47  c-0.68-0.34-1.23-0.92-1.23-0.92L73.35,70.35l-5.39-10.44l26.16-54.1c0,0-0.83-0.14-1.5-0.48h0c-0.68-0.34-1.26-0.92-1.26-0.92  L65.33,54.8L39.3,4.4c0,0-0.58,0.58-1.26,0.92c-0.67,0.34-1.5,0.48-1.5,0.48l26.16,54.1l-5.39,10.44L28.72,15.26  c0,0-0.55,0.58-1.23,0.92c-0.65,0.32-1.54,0.47-1.54,0.47l28.51,59.23l-5.13,9.96L18.15,26.12h0c0,0-0.62,0.67-1.3,1.01  c-0.66,0.33-1.47,0.38-1.47,0.38l31.3,65.44C46.78,93.24,46.93,93.49,47.11,93.73z M65.33,65.37l5.11,10.59l-5.11,9.86l-5.11-9.86  L65.33,65.37z M83.74,98.94H47.05c-0.06,0-0.12,0.01-0.19,0.02c0,0,0.31,1.09,0.31,2.08c0,1.06-0.31,2.08-0.31,2.08  c0.06,0,0.12,0.02,0.19,0.02h36.69c0.06,0,0.12-0.01,0.19-0.02c0,0-0.36-0.91-0.36-1.91c0-1.02,0.36-2.24,0.36-2.24  C83.86,98.95,83.8,98.94,83.74,98.94z M451.93,46.36c-0.03-2.56-0.06-5.16-0.08-7.8c-0.03-2.64-0.04-5.2-0.04-7.67  c0-3.63,0.07-7.19,0.21-10.68c0.14-3.49,0.29-7.05,0.45-10.69c-0.72,0.11-1.4,0.21-2.06,0.29c-0.66,0.08-1.32,0.13-1.98,0.13  c-0.66,0-1.32-0.04-1.98-0.13c-0.66-0.08-1.35-0.18-2.06-0.29c0.17,3.63,0.32,7.19,0.45,10.69c0.14,3.49,0.21,7.05,0.21,10.68v22.69  c0,3.24-0.1,6.19-0.29,8.83c-0.19,2.64-0.65,4.92-1.36,6.85c-0.72,1.93-1.76,3.42-3.13,4.5c-1.38,1.07-3.22,1.61-5.53,1.61  l0.66,2.31c2.42,0,4.66-0.45,6.72-1.36c2.06-0.91,3.84-2.16,5.32-3.75c1.48-1.6,2.63-3.42,3.42-5.49c0.8-2.06,1.2-4.33,1.2-6.81  c0-1.98-0.01-4.15-0.04-6.52C451.98,51.38,451.96,48.92,451.93,46.36z M238.29,99.88c-0.39-0.9-0.81-1.88-1.26-2.92  c-0.45-1.05-0.89-2.1-1.34-3.17c-0.45-1.06-0.89-2.11-1.32-3.16c-0.43-1.04-0.83-2.01-1.2-2.9h-0.44c-1.2,2.76-2.4,5.47-3.58,8.14  c-1.19,2.67-2.4,5.35-3.65,8.05c0.26-0.03,0.55-0.05,0.85-0.05c0.31,0,0.59,0.02,0.86,0.05c0.2-0.71,0.5-1.61,0.9-2.69  c0.4-1.09,0.85-2.23,1.34-3.43c0.48-0.02,0.95-0.03,1.41-0.04c0.46-0.01,0.93-0.01,1.41-0.01c0.51,0,1.02,0,1.52,0.01  c0.51,0.01,1.01,0.02,1.5,0.04c0.2,0.51,0.42,1.04,0.65,1.61c0.23,0.56,0.46,1.12,0.68,1.67c0.22,0.55,0.43,1.07,0.61,1.57  c0.19,0.5,0.33,0.93,0.44,1.28c0.22-0.03,0.42-0.05,0.61-0.05h0.61h0.61c0.19,0,0.4,0.02,0.61,0.05c-0.2-0.37-0.46-0.91-0.77-1.62  C239.03,101.59,238.68,100.78,238.29,99.88z M233.68,96.76c-0.43,0.01-0.86,0.01-1.3,0.01c-0.4,0-0.82-0.01-1.25-0.02  c-0.43-0.01-0.85-0.02-1.25-0.02l2.52-5.87l2.57,5.87C234.54,96.74,234.11,96.75,233.68,96.76z M216.08,96.09  c-0.15-1.33-0.31-2.69-0.45-4.07c-0.15-1.38-0.31-2.81-0.47-4.29h-0.3c-0.39,0.71-0.8,1.47-1.25,2.29c-0.45,0.82-0.9,1.65-1.35,2.5  c-0.45,0.85-0.9,1.68-1.34,2.51c-0.44,0.82-0.85,1.59-1.24,2.3c-0.38,0.71-0.72,1.34-1.02,1.88c-0.29,0.55-0.52,0.97-0.67,1.26  c-1.19-2.17-2.32-4.29-3.41-6.36c-1.09-2.06-2.16-4.19-3.23-6.38h-0.39c-0.12,1.23-0.27,2.53-0.44,3.9  c-0.17,1.36-0.35,2.75-0.55,4.15c-0.2,1.4-0.41,2.8-0.62,4.19c-0.22,1.39-0.43,2.7-0.62,3.95c0.25-0.03,0.52-0.05,0.81-0.05  c0.29,0,0.56,0.01,0.81,0.05c0-0.62,0.04-1.41,0.11-2.37c0.08-0.96,0.17-1.99,0.28-3.08c0.11-1.09,0.23-2.19,0.36-3.31  c0.13-1.12,0.25-2.15,0.36-3.11h0.05c1.02,2.03,2.03,4.03,3.04,5.98c1.01,1.95,1.98,3.9,2.9,5.84h0.21c0.93-2.1,1.9-4.1,2.92-6.03  c1.02-1.92,2.07-3.85,3.13-5.79h0.04c0.25,2,0.45,3.97,0.63,5.89c0.17,1.93,0.34,3.92,0.51,5.97c0.19-0.03,0.37-0.05,0.54-0.05h0.54  h0.54c0.18,0,0.36,0.01,0.54,0.05c-0.19-1.28-0.36-2.57-0.51-3.87C216.39,98.74,216.23,97.42,216.08,96.09z M423.63,51.8  c-1.4-3.22-2.9-6.69-4.5-10.43c-1.6-3.74-3.19-7.51-4.79-11.3c-1.6-3.8-3.16-7.55-4.7-11.26c-1.54-3.71-2.97-7.16-4.29-10.36h-1.57  c-4.29,9.85-8.55,19.53-12.79,29.04c-4.24,9.52-8.58,19.09-13.04,28.71c0.93-0.11,1.95-0.17,3.05-0.17c1.1,0,2.12,0.05,3.05,0.17  c0.71-2.53,1.79-5.73,3.22-9.61c1.43-3.88,3.02-7.96,4.79-12.25c1.7-0.05,3.38-0.1,5.03-0.13c1.65-0.03,3.33-0.04,5.03-0.04  c1.81,0,3.63,0.01,5.45,0.04c1.81,0.03,3.6,0.07,5.36,0.13c0.71,1.81,1.48,3.73,2.31,5.73c0.82,2.01,1.64,3.99,2.43,5.94  c0.8,1.95,1.53,3.82,2.19,5.61c0.66,1.79,1.18,3.31,1.57,4.58c0.77-0.11,1.5-0.17,2.19-0.17h2.19H428c0.69,0,1.42,0.05,2.19,0.17  c-0.71-1.32-1.64-3.24-2.76-5.77C426.3,57.9,425.03,55.02,423.63,51.8z M407.17,40.66c-1.54,0.03-3.08,0.04-4.62,0.04  c-1.43,0-2.92-0.03-4.46-0.08c-1.54-0.05-3.02-0.08-4.45-0.08l8.99-20.95l9.16,20.95C410.25,40.6,408.71,40.64,407.17,40.66z   M187.79,9.52c0.28,4.84,0.45,10,0.54,15.47c0.08,5.47,0.12,11.1,0.12,16.87v11.22c-2.53-2.53-5.49-5.6-8.87-9.2  c-3.38-3.6-6.96-7.43-10.73-11.47c-3.77-4.04-7.56-8.14-11.39-12.29c-3.82-4.15-7.41-8.04-10.77-11.68h-1.32  c0.11,1.87,0.18,4.7,0.21,8.5c0.03,3.8,0.04,8.33,0.04,13.61c0,1.82-0.03,3.88-0.08,6.19c-0.06,2.31-0.12,4.68-0.21,7.1  c-0.08,2.42-0.19,4.84-0.33,7.26c-0.14,2.42-0.26,4.66-0.37,6.73c-0.11,2.06-0.23,3.84-0.37,5.32c-0.14,1.49-0.26,2.5-0.37,3.05  c0.94-0.11,1.95-0.17,3.05-0.17c1.04,0,2.01,0.05,2.89,0.17c-0.06-0.44-0.11-1.28-0.17-2.52c-0.06-1.24-0.11-2.68-0.16-4.33  c-0.06-1.65-0.11-3.44-0.17-5.36c-0.06-1.92-0.1-3.82-0.12-5.69c-0.03-1.87-0.06-3.66-0.08-5.36c-0.03-1.7-0.04-3.14-0.04-4.29  c0-4.46,0.03-7.97,0.08-10.56c0.05-2.58,0.11-4.65,0.16-6.19c7.15,7.59,14.3,15.22,21.45,22.89c7.15,7.67,13.89,15.17,20.21,22.48  h1.15v-2.72c0-1.32-0.01-2.87-0.04-4.66c-0.03-1.79-0.05-3.71-0.08-5.78c-0.03-2.06-0.06-4.11-0.08-6.15  c-0.03-2.04-0.04-3.99-0.04-5.86v-4.95c0-1.6,0.05-3.71,0.16-6.35c0.11-2.64,0.24-5.33,0.37-8.09c0.14-2.75,0.28-5.33,0.41-7.76  c0.14-2.42,0.26-4.23,0.37-5.45c-1.1,0.28-1.98,0.41-2.64,0.41C189.82,9.93,188.89,9.8,187.79,9.52z M253.8,66.04h2.19  c0.69,0,1.42,0.05,2.19,0.17c-0.71-1.32-1.64-3.24-2.76-5.77c-1.13-2.53-2.39-5.41-3.79-8.62c-1.4-3.22-2.9-6.69-4.5-10.43  c-1.6-3.74-3.19-7.51-4.79-11.3c-1.6-3.8-3.16-7.55-4.7-11.26c-1.54-3.71-2.97-7.16-4.29-10.36h-1.57  c-4.29,9.85-8.55,19.53-12.79,29.04c-4.24,9.52-8.58,19.09-13.04,28.71c0.94-0.11,1.95-0.17,3.05-0.17c1.1,0,2.12,0.05,3.05,0.17  c0.71-2.53,1.79-5.73,3.22-9.61c1.43-3.88,3.02-7.96,4.79-12.25c1.7-0.05,3.38-0.1,5.03-0.13c1.65-0.03,3.33-0.04,5.03-0.04  c1.82,0,3.63,0.01,5.45,0.04c1.81,0.03,3.6,0.07,5.36,0.13c0.71,1.81,1.49,3.73,2.31,5.73c0.83,2.01,1.64,3.99,2.43,5.94  c0.8,1.95,1.53,3.82,2.19,5.61c0.66,1.79,1.18,3.31,1.57,4.58c0.77-0.11,1.5-0.17,2.19-0.17H253.8z M235.15,40.66  c-1.54,0.03-3.08,0.04-4.62,0.04c-1.43,0-2.92-0.03-4.46-0.08c-1.54-0.05-3.03-0.08-4.45-0.08l8.99-20.95l9.16,20.95  C238.23,40.6,236.69,40.64,235.15,40.66z M278.97,102.6c-0.37,0.08-0.81,0.13-1.31,0.17c-0.5,0.04-1.03,0.07-1.59,0.09  c-0.56,0.02-1.14,0.04-1.72,0.04h-1.62c-0.02-0.29-0.03-0.72-0.03-1.29c-0.01-0.57-0.01-1.3-0.01-2.17v-1.39v-0.9  c0-0.25,0-0.45,0.01-0.61c0.01-0.16,0.01-0.31,0.01-0.45c0.28,0,0.65,0,1.12,0.01c0.47,0.01,0.97,0.02,1.5,0.02  c0.53,0.01,1.07,0.03,1.6,0.06c0.53,0.03,1,0.07,1.4,0.12c-0.05-0.23-0.07-0.46-0.07-0.69c0-0.25,0.02-0.48,0.07-0.72  c-0.34,0.03-0.7,0.06-1.08,0.08c-0.38,0.02-0.79,0.05-1.24,0.07c-0.45,0.02-0.94,0.04-1.48,0.06c-0.54,0.01-1.15,0.02-1.83,0.02  c0-0.29,0-0.73-0.01-1.3c-0.01-0.57-0.01-1.16-0.01-1.76c0-0.57,0.01-1.08,0.03-1.53c0.02-0.45,0.04-0.92,0.06-1.41  c0.75,0,1.4,0.01,1.94,0.04c0.54,0.02,1.04,0.05,1.49,0.08c0.46,0.03,0.89,0.06,1.3,0.09c0.41,0.03,0.86,0.06,1.35,0.09  c-0.04-0.23-0.07-0.46-0.07-0.69c0-0.23,0.02-0.46,0.07-0.69c-0.69,0.03-1.38,0.06-2.06,0.08c-0.68,0.02-1.36,0.04-2.06,0.04  c-0.69,0-1.38-0.01-2.07-0.04c-0.69-0.02-1.38-0.05-2.07-0.08c0.05,0.99,0.09,1.97,0.13,2.96c0.04,0.99,0.06,1.99,0.06,3.01v3.98  c0,1.02-0.02,2.02-0.06,2.99c-0.04,0.98-0.08,1.96-0.13,2.95c0.71-0.03,1.41-0.05,2.1-0.05h2.11h2.09c0.69,0,1.38,0.02,2.07,0.05  c-0.05-0.15-0.07-0.36-0.07-0.6c0-0.11,0-0.23,0.01-0.36C278.92,102.82,278.94,102.71,278.97,102.6z M354.87,95.46v-0.05  c1.16-0.26,2.09-0.72,2.81-1.36c0.72-0.65,1.08-1.54,1.08-2.68c0-0.65-0.13-1.19-0.39-1.62c-0.26-0.43-0.62-0.77-1.07-1.03  c-0.45-0.26-0.96-0.43-1.55-0.53c-0.59-0.1-1.21-0.15-1.87-0.15c-0.4,0-0.81,0.02-1.23,0.06c-0.42,0.04-0.82,0.06-1.22,0.06  c-0.4,0-0.81-0.01-1.23-0.04c-0.42-0.02-0.82-0.05-1.22-0.08c0.05,0.99,0.09,1.97,0.13,2.96c0.04,0.99,0.06,1.99,0.06,3v3.98  c0,1.02-0.02,2.02-0.06,2.99c-0.04,0.98-0.08,1.96-0.13,2.95c0.37-0.03,0.74-0.05,1.12-0.05h1.12c0.37,0,0.74,0.01,1.12,0.02  c0.38,0.01,0.75,0.02,1.12,0.02c0.68,0,1.36-0.07,2.04-0.22c0.69-0.14,1.31-0.4,1.88-0.76c0.57-0.36,1.03-0.84,1.39-1.42  c0.35-0.59,0.53-1.31,0.53-2.17c0-1.32-0.4-2.29-1.19-2.89C357.33,95.85,356.25,95.52,354.87,95.46z M351.06,93.4  c0-0.74,0.02-1.47,0.05-2.2c0.03-0.72,0.06-1.46,0.09-2.2c0.22-0.03,0.46-0.06,0.74-0.08c0.28-0.02,0.61-0.03,1.02-0.03  c0.45,0,0.89,0.03,1.34,0.1c0.45,0.07,0.85,0.21,1.2,0.42c0.35,0.21,0.65,0.5,0.88,0.88c0.23,0.38,0.35,0.88,0.35,1.51  c0,0.65-0.13,1.18-0.38,1.61c-0.26,0.42-0.59,0.76-1.01,1.02c-0.42,0.26-0.89,0.44-1.42,0.54c-0.53,0.11-1.07,0.16-1.61,0.16h-1.25  V93.4z M356.89,100.9c-0.2,0.48-0.47,0.89-0.81,1.22c-0.34,0.33-0.74,0.58-1.19,0.75c-0.46,0.17-0.93,0.25-1.42,0.25  c-0.42,0-0.83-0.01-1.23-0.04c-0.4-0.02-0.75-0.05-1.04-0.08c-0.03-0.78-0.06-1.56-0.09-2.33c-0.03-0.77-0.05-1.55-0.05-2.33v-2.36  h1.04c0.77,0,1.47,0.05,2.09,0.14c0.62,0.09,1.16,0.26,1.61,0.5c0.45,0.24,0.79,0.57,1.03,1c0.24,0.42,0.36,0.97,0.36,1.63  C357.19,99.86,357.09,100.41,356.89,100.9z M386.93,90.38c0.61-0.61,1.33-1.06,2.15-1.35c0.82-0.29,1.71-0.44,2.67-0.44  c0.59,0,1.14,0.06,1.65,0.2c0.52,0.13,0.99,0.3,1.41,0.51c0.42,0.21,0.81,0.45,1.16,0.73c0.35,0.28,0.64,0.55,0.87,0.83h0.28  c0.03-0.29,0.1-0.61,0.2-0.95c0.1-0.34,0.21-0.62,0.34-0.83c-0.28-0.14-0.59-0.28-0.95-0.44c-0.36-0.15-0.77-0.3-1.24-0.44  c-0.47-0.14-1.01-0.25-1.62-0.33c-0.61-0.09-1.31-0.13-2.09-0.13c-1.36,0-2.59,0.18-3.71,0.55c-1.12,0.37-2.07,0.91-2.86,1.62  c-0.79,0.71-1.39,1.58-1.83,2.6c-0.43,1.02-0.65,2.19-0.65,3.5c0,1.36,0.21,2.55,0.62,3.58c0.42,1.03,1.01,1.9,1.78,2.59  c0.77,0.69,1.71,1.21,2.81,1.54c1.1,0.33,2.34,0.5,3.71,0.5c0.45,0,0.94-0.03,1.49-0.1c0.55-0.07,1.09-0.15,1.64-0.23  c0.55-0.08,1.06-0.19,1.55-0.32c0.49-0.13,0.89-0.26,1.21-0.38c0-0.31,0-0.62-0.01-0.94c-0.01-0.32-0.01-0.63-0.01-0.93  c0-1.25,0.01-2.26,0.02-3.02c0.02-0.76,0.04-1.32,0.07-1.68c-0.15,0.05-0.32,0.08-0.49,0.09c-0.17,0.01-0.34,0.02-0.51,0.02  c-0.36,0-0.72-0.04-1.11-0.11c0.03,0.49,0.06,1.01,0.08,1.55c0.02,0.54,0.03,1.08,0.03,1.62c0,0.47,0,0.95-0.01,1.41  c-0.01,0.46-0.02,0.92-0.03,1.38c-0.2,0.13-0.44,0.23-0.73,0.32c-0.29,0.09-0.6,0.17-0.92,0.23c-0.33,0.06-0.68,0.11-1.03,0.14  c-0.35,0.03-0.69,0.05-1.02,0.05c-1.08,0-2.04-0.17-2.9-0.51c-0.86-0.34-1.58-0.82-2.17-1.45c-0.59-0.62-1.04-1.39-1.35-2.3  c-0.31-0.91-0.46-1.93-0.46-3.05c0-1.28,0.17-2.38,0.52-3.32C385.84,91.76,386.32,90.99,386.93,90.38z M323.15,88.11  c-0.97,0.02-1.96,0.04-2.98,0.04c-1.02,0-2.01-0.01-2.98-0.04c-0.97-0.02-1.96-0.05-2.98-0.08c0.08,0.31,0.12,0.55,0.12,0.72  c0,0.22-0.04,0.46-0.12,0.74c0.32-0.05,0.69-0.09,1.1-0.11c0.41-0.03,0.83-0.06,1.27-0.08c0.44-0.02,0.88-0.04,1.32-0.05  c0.44-0.01,0.86-0.01,1.26-0.01c0.05,1.59,0.07,3.18,0.07,4.79V98c0,1.02-0.02,2.02-0.06,3.01c-0.04,0.99-0.08,1.96-0.13,2.91  c0.35-0.03,0.73-0.05,1.13-0.05s0.78,0.02,1.13,0.05c-0.05-0.96-0.09-1.93-0.13-2.91c-0.04-0.99-0.06-1.99-0.06-3.01v-3.98  c0-1.6,0.02-3.2,0.07-4.79c0.4,0,0.82,0,1.26,0.01c0.44,0.01,0.88,0.02,1.32,0.05c0.44,0.03,0.86,0.05,1.27,0.08  c0.41,0.03,0.78,0.07,1.1,0.11c-0.08-0.28-0.11-0.52-0.11-0.72c0-0.18,0.04-0.43,0.11-0.74C325.12,88.06,324.12,88.09,323.15,88.11z   M372.18,91.03c0.04-0.98,0.08-1.98,0.13-3c-0.2,0.03-0.39,0.06-0.58,0.08c-0.18,0.02-0.37,0.04-0.56,0.04s-0.37-0.01-0.55-0.04  c-0.19-0.02-0.38-0.05-0.58-0.08c0.05,1.02,0.09,2.02,0.13,3c0.04,0.98,0.06,1.98,0.06,2.99V98c0,1.02-0.02,2.02-0.06,3.01  c-0.04,0.99-0.08,1.96-0.13,2.91c0.35-0.03,0.73-0.05,1.13-0.05c0.4,0,0.78,0.02,1.13,0.05c-0.05-0.96-0.09-1.93-0.13-2.91  c-0.04-0.98-0.06-1.99-0.06-3.01v-3.98C372.12,93,372.14,92.01,372.18,91.03z M362.78,57.91c-1.43-1.79-2.92-3.66-4.46-5.61  c-1.54-1.95-3.03-3.82-4.45-5.61c-1.43-1.79-2.72-3.42-3.88-4.91c-1.16-1.49-2.06-2.64-2.72-3.47c1.59-0.22,3.37-0.67,5.32-1.36  c1.95-0.69,3.78-1.65,5.49-2.89c1.71-1.24,3.15-2.81,4.33-4.7c1.18-1.9,1.77-4.17,1.77-6.81c0-2.47-0.45-4.54-1.36-6.19  c-0.91-1.65-2.14-2.98-3.71-4c-1.57-1.02-3.4-1.75-5.49-2.19c-2.09-0.44-4.29-0.66-6.6-0.66c-1.6,0-3.16,0.07-4.7,0.21  c-1.54,0.14-3.11,0.21-4.7,0.21c-1.6,0-3.16-0.04-4.7-0.13c-1.54-0.08-3.11-0.18-4.7-0.29c0.17,3.63,0.32,7.19,0.45,10.69  c0.14,3.49,0.21,7.05,0.21,10.68v14.19c0,3.63-0.07,7.21-0.21,10.73c-0.14,3.52-0.29,6.99-0.45,10.4c1.26-0.11,2.61-0.17,4.04-0.17  c1.43,0,2.78,0.05,4.04,0.17c-0.17-3.41-0.32-6.87-0.45-10.4c-0.14-3.52-0.21-7.1-0.21-10.73v-6.02h3.13  c1.76,1.82,3.7,4.03,5.82,6.64c2.12,2.62,4.19,5.24,6.23,7.88c2.03,2.64,3.89,5.12,5.57,7.42c1.68,2.31,2.93,4.04,3.75,5.2  c0.77-0.11,1.57-0.17,2.39-0.17h2.39h2.48c0.82,0,1.65,0.05,2.47,0.17c-0.77-0.77-1.79-1.9-3.05-3.38  C365.56,61.33,364.21,59.7,362.78,57.91z M341.17,36c-1.1,0-2.1-0.03-3.01-0.08c-0.91-0.05-1.75-0.17-2.52-0.33v-4.7  c0-2.97,0.05-5.94,0.16-8.91c0.11-2.97,0.22-5.97,0.33-9c0.88-0.11,1.95-0.2,3.22-0.29c1.26-0.08,2.86-0.13,4.79-0.13  c1.43,0,2.89,0.15,4.37,0.45c1.49,0.3,2.86,0.87,4.13,1.69c1.26,0.82,2.3,1.94,3.09,3.34c0.8,1.4,1.2,3.18,1.2,5.32  c0,2.47-0.51,4.52-1.53,6.15c-1.02,1.62-2.3,2.92-3.84,3.88c-1.54,0.96-3.23,1.64-5.07,2.02C344.65,35.81,342.87,36,341.17,36z   M253.7,95.25c0.42-0.48,0.94-1.04,1.56-1.68c0.62-0.64,1.28-1.29,1.97-1.95c0.69-0.66,1.37-1.31,2.05-1.94  c0.68-0.63,1.29-1.18,1.83-1.64c-0.19,0.03-0.37,0.06-0.55,0.08c-0.19,0.02-0.37,0.03-0.55,0.03c-0.16,0-0.31-0.01-0.46-0.03  c-0.15-0.02-0.32-0.05-0.49-0.08c-0.54,0.62-1.1,1.26-1.69,1.91c-0.59,0.66-1.18,1.3-1.78,1.93c-0.6,0.63-1.2,1.24-1.79,1.83  c-0.59,0.59-1.16,1.11-1.7,1.57c-0.15,0.14-0.26,0.21-0.32,0.21c-0.09,0-0.14-0.06-0.14-0.19v-1.27c0-1.02,0.02-2.01,0.06-2.99  c0.04-0.98,0.08-1.98,0.13-3c-0.2,0.03-0.39,0.06-0.58,0.08c-0.19,0.02-0.37,0.03-0.56,0.03c-0.18,0-0.37-0.01-0.56-0.03  c-0.18-0.02-0.38-0.05-0.58-0.08c0.05,1.02,0.09,2.02,0.13,3c0.04,0.98,0.06,1.98,0.06,2.99V98c0,1.02-0.02,2.02-0.06,3.01  c-0.04,0.99-0.08,1.96-0.13,2.91c0.35-0.03,0.73-0.05,1.13-0.05c0.4,0,0.78,0.02,1.13,0.05c-0.05-0.96-0.09-1.93-0.13-2.91  c-0.04-0.98-0.06-1.99-0.06-3.01v-2.01c0-0.09,0.04-0.14,0.12-0.14c0.06,0,0.15,0.06,0.28,0.18c0.25,0.25,0.63,0.67,1.14,1.28  c0.52,0.61,1.09,1.3,1.73,2.06c0.64,0.76,1.3,1.55,1.97,2.37c0.67,0.82,1.28,1.54,1.84,2.18c0.22-0.03,0.43-0.05,0.64-0.05h0.63  h0.69c0.23,0,0.46,0.02,0.69,0.05c-1.31-1.46-2.6-2.92-3.87-4.38C256.21,98.08,254.95,96.65,253.7,95.25z M304.6,91.03  c0.04-0.98,0.08-1.98,0.13-3c-0.2,0.03-0.39,0.06-0.58,0.08c-0.18,0.02-0.37,0.04-0.56,0.04c-0.19,0-0.37-0.01-0.55-0.04  c-0.19-0.02-0.38-0.05-0.58-0.08c0.05,1.02,0.09,2.02,0.13,3c0.04,0.98,0.06,1.98,0.06,2.99V98c0,1.02-0.02,2.02-0.06,3.01  c-0.04,0.99-0.08,1.96-0.13,2.91c0.35-0.03,0.73-0.05,1.13-0.05c0.4,0,0.78,0.02,1.13,0.05c-0.05-0.96-0.09-1.93-0.13-2.91  c-0.04-0.98-0.06-1.99-0.06-3.01v-3.98C304.54,93,304.56,92.01,304.6,91.03z M307.92,9.52c-0.61,1.82-1.35,3.96-2.23,6.44  c-0.88,2.48-1.86,5.14-2.93,8c-1.07,2.86-2.19,5.85-3.34,8.95c-1.16,3.11-2.33,6.16-3.51,9.16c-1.18,3-2.35,5.89-3.51,8.66  c-1.15,2.78-2.23,5.29-3.22,7.55c-1.76-4.18-3.49-8.39-5.2-12.62c-1.71-4.24-3.37-8.42-4.99-12.54c-1.62-4.13-3.16-8.18-4.62-12.17  c-1.46-3.99-2.79-7.8-4-11.43c-0.77,0.11-1.51,0.21-2.23,0.29c-0.72,0.08-1.4,0.12-2.06,0.12s-1.35-0.04-2.06-0.12  c-0.72-0.08-1.46-0.18-2.23-0.29c1.98,4.73,4.06,9.74,6.23,15.02c2.17,5.28,4.29,10.45,6.35,15.51c2.06,5.06,4,9.87,5.82,14.44  c1.82,4.56,3.35,8.47,4.62,11.72c0.71-0.11,1.62-0.17,2.72-0.17c0.93,0,1.84,0.05,2.72,0.17c3.63-9.41,7.42-18.81,11.39-28.22  c3.96-9.41,8.09-18.89,12.38-28.47c-1.21,0.28-2.23,0.41-3.05,0.41C310.15,9.93,309.13,9.8,307.92,9.52z"></path>
</svg>
