<?xml version="1.0" encoding="UTF-8"?>
<svg id="Layer_2" data-name="Layer 2" xmlns="http://www.w3.org/2000/svg" viewBox="0 0 107.16 41.18">
  <defs>
    <style>
      .cls-1 {
        fill: #231f20;
      }
    </style>
  </defs>
  <g id="Layer_1-2" data-name="Layer 1">
    <path class="cls-1" d="M36.52,34.65c-.02-.48-.04-.97-.06-1.48,.1,.01,.19,.03,.29,.04,.09,.01,.18,.02,.28,.02,.09,0,.18,0,.27-.02,.09-.01,.19-.02,.29-.04-.02,.5-.04,.99-.06,1.48-.02,.49-.03,.98-.03,1.48v1.97c0,.5,.01,1,.03,1.48,.02,.49,.04,.97,.06,1.44-.18-.01-.36-.02-.56-.02s-.39,0-.56,.02c.02-.47,.04-.95,.06-1.44,.02-.48,.03-.98,.03-1.48v-1.97c0-.5,0-1-.03-1.48"/>
    <path class="cls-1" d="M44.44,38.06c-.99-1.06-1.98-2.12-2.98-3.17,0,.21-.02,.5-.02,.85,0,.36-.01,.85-.01,1.46,0,.16,0,.36,0,.6,0,.24,0,.49,.01,.75,0,.26,.01,.52,.02,.79,0,.26,.02,.51,.02,.74,0,.23,.02,.43,.02,.6,0,.17,.02,.29,.02,.35-.12-.02-.25-.02-.4-.02s-.29,0-.42,.02c.02-.07,.03-.22,.05-.42,.02-.21,.04-.45,.05-.74,.02-.29,.03-.6,.05-.93,.02-.33,.03-.67,.04-1.01,.01-.33,.02-.66,.03-.98,0-.32,.01-.6,.01-.86,0-.73,0-1.36,0-1.88,0-.53-.01-.92-.03-1.18h.18c.47,.5,.96,1.04,1.49,1.62,.53,.57,1.06,1.14,1.58,1.7,.52,.56,1.02,1.09,1.48,1.59,.47,.5,.88,.92,1.23,1.27v-1.55c0-.8,0-1.58-.02-2.34-.01-.76-.04-1.48-.07-2.14,.15,.04,.28,.06,.39,.06,.09,0,.21-.02,.36-.06-.01,.16-.03,.42-.05,.75-.02,.34-.04,.69-.06,1.07-.02,.38-.04,.75-.05,1.12-.01,.37-.02,.66-.02,.88v.69c0,.26,0,.53,0,.81,0,.28,0,.57,.01,.85,0,.29,0,.56,.01,.8,0,.25,0,.46,0,.64v.38h-.16c-.88-1.02-1.81-2.05-2.8-3.12"/>
    <path class="cls-1" d="M50.8,36.13c0-.5-.01-1-.03-1.48-.02-.48-.04-.97-.07-1.48,.29,.01,.58,.02,.87,.04,.29,.01,.57,.02,.86,.02s.58,0,.86-.03c.29-.02,.58-.02,.86-.02,.67,0,1.24,.09,1.72,.26,.48,.17,.87,.43,1.18,.75,.3,.32,.52,.72,.67,1.19,.14,.46,.21,.99,.21,1.58,0,.76-.13,1.41-.39,1.92-.27,.52-.6,.95-1.01,1.26-.41,.32-.86,.55-1.35,.68-.49,.14-.96,.2-1.41,.2-.26,0-.52,0-.77-.01-.25,0-.51-.01-.77-.01h-.77c-.25,0-.51,0-.77,.02,.02-.47,.05-.95,.07-1.44,.02-.48,.03-.98,.03-1.48v-1.97Zm.94,1.97c0,.82,.02,1.63,.06,2.42,.16,.04,.38,.07,.65,.09,.27,.02,.56,.03,.84,.03,.42,0,.84-.05,1.26-.15,.42-.1,.8-.28,1.13-.56,.33-.28,.6-.65,.81-1.12,.21-.48,.31-1.09,.31-1.85,0-.67-.08-1.21-.24-1.64-.17-.43-.39-.77-.68-1.01-.29-.24-.63-.42-1.03-.51-.4-.09-.83-.14-1.3-.14-.35,0-.66,.01-.96,.04-.3,.02-.56,.05-.8,.08-.02,.37-.04,.75-.05,1.15-.01,.4-.01,.81-.01,1.22v1.97Z"/>
    <path class="cls-1" d="M60.8,34.65c-.02-.48-.04-.97-.06-1.48,.1,.01,.19,.03,.29,.04,.09,.01,.18,.02,.27,.02,.09,0,.19,0,.28-.02,.09-.01,.19-.02,.29-.04-.02,.5-.04,.99-.07,1.48-.02,.49-.03,.98-.03,1.48v1.97c0,.5,0,1,.03,1.48,.02,.49,.04,.97,.07,1.44-.18-.01-.36-.02-.56-.02s-.38,0-.56,.02c.02-.47,.04-.95,.06-1.44,.02-.48,.03-.98,.03-1.48v-1.97c0-.5-.01-1-.03-1.48"/>
    <path class="cls-1" d="M71.52,41.02c-.11-.02-.21-.02-.3-.02h-.61c-.09,0-.2,0-.3,.02-.05-.17-.13-.39-.22-.63-.09-.25-.19-.51-.3-.78-.11-.27-.22-.54-.33-.82-.12-.28-.22-.54-.32-.8-.24,0-.49-.01-.74-.02-.25,0-.51,0-.76,0-.23,0-.47,0-.7,0-.23,0-.46,0-.7,.02-.24,.6-.46,1.16-.66,1.7-.2,.54-.35,.98-.44,1.33-.13-.02-.27-.02-.42-.02s-.29,0-.42,.02c.62-1.33,1.22-2.66,1.81-3.98,.59-1.32,1.18-2.66,1.77-4.03h.22c.18,.44,.38,.92,.59,1.43,.21,.52,.43,1.04,.65,1.56,.22,.53,.44,1.05,.66,1.57,.22,.52,.43,1,.62,1.45,.2,.45,.37,.85,.53,1.19,.15,.35,.29,.62,.38,.8m-5.07-3.55c.2,0,.41,0,.62,.01,.21,0,.42,.01,.62,.01,.21,0,.43,0,.64,0,.21,0,.42,0,.64-.02l-1.27-2.91-1.25,2.91Z"/>
    <path class="cls-1" d="M38.47,21.3c.21-1.05,.21-2.53,.04-3.73l-1.35-10.03-7.38,13.75h-1.41l-7.51-14.38-1.46,10.88c-.16,1.25-.21,2.84-.07,3.51h-2.64c.51-1.09,.64-1.56,.88-3.35L19.94,.01h1.22l8.76,16.74L38.67,.01h.91l2.47,17.9c.25,1.79,.43,2.3,.92,3.39h-4.51Z"/>
    <path class="cls-1" d="M15.54,19.18l-.32,2.12H0c.63-1.47,.59-2.3,.59-3.36V3.36C.59,2.34,.63,1.44,0,.01H14.86l.03,2.16c-.28-.12-.5-.21-.71-.31-.54-.2-1.25-.4-1.97-.39H4.06V9.81H13.61l-.47,1.64H4.06v8.35H12.67c1.45,.02,2.89-.8,2.89-.8l-.04,.18h.02Z"/>
    <path class="cls-1" d="M92.46,10.33V1.26c6.68-.27,7.37,3.06,7.44,4.58,.06,1.58-.6,3.46-2.56,4.21h.01s-.03,0-.1,.03c-1.05,.45-4.79,.25-4.79,.25m4.55,1.01l.89-.09c3-.44,5.55-2.18,5.55-5.41C103.46-.28,96.09,0,92.97,0h-4.57c.63,1.42,.59,2.33,.59,3.35v14.59c0,1.06,.04,1.89-.59,3.35h4.65c-.6-1.47-.6-2.3-.6-3.35v-6.55c.45,.02,1.14,.17,2.12,1.33,3.43,4.08,6.17,6.65,8.28,8.59h4.3c-.43-.41-10.14-9.97-10.14-9.97"/>
    <path class="cls-1" d="M72.91,12.02l2.83-6.36,2.88,6.36h-5.71Zm12.07,5.81L76.92,.01h-.93l-8.19,18.32c-.62,1.36-.92,1.87-1.79,2.96h2.76l3.47-7.8h7.07l3.52,7.8h4.67c-1.24-1.19-1.65-1.74-2.5-3.48"/>
    <path class="cls-1" d="M50.8,12.02l2.83-6.36,2.88,6.36h-5.71Zm12.07,5.81L54.81,.01h-.93l-8.19,18.32c-.62,1.36-.92,1.87-1.79,2.96h2.76l3.47-7.8h7.07l3.51,7.8h4.67c-1.24-1.19-1.64-1.74-2.5-3.48"/>
  </g>
</svg>