<?xml version="1.0" standalone="no"?>
<!DOCTYPE svg PUBLIC "-//W3C//DTD SVG 20010904//EN"
 "http://www.w3.org/TR/2001/REC-SVG-20010904/DTD/svg10.dtd">
<svg version="1.0" xmlns="http://www.w3.org/2000/svg"
 width="600.000000pt" height="400.000000pt" viewBox="0 0 600.000000 400.000000"
 preserveAspectRatio="xMidYMid meet">

<g transform="translate(0.000000,400.000000) scale(0.100000,-0.100000)"
fill="#000000" stroke="none">
<path d="M65 3982 c25 -24 287 -242 409 -341 50 -41 147 -122 216 -181 69 -59
185 -156 259 -216 74 -60 146 -119 160 -131 26 -22 26 -22 476 -23 248 0 460
-3 473 -6 17 -5 22 -14 22 -36 l0 -30 -452 4 c-320 4 -462 9 -483 17 -16 7
-66 16 -110 21 -103 11 -121 15 -117 30 1 6 -2 9 -8 5 -5 -3 -21 5 -35 19 -14
15 -29 26 -33 26 -4 0 -15 8 -24 18 -27 29 -62 58 -93 78 -16 10 -37 26 -45
35 -8 9 -30 24 -47 33 -18 9 -33 21 -33 26 0 6 -6 10 -14 10 -7 0 -19 7 -26
15 -7 8 -20 15 -29 15 -18 0 -57 40 -53 53 1 5 -2 6 -7 3 -5 -4 -35 12 -67 34
-32 22 -64 40 -71 40 -8 0 -26 9 -41 19 -15 10 -76 51 -137 89 -60 39 -119 78
-130 87 -19 15 -20 14 -23 -22 -2 -21 1 -39 7 -41 19 -6 114 -73 143 -99 26
-24 31 -54 14 -81 -10 -16 2 -292 15 -360 15 -74 45 -104 164 -162 56 -27 106
-50 110 -50 4 0 66 -29 136 -65 71 -36 129 -62 129 -58 0 4 7 -3 15 -15 15
-21 17 -21 40 -6 14 9 25 19 25 23 0 4 -55 33 -122 65 -68 32 -197 94 -288
137 -91 43 -171 79 -178 79 -10 0 -11 23 -7 103 3 56 7 141 9 188 1 47 6 91
10 97 4 7 34 12 75 12 62 0 72 -3 112 -33 24 -19 94 -67 154 -107 156 -104
349 -241 358 -254 4 -6 7 -81 6 -166 -1 -85 2 -429 6 -765 7 -560 9 -612 25
-630 34 -38 56 -106 30 -90 -5 3 -10 2 -10 -3 0 -10 37 -27 75 -35 16 -4 15
-5 -5 -6 -14 0 -40 8 -59 20 -18 11 -36 18 -39 14 -8 -8 7 -20 73 -57 43 -24
61 -41 63 -57 2 -15 0 -21 -7 -16 -6 3 -9 10 -6 14 2 5 -16 19 -42 32 -26 13
-55 32 -64 41 -10 10 -30 20 -44 24 -15 4 -24 12 -22 18 3 7 -4 18 -14 24 -19
12 -26 42 -10 42 4 0 21 -10 37 -23 l29 -22 -20 27 c-11 15 -23 28 -27 28 -5
0 -8 7 -8 15 0 39 -74 -4 -114 -66 -21 -33 -66 -168 -57 -173 3 -2 24 -7 46
-11 76 -13 105 -26 109 -48 6 -30 27 -265 27 -302 1 -16 -1 -56 -2 -87 -5 -84
22 -97 30 -15 1 4 26 7 56 7 40 0 55 4 55 14 0 7 10 17 23 21 l22 8 -22 4
c-18 3 -23 11 -23 34 0 17 3 28 8 26 15 -9 52 13 52 32 0 16 10 20 78 25 100
7 101 7 96 20 -6 15 88 14 101 -1 6 -6 25 -14 43 -18 31 -6 32 -6 32 30 0 22
4 34 10 30 6 -3 10 -1 10 4 0 7 39 11 110 11 92 0 108 2 104 15 -7 17 37 31
63 20 17 -8 17 -8 1 -12 -35 -8 -17 -23 27 -23 33 0 50 -5 62 -20 10 -11 25
-20 34 -20 9 0 37 -9 62 -20 43 -19 50 -20 114 -6 37 8 76 17 86 21 15 6 16 4
8 -16 -8 -23 -14 -24 -127 -31 -65 -3 -129 -8 -142 -10 -22 -4 -76 -71 -150
-187 -20 -33 -71 -108 -113 -168 -41 -59 -86 -125 -98 -145 l-23 -38 44 18
c24 10 52 17 63 15 13 -2 15 0 6 4 -27 11 79 50 123 45 l39 -5 -39 -13 c-21
-8 -48 -14 -59 -14 -11 0 -27 -5 -35 -11 -11 -8 5 -9 57 -5 65 5 74 4 85 -13
11 -18 14 -18 41 -4 19 9 27 20 24 32 -4 17 14 41 32 41 12 0 35 -39 28 -47
-3 -3 -77 -40 -164 -83 -141 -70 -159 -76 -165 -60 -11 29 -23 32 -129 34
-105 1 -120 -7 -69 -36 22 -13 29 -23 27 -45 -2 -25 1 -28 26 -25 15 2 27 1
27 -2 0 -18 -44 -45 -77 -49 -21 -2 33 -4 120 -5 143 -2 163 -4 217 -27 74
-31 98 -31 144 0 l37 25 652 2 c359 1 603 4 543 5 -88 3 -112 7 -122 20 -6 10
-10 23 -7 30 3 7 0 20 -6 27 -9 11 -9 15 1 19 10 4 10 6 0 6 -10 1 -10 4 2 16
8 8 20 15 26 15 6 0 9 4 6 9 -3 4 -27 7 -53 5 -37 -2 -41 -1 -18 4 23 6 29 13
27 27 -3 20 -3 20 12 0 15 -20 15 -20 16 4 0 18 3 21 13 12 8 -6 18 -7 23 -3
4 4 2 -1 -5 -10 -12 -16 -11 -18 3 -18 9 0 19 -7 22 -15 5 -13 9 -13 22 -3 13
11 15 10 9 -6 -6 -16 -5 -17 8 -6 8 7 12 17 8 23 -3 5 -1 7 5 3 18 -11 24 13
8 30 -9 8 -16 21 -16 27 0 8 3 7 9 -2 6 -9 18 -11 34 -7 14 3 29 2 32 -4 3 -5
15 -10 26 -10 23 0 25 -13 4 -30 -24 -20 -9 -23 20 -4 20 13 25 14 23 3 -2 -9
7 -15 23 -17 22 -3 27 2 34 30 11 42 12 51 14 63 0 5 8 -1 17 -13 11 -16 24
-22 42 -20 20 2 26 -1 24 -13 -1 -9 7 -24 18 -34 24 -22 25 -16 5 32 -22 51
-19 58 14 31 15 -13 27 -26 25 -30 -2 -3 5 -4 17 -1 12 4 18 11 15 20 -8 19
21 28 47 14 55 -29 71 -41 58 -41 -8 0 -11 -6 -7 -15 3 -8 1 -15 -4 -15 -6 0
-10 -7 -10 -16 0 -13 3 -14 13 -5 17 13 38 -5 30 -26 -5 -12 -7 -12 -14 -1 -6
9 -9 6 -9 -10 0 -19 5 -23 23 -21 24 4 50 -8 43 -19 -2 -4 7 -7 20 -7 22 0 23
1 7 12 -9 7 -12 13 -6 13 6 0 9 9 6 20 -3 11 -11 20 -18 20 -15 0 -28 28 -19
42 3 5 -3 16 -15 24 -20 15 -28 44 -14 57 3 4 12 2 19 -4 7 -6 23 -12 36 -14
13 -1 31 -6 41 -10 9 -4 17 -3 17 3 0 6 -6 12 -12 15 -7 2 -1 6 15 9 15 3 27
1 27 -3 0 -13 28 -11 32 2 3 9 42 12 116 8 12 -1 30 2 40 6 23 11 61 6 94 -11
19 -10 33 -11 45 -5 10 5 46 15 79 21 l62 12 -4 97 c-7 158 21 141 -232 143
l-217 2 215 6 c177 5 134 6 -240 9 -272 2 -441 6 -420 11 19 5 179 9 355 9
353 1 444 7 452 27 3 8 11 14 19 14 8 0 14 10 14 23 0 18 -2 19 -10 7 -8 -12
-10 -12 -9 5 0 11 4 28 8 38 6 17 8 16 19 -7 7 -16 20 -26 32 -26 30 0 24 17
-15 42 -19 13 -35 30 -35 39 0 8 -7 24 -15 35 -13 17 -14 14 -15 -43 0 -34 -4
-73 -10 -88 -9 -22 -13 -24 -31 -15 -11 7 -27 9 -34 6 -21 -8 -26 6 -7 21 16
14 16 14 -3 8 -10 -3 -40 -9 -65 -12 -43 -6 -44 -5 -30 12 14 17 13 17 -10 10
-51 -16 -93 -23 -107 -18 -8 3 -24 6 -36 7 -12 1 -21 7 -20 12 1 7 -9 9 -24 6
-18 -3 -31 1 -41 14 -14 18 -14 18 -10 -1 5 -19 0 -20 -68 -21 -40 0 -70 4
-68 8 3 4 -2 8 -10 8 -9 0 -16 -7 -16 -15 0 -20 -20 -19 -49 2 -19 12 -28 14
-42 5 -20 -13 -92 4 -135 33 -28 18 -44 13 -44 -16 0 -25 -2 -25 -65 17 -29
20 -59 33 -64 29 -7 -4 -9 -22 -5 -47 7 -39 6 -40 -15 -29 -11 7 -21 18 -21
25 0 7 -8 20 -18 29 -21 19 -42 23 -24 5 16 -16 15 -28 -1 -28 -7 0 -17 10
-22 23 -6 12 -16 21 -24 19 -12 -2 -74 12 -108 25 -11 4 -14 2 -9 -5 14 -24
-22 -12 -53 17 -62 58 -64 57 302 67 182 5 463 9 622 9 197 -1 271 2 230 8
-50 7 -576 9 -764 4 -61 -2 -81 16 -29 27 85 17 110 27 104 43 -5 12 -3 13 6
6 8 -6 53 -7 123 -1 86 7 134 5 220 -8 61 -9 161 -20 222 -24 95 -6 118 -11
150 -32 44 -28 77 -42 68 -29 -3 5 -1 12 5 16 5 3 10 14 10 23 0 14 -2 14 -9
3 -13 -20 -21 11 -23 90 -4 210 -2 811 5 1234 5 270 7 488 4 485 -6 -6 -24
-494 -37 -1045 -11 -431 -31 -620 -68 -633 -8 -2 -12 26 -14 95 l-3 98 -60 2
c-185 4 -335 28 -335 52 0 12 37 21 86 21 25 0 47 6 54 15 7 9 29 15 51 15 24
0 39 5 40 13 0 6 4 3 8 -8 11 -26 -3 -35 -56 -35 -72 0 -48 -17 34 -24 87 -7
144 -7 126 1 -20 8 -15 23 7 23 11 0 20 -5 20 -12 0 -6 2 -9 5 -6 3 3 7 304 7
669 1 365 5 599 8 519 l6 -145 2 120 c5 239 21 355 48 355 8 0 14 9 14 20 0
25 -27 27 -33 3 -4 -17 -5 -17 -6 0 0 9 -8 17 -16 17 -12 0 -15 14 -15 70 0
45 -4 70 -11 70 -6 0 -9 8 -5 18 4 11 0 9 -10 -6 -11 -14 -27 -22 -45 -22 -15
0 -31 -4 -34 -10 -3 -5 -21 -10 -40 -10 -19 0 -45 -4 -58 -9 -24 -10 -179 -16
-602 -27 -185 -4 -245 -9 -262 -20 -33 -21 -28 -31 15 -30 76 1 147 -5 160
-13 8 -5 16 -45 21 -107 l8 -99 3 100 c4 153 17 182 21 45 l3 -115 6 115 6
115 4 -115 4 -115 6 110 6 110 4 -105 4 -105 6 105 6 105 4 -105 4 -105 6 105
6 105 4 -95 4 -95 6 85 6 85 4 -85 4 -85 5 75 c5 64 7 70 14 41 4 -18 8 -52 9
-75 1 -22 5 -3 8 44 l6 85 4 -100 4 -100 6 110 6 110 4 -120 4 -120 6 120 6
120 4 -120 4 -120 6 115 6 115 4 -125 4 -125 6 120 6 120 4 -125 4 -125 6 135
6 135 4 -150 4 -150 6 140 6 140 4 -150 4 -150 6 155 6 155 4 -160 4 -160 6
150 6 150 4 -160 4 -160 6 155 6 155 3 -135 c4 -149 7 -151 20 -10 l8 95 4
-115 3 -115 6 140 6 140 4 -175 4 -175 6 190 6 190 4 -205 4 -205 6 200 c6
197 6 195 10 -135 l5 -335 5 325 5 325 5 -335 5 -335 5 335 c4 275 6 216 8
-327 1 -365 -1 -663 -5 -664 -59 -7 -114 -11 -140 -11 -18 1 -33 -2 -33 -6 0
-19 -397 -20 -700 -2 -118 7 -244 13 -280 15 -237 9 -218 6 -225 40 l-7 30
-12 -35 c-15 -49 -26 -62 -42 -56 -8 3 -14 1 -14 -4 0 -6 -7 -10 -14 -10 -11
0 -16 14 -19 48 -3 37 -4 32 -7 -28 -2 -61 -4 -68 -10 -40 -5 25 -8 7 -11 -68
l-4 -102 48 0 c40 0 47 -3 47 -20 0 -11 7 -20 15 -20 8 0 15 -4 15 -10 0 -25
-86 -6 -93 21 -5 20 -39 27 -35 7 2 -6 -5 -14 -14 -16 -17 -3 -18 10 -18 161
0 123 3 167 13 170 6 3 -8 5 -33 5 -28 -1 -34 -3 -17 -5 l27 -4 0 -170 0 -169
-28 0 c-33 0 -67 -32 -58 -55 5 -14 -2 -15 -47 -11 -28 3 -70 0 -92 -6 -22 -7
-44 -13 -50 -14 -5 0 -17 -4 -25 -7 -8 -3 -52 -8 -97 -10 -65 -3 -83 -1 -83 9
0 8 -4 14 -10 14 -5 0 -10 -5 -10 -11 0 -5 -4 -7 -10 -4 -6 4 -10 -13 -11 -42
-2 -47 -2 -47 -10 16 -10 76 -16 94 -28 87 -5 -3 -7 2 -4 12 3 14 -13 25 -74
53 -82 38 -123 54 -186 71 -26 7 -42 19 -48 34 -7 19 -16 24 -43 24 -50 0 -53
-16 -4 -24 27 -5 38 -10 31 -17 -6 -6 -19 -6 -37 1 -15 5 -42 10 -59 11 -18 0
-26 3 -20 6 10 4 10 9 1 26 -12 22 -14 99 -9 410 2 113 6 157 14 157 8 0 7 3
-2 9 -11 7 -13 55 -9 275 4 183 9 270 17 280 6 7 11 18 10 22 -1 5 0 27 2 49
2 33 4 29 9 -25 l7 -65 3 85 c2 47 5 73 7 58 2 -16 11 -29 19 -29 8 -1 20 -2
27 -3 7 -1 15 19 20 49 4 28 9 61 11 75 3 14 5 45 5 69 1 42 12 50 18 13 11
-72 22 -582 22 -1072 l1 -395 45 -22 45 -22 0 711 c0 643 1 710 16 704 9 -3
18 -6 20 -6 2 0 5 -21 5 -47 l2 -48 6 53 c4 30 13 57 21 62 8 6 51 11 95 12
l80 2 -85 6 c-60 4 -71 7 -36 8 55 2 55 12 -1 22 -55 11 50 14 377 10 256 -2
279 -5 280 -32 0 -5 -100 -9 -222 -10 l-223 -2 220 -6 c185 -4 220 -7 222 -20
1 -8 5 -60 10 -115 l8 -100 6 105 c5 95 5 88 9 -85 l4 -190 6 190 c4 136 6 59
8 -273 2 -401 0 -465 -13 -478 -19 -19 -21 -98 -2 -91 6 2 11 12 9 22 -2 10 0
29 3 44 l7 26 11 -25 c9 -22 11 -23 14 -6 3 10 0 23 -6 29 -8 8 -11 153 -11
478 l0 467 22 6 c13 3 27 1 33 -5 6 -6 11 -197 14 -534 1 -289 6 -525 10 -525
3 0 5 93 3 207 -2 115 0 354 3 531 7 306 8 323 26 319 10 -3 20 1 23 9 4 11
39 14 163 16 l158 2 -165 6 c-91 3 -160 7 -153 8 7 1 10 9 7 17 -5 13 16 15
161 15 113 0 164 3 160 10 -4 7 -56 9 -145 7 -130 -4 -198 5 -139 17 13 2 31
5 39 5 154 -3 350 4 350 12 0 5 4 9 9 9 19 0 -2 -39 -23 -42 -15 -2 -17 -5 -6
-9 10 -4 31 10 58 37 l43 44 -325 0 -326 0 0 29 c0 17 6 31 16 35 9 3 106 6
216 6 111 0 199 2 196 6 -3 3 -315 5 -693 4 l-687 0 -86 73 c-48 40 -109 90
-137 112 -27 22 -127 105 -221 185 -94 80 -198 167 -230 194 -33 26 -136 113
-230 192 -95 79 -175 144 -180 144 -5 0 0 -8 11 -18z m3602 -1154 c-2 -13 -4
-5 -4 17 -1 22 1 32 4 23 2 -10 2 -28 0 -40z m100 30 c-3 -8 -6 -5 -6 6 -1 11
2 17 5 13 3 -3 4 -12 1 -19z m-172 -1208 c8 0 15 5 15 10 0 6 -4 10 -10 10 -7
0 -9 168 -8 488 1 268 4 456 7 417 l4 -70 12 100 12 100 4 -95 c3 -91 3 -89 9
50 3 80 6 -152 6 -515 0 -363 -3 -595 -6 -515 -3 80 -7 115 -8 78 -2 -72 -7
-80 -40 -71 l-22 5 2 612 3 611 2 -607 c3 -531 5 -608 18 -608z m92 1188 c-3
-8 -6 -5 -6 6 -1 11 2 17 5 13 3 -3 4 -12 1 -19z m-2617 -72 c-14 -14 -22 -2
-14 18 5 14 9 15 15 4 4 -7 4 -17 -1 -22z m2597 -978 c-1 -189 -2 -37 -2 337
0 374 1 528 2 343 2 -185 2 -491 0 -680z m20 0 c-1 -189 -2 -37 -2 337 0 374
1 528 2 343 2 -185 2 -491 0 -680z m40 0 c-1 -189 -2 -37 -2 337 0 374 1 528
2 343 2 -185 2 -491 0 -680z m20 0 c-1 -189 -2 -37 -2 337 0 374 1 528 2 343
2 -185 2 -491 0 -680z m111 345 c-2 -416 -5 -583 -8 -443 l-6 225 -2 -205 c-6
-358 -20 -268 -24 140 l-3 385 -5 -385 c-4 -312 -5 -259 -5 275 0 381 2 552 5
405 5 -229 6 -238 8 -90 4 266 16 310 22 80 l6 -195 2 238 c1 130 4 237 7 237
3 0 4 -300 3 -667z m19 -341 c-1 -185 -2 -33 -2 338 0 371 1 523 2 337 2 -185
2 -489 0 -675z m-90 6 c-1 -183 -2 -34 -2 332 0 366 1 515 2 333 2 -183 2
-483 0 -665z m-20 -15 c-1 -186 -2 -37 -2 332 0 369 1 521 2 338 2 -182 2
-484 0 -670z m-60 -5 c-1 -183 -2 -34 -2 332 0 366 1 515 2 333 2 -183 2 -483
0 -665z m190 -5 c-1 -186 -2 -37 -2 332 0 369 1 521 2 338 2 -182 2 -484 0
-670z m20 -16 c-1 -177 -2 -32 -2 323 0 355 1 500 2 322 2 -177 2 -467 0 -645z
m-2699 482 c0 -178 -1 -344 0 -369 1 -65 -9 -252 -14 -247 -2 2 -6 53 -9 113
-3 60 -7 138 -10 174 -3 36 -1 94 5 130 6 43 6 68 -1 77 -6 7 -8 25 -5 40 3
15 9 82 12 148 4 66 8 136 9 155 2 19 3 53 4 74 0 22 3 37 6 34 3 -2 4 -151 3
-329z m1493 -714 c81 -2 128 -9 155 -21 54 -24 120 -27 177 -8 45 15 59 15
170 0 135 -19 256 -50 262 -69 3 -7 7 -25 9 -42 3 -16 12 -35 21 -41 8 -6 15
-16 15 -22 0 -6 12 -19 28 -27 26 -16 26 -16 2 -10 -30 8 -149 17 -135 10 6
-2 50 -11 99 -19 71 -12 102 -24 152 -55 35 -22 96 -56 136 -76 66 -33 129
-72 152 -95 4 -5 -20 -6 -55 -3 -151 11 -243 23 -248 32 -4 5 -20 17 -36 25
l-30 16 63 0 c40 0 61 4 57 10 -3 6 4 11 17 11 45 2 -58 17 -167 24 -60 4
-112 9 -115 10 -3 2 -12 0 -20 -6 -12 -7 -11 -9 4 -9 11 0 16 -3 13 -6 -9 -9
-68 16 -62 26 3 4 -2 11 -11 14 -8 3 -12 2 -9 -4 3 -6 -1 -10 -9 -10 -8 0 -18
5 -21 10 -10 16 -25 12 -19 -5 5 -11 -1 -15 -19 -15 -14 0 -27 4 -29 10 -5 14
-176 21 -181 7 -3 -9 -13 -9 -41 1 -21 8 -40 11 -43 8 -4 -3 -1 -6 6 -6 7 0 9
-5 6 -10 -7 -12 -46 -3 -56 12 -6 9 -378 12 -387 3 -3 -3 66 -6 154 -6 87 -1
151 -3 142 -6 -21 -5 -22 -18 -7 -62 6 -17 18 -31 26 -31 14 0 100 -32 135
-51 10 -5 27 -9 39 -9 15 0 20 -5 17 -22 -3 -23 -5 -23 -150 -23 -108 0 -148
3 -148 12 0 23 -33 33 -48 15 -7 -10 -11 -12 -7 -5 18 36 -25 83 -76 83 -11 0
-17 5 -14 10 4 6 -8 10 -29 10 -33 0 -49 -13 -27 -22 11 -4 14 -21 11 -73 -1
-38 -2 -39 -11 -14 -6 15 -23 33 -40 39 -18 8 -38 28 -50 52 -11 21 -24 36
-30 32 -6 -3 -36 -6 -68 -5 -38 0 -70 -6 -95 -19 l-38 -19 15 22 c8 12 27 30
43 39 32 18 134 38 202 38 27 0 41 4 37 10 -13 21 -213 -13 -261 -45 -13 -8
-31 -29 -40 -46 -8 -17 -18 -28 -21 -26 -3 3 9 32 27 64 62 111 70 127 70 150
0 24 14 30 79 35 32 3 36 7 54 58 24 70 28 110 9 110 -7 0 -10 5 -7 10 4 6 1
18 -6 26 -11 14 -4 15 67 10 43 -4 131 -8 195 -11z m-304 -18 c-12 -13 -24
-22 -26 -20 -6 4 30 43 40 43 5 0 -2 -10 -14 -23z m-1268 -145 c6 -21 13 -54
17 -73 l5 -34 -25 30 c-14 17 -26 35 -26 41 0 6 -7 17 -15 24 -14 12 -14 15 1
31 24 27 32 24 43 -19z m908 -38 c-3 -3 -12 -4 -19 -1 -8 3 -5 6 6 6 11 1 17
-2 13 -5z m88 -4 c-22 -5 -44 -4 -49 1 -6 5 10 9 40 8 l49 -1 -40 -8z m1628
-9 c5 -5 0 -17 -11 -27 -10 -11 -22 -27 -26 -38 -5 -15 -9 -16 -21 -6 -15 12
-21 71 -9 83 7 7 56 -2 67 -12z m-2356 -63 c-3 -7 -5 -2 -5 12 0 14 2 19 5 13
2 -7 2 -19 0 -25z m-35 -57 c16 -7 18 -10 6 -10 -9 -1 -29 -6 -45 -13 -15 -6
-32 -10 -37 -9 -5 1 -44 -5 -87 -14 -90 -18 -109 -14 -109 25 0 23 5 30 28 34
40 7 217 -3 244 -13z m-17 -41 c-3 -5 -12 -10 -18 -10 -7 0 -6 4 3 10 19 12
23 12 15 0z m2122 -6 c-3 -3 -12 -4 -19 -1 -8 3 -5 6 6 6 11 1 17 -2 13 -5z
m-2440 -51 c-3 -10 -5 -2 -5 17 0 19 2 27 5 18 2 -10 2 -26 0 -35z m711 30
c-26 -2 -71 -2 -100 0 -29 2 -8 3 47 3 55 0 79 -1 53 -3z m1458 -5 c4 -6 2
-14 -4 -16 -7 -2 -10 -8 -6 -13 3 -5 1 -9 -4 -9 -6 0 -9 11 -8 25 1 27 10 32
22 13z m219 -16 c-12 -12 -69 -11 -77 0 -14 23 -9 25 37 15 25 -6 43 -13 40
-15z m-295 2 c0 -14 -3 -14 -15 -4 -8 7 -15 14 -15 16 0 2 7 4 15 4 8 0 15 -7
15 -16z m205 -4 c3 -6 -1 -7 -9 -4 -18 7 -21 14 -7 14 6 0 13 -4 16 -10z m274
-16 c14 -12 -39 -1 -55 11 -17 13 -16 14 16 3 19 -6 37 -13 39 -14z m-2023
-31 c-31 -3 -36 -7 -25 -15 10 -7 8 -8 -11 -4 -14 3 -37 6 -52 6 -16 0 -28 4
-28 9 0 4 35 8 78 8 42 0 59 -2 38 -4z m284 -3 c-20 -13 -33 -13 -25 0 3 6 14
10 23 10 15 0 15 -2 2 -10z m-823 -77 c-3 -10 -5 -2 -5 17 0 19 2 27 5 18 2
-10 2 -26 0 -35z m1332 8 c11 -7 4 -11 -25 -16 -21 -3 -63 -12 -91 -19 -64
-16 -69 -2 -10 24 45 21 103 26 126 11z m-19 -51 c0 -5 -9 -10 -19 -10 -11 0
-26 -7 -34 -15 -10 -10 -26 -12 -51 -8 -49 8 -54 20 -14 32 45 13 118 13 118
1z m-310 -80 c-20 -13 -43 -13 -35 0 3 6 16 10 28 10 18 0 19 -2 7 -10z m1673
-187 c-7 -2 -21 -2 -30 0 -10 3 -4 5 12 5 17 0 24 -2 18 -5z m-861 -235 c-7
-7 -12 -8 -12 -2 0 14 12 26 19 19 2 -3 -1 -11 -7 -17z m-773 -84 c12 -10
-216 -108 -294 -127 -17 -4 -16 -5 5 -6 20 -1 22 -3 10 -11 -8 -5 -25 -10 -37
-10 -13 0 -23 -4 -23 -10 0 -6 -10 -5 -25 2 -34 15 -31 25 9 42 18 7 42 23 52
34 22 23 70 34 67 15 -4 -17 17 -16 42 0 11 7 41 21 68 31 50 19 61 42 24 51
-22 6 -172 -34 -210 -56 -22 -12 -105 -24 -94 -13 4 4 58 33 119 65 l113 57
85 -30 c47 -17 87 -32 89 -34z m1091 26 c0 -5 -4 -10 -9 -10 -6 0 -13 5 -16
10 -3 6 1 10 9 10 9 0 16 -4 16 -10z m100 1 c0 -6 -4 -13 -10 -16 -5 -3 -10 1
-10 9 0 9 5 16 10 16 6 0 10 -4 10 -9z m-1000 -35 c0 -8 15 -12 40 -11 26 1
37 -2 31 -8 -5 -5 -7 -16 -4 -23 3 -8 -6 -18 -23 -25 -27 -10 -27 -12 -9 -19
26 -10 55 -7 83 8 18 11 22 10 22 -2 0 -13 3 -13 28 0 15 7 32 14 38 14 17 0
54 -36 54 -53 0 -10 6 -13 20 -10 11 3 20 9 20 14 0 14 50 10 51 -3 0 -10 2
-10 6 0 7 17 23 15 23 -3 0 -8 -5 -15 -10 -15 -7 0 -7 -6 0 -20 10 -19 8 -20
-96 -20 -93 0 -105 2 -94 15 15 18 -1 20 -18 3 -9 -9 -12 -8 -12 4 0 14 -7 16
-35 11 -20 -3 -35 -2 -34 3 1 5 0 18 -1 29 -1 15 -3 16 -7 5 -4 -8 -12 -21
-20 -28 -18 -18 -16 -30 5 -35 9 -3 -1 -5 -23 -5 -31 0 -35 1 -20 8 11 5 16 9
10 9 -5 1 -3 6 5 11 23 15 -36 13 -63 -2 -20 -10 -21 -10 -8 6 13 15 13 19 1
26 -9 5 -17 5 -21 -1 -3 -5 -13 -7 -21 -4 -9 4 -28 -1 -42 -10 -14 -10 -26
-13 -26 -7 0 6 8 13 18 15 10 3 6 5 -11 6 -23 1 -27 -2 -22 -18 3 -10 -1 -23
-8 -29 -11 -9 -13 -6 -9 20 4 28 3 30 -10 17 -9 -8 -14 -19 -11 -25 2 -6 -2
-14 -11 -17 -8 -3 -17 1 -20 9 -3 9 -10 12 -16 9 -6 -4 -8 -10 -5 -15 3 -5 -3
-8 -14 -7 -26 2 -35 36 -13 44 9 3 27 15 39 26 18 16 25 17 37 8 11 -9 15 -9
18 1 4 10 8 10 21 -1 14 -11 20 -11 32 -1 12 10 15 10 15 0 0 -10 3 -10 14 0
8 6 13 17 10 25 -4 8 8 17 30 25 32 10 50 30 28 30 -4 0 -8 8 -9 18 -1 15 4
18 23 14 13 -2 24 -10 24 -16z m460 -16 c52 -27 64 -26 49 3 l-12 22 25 -22
c29 -27 37 -28 53 -7 11 15 12 15 18 -5 6 -23 5 -23 -86 -16 -103 7 -191 22
-144 24 15 0 27 6 27 11 0 16 27 12 70 -10z m-620 -7 c-1 -7 -282 -171 -311
-181 -5 -2 -9 1 -9 6 0 6 55 42 123 80 185 105 197 111 197 95z m255 -13 c3
-5 1 -10 -4 -10 -6 0 -11 5 -11 10 0 6 2 10 4 10 3 0 8 -4 11 -10z m-710 -40
c-3 -5 -11 -10 -16 -10 -6 0 -7 5 -4 10 3 6 11 10 16 10 6 0 7 -4 4 -10z
m1191 -15 c-4 -12 1 -15 21 -13 14 2 28 -3 30 -9 3 -8 -4 -13 -16 -13 -12 0
-21 -6 -21 -15 0 -8 -6 -15 -12 -16 -7 -1 -2 -5 12 -9 l25 -8 -27 -1 c-14 -1
-28 5 -31 12 -3 9 -9 9 -26 -1 -23 -13 -28 -3 -8 17 10 10 9 11 -5 6 -13 -5
-18 -2 -18 10 0 9 5 13 11 9 8 -4 9 0 4 15 -7 23 4 28 23 9 6 -6 15 -8 19 -4
4 4 1 11 -7 16 -12 8 -10 10 9 10 17 0 22 -4 17 -15z m-116 -21 c0 -2 -9 -4
-21 -4 -11 0 -18 4 -14 10 5 8 35 3 35 -6z m-1246 -49 c-4 -8 -13 -15 -21 -15
-13 0 -13 3 -3 15 7 8 16 15 21 15 5 0 6 -7 3 -15z m913 -11 c-3 -3 -12 -4
-19 -1 -8 3 -5 6 6 6 11 1 17 -2 13 -5z"/>
<path d="M3631 1804 c0 -11 3 -14 6 -6 3 7 2 16 -1 19 -3 4 -6 -2 -5 -13z"/>
<path d="M3811 2254 c0 -11 3 -14 6 -6 3 7 2 16 -1 19 -3 4 -6 -2 -5 -13z"/>
<path d="M3842 2190 c0 -14 2 -19 5 -12 2 6 2 18 0 25 -3 6 -5 1 -5 -13z"/>
<path d="M3843 2055 c0 -33 2 -45 4 -27 2 18 2 45 0 60 -2 15 -4 0 -4 -33z"/>
<path d="M2699 1458 c-1 -23 -3 -33 -9 -53 -2 -5 -3 -21 -4 -35 -1 -21 -6 -25
-35 -27 -19 -1 -37 -7 -41 -13 -5 -8 -31 -11 -82 -8 -60 4 -80 2 -108 -14
l-35 -20 64 6 c35 3 260 7 500 7 240 1 425 4 411 6 -14 3 -29 9 -35 13 -17 14
-89 24 -81 11 4 -6 2 -11 -4 -11 -6 0 -13 6 -16 14 -3 8 -13 12 -25 9 -10 -3
-19 0 -19 5 0 18 -76 33 -130 26 -35 -5 -50 -3 -50 5 0 13 -204 5 -232 -10
-12 -7 -18 -6 -18 1 0 6 15 18 34 26 29 14 33 20 27 43 -6 20 -14 26 -37 27
-16 1 -39 4 -51 8 -19 6 -23 4 -24 -16z"/>
<path d="M2970 1456 c0 -2 18 -6 39 -8 22 -2 37 0 35 4 -5 8 -74 11 -74 4z"/>
<path d="M2918 1433 c18 -2 45 -2 60 0 15 2 0 4 -33 4 -33 0 -45 -2 -27 -4z"/>
<path d="M3725 1290 c-3 -5 -2 -10 4 -10 5 0 13 5 16 10 3 6 2 10 -4 10 -5 0
-13 -4 -16 -10z"/>
<path d="M2270 299 c0 -5 5 -7 10 -4 6 3 10 8 10 11 0 2 -4 4 -10 4 -5 0 -10
-5 -10 -11z"/>
<path d="M2055 230 c-3 -5 -1 -10 4 -10 6 0 11 5 11 10 0 6 -2 10 -4 10 -3 0
-8 -4 -11 -10z"/>
<path d="M2400 219 c0 -5 5 -7 10 -4 6 3 10 8 10 11 0 2 -4 4 -10 4 -5 0 -10
-5 -10 -11z"/>
<path d="M4915 3960 c-10 -11 -14 -20 -8 -20 5 0 18 9 28 20 10 11 14 20 8 20
-5 0 -18 -9 -28 -20z"/>
<path d="M3660 3920 c-11 -22 -18 -40 -15 -40 2 0 14 18 25 40 11 22 18 40 15
40 -2 0 -14 -18 -25 -40z"/>
<path d="M4819 3881 c-67 -61 -79 -74 -74 -79 3 -3 17 7 33 21 15 15 43 40 62
56 19 16 32 32 29 36 -4 3 -26 -12 -50 -34z"/>
<path d="M3620 3850 c-6 -11 -8 -20 -6 -20 3 0 10 9 16 20 6 11 8 20 6 20 -3
0 -10 -9 -16 -20z"/>
<path d="M3580 3780 c-6 -11 -8 -20 -6 -20 3 0 10 9 16 20 6 11 8 20 6 20 -3
0 -10 -9 -16 -20z"/>
<path d="M4705 3779 c-5 -5 -23 -21 -40 -34 -16 -14 -25 -25 -19 -25 6 0 19 9
29 20 10 11 24 20 30 20 7 0 15 7 19 15 6 17 -4 19 -19 4z"/>
<path d="M5558 3621 c-5 -85 -8 -237 -8 -337 l0 -183 -77 -4 -78 -3 78 -2 c75
-2 77 -3 77 -28 0 -14 -4 -23 -10 -19 -5 3 -10 1 -10 -4 0 -19 -78 -13 -89 7
-6 9 -11 11 -11 5 0 -7 -7 -13 -15 -13 -22 0 -22 -385 0 -414 8 -11 17 -17 21
-14 3 4 12 54 20 113 17 135 27 155 49 100 8 -22 20 -47 25 -56 5 -9 7 -41 6
-70 -3 -48 -3 -49 4 -14 4 22 8 -199 8 -491 l2 -532 -22 -6 c-13 -3 -47 -6
-75 -6 l-53 0 0 -65 c0 -71 0 -72 64 -54 30 8 45 8 63 -2 20 -11 23 -20 23
-70 0 -51 -2 -58 -17 -52 -10 3 -36 24 -58 47 -63 64 -75 54 -75 -60 l0 -94
75 0 75 0 0 -48 0 -47 -75 3 -75 4 0 -75 c0 -51 4 -77 13 -80 10 -4 10 -6 0
-6 -10 -1 -13 -42 -13 -173 0 -94 3 -168 7 -164 4 4 6 22 5 41 -2 18 4 47 12
64 9 17 16 55 16 89 0 53 3 60 30 80 16 13 42 25 57 28 l28 6 -6 -119 c-7
-128 -14 -162 -49 -238 -13 -27 -24 -62 -25 -77 0 -14 -8 -35 -18 -45 -13 -15
-14 -22 -5 -31 7 -7 18 -12 25 -12 7 0 13 -4 13 -9 0 -5 11 -11 25 -13 13 -3
22 -1 19 3 -3 5 -12 9 -20 9 -8 0 -14 5 -14 10 0 6 11 10 25 10 24 0 25 -2 25
-69 l0 -69 -40 19 c-50 24 -59 24 -33 0 11 -11 31 -21 44 -23 20 -2 24 -9 27
-46 l3 -43 -37 4 c-20 3 -40 11 -45 18 -4 7 -11 11 -14 7 -4 -3 16 -21 44 -39
l51 -34 0 -66 0 -67 -39 19 c-22 10 -49 31 -61 46 -12 15 -67 53 -123 85 -145
81 -138 77 -291 172 -77 48 -144 85 -148 84 -5 -2 39 -32 99 -67 59 -35 135
-80 168 -101 33 -20 89 -54 125 -75 119 -70 168 -105 173 -124 4 -17 89 -79
130 -94 20 -7 20 -7 7 28 -6 16 -11 621 -12 1683 -1 911 -5 1738 -8 1837 l-5
180 -7 -154z m-60 -698 c-10 -2 -26 -2 -35 0 -10 3 -2 5 17 5 19 0 27 -2 18
-5z m-18 -23 c0 -5 -4 -10 -10 -10 -5 0 -10 5 -10 10 0 6 5 10 10 10 6 0 10
-4 10 -10z m47 -82 c-2 -13 -4 -3 -4 22 0 25 2 35 4 23 2 -13 2 -33 0 -45z
m20 0 c-2 -13 -4 -3 -4 22 0 25 2 35 4 23 2 -13 2 -33 0 -45z m-37 -1732 c0
-8 -4 -17 -9 -21 -12 -7 -24 12 -16 25 9 15 25 12 25 -4z m40 -447 c0 -64 -4
-98 -10 -94 -14 9 -8 195 6 195 2 0 4 -45 4 -101z"/>
<path d="M4601 3690 c-31 -26 -17 -26 16 0 14 11 22 20 17 20 -5 -1 -20 -10
-33 -20z"/>
<path d="M3500 3640 c-6 -11 -8 -20 -6 -20 3 0 10 9 16 20 6 11 8 20 6 20 -3
0 -10 -9 -16 -20z"/>
<path d="M4502 3613 c-33 -27 -126 -104 -208 -173 -82 -69 -187 -155 -233
-190 -135 -105 -143 -112 -128 -132 12 -15 17 -12 58 25 25 23 81 74 124 112
44 39 84 75 90 81 5 5 30 26 55 46 25 20 77 65 115 101 39 36 96 85 127 109
48 36 78 68 64 68 -2 0 -31 -21 -64 -47z"/>
<path d="M5385 3586 c-22 -13 -103 -60 -180 -106 -77 -45 -177 -103 -222 -127
l-82 -44 -4 38 c-4 38 -1 -10 9 -159 l6 -76 244 121 244 122 0 42 c0 24 -3 43
-7 43 -4 0 -36 -18 -72 -41 -36 -22 -75 -45 -86 -52 -11 -7 -31 -19 -45 -29
-26 -17 -193 -103 -242 -125 -17 -7 -28 -8 -28 -2 0 5 10 13 23 18 26 10 57
44 77 84 11 22 107 88 185 127 62 31 223 127 233 139 6 8 12 23 12 33 0 24
-17 23 -65 -6z"/>
<path d="M2863 3363 c9 -2 23 -2 30 0 6 3 -1 5 -18 5 -16 0 -22 -2 -12 -5z"/>
<path d="M3091 3154 c0 -11 3 -14 6 -6 3 7 2 16 -1 19 -3 4 -6 -2 -5 -13z"/>
<path d="M677 3104 c3 -8 9 -14 14 -14 5 0 8 -10 6 -21 -1 -12 4 -24 11 -26
10 -4 13 5 10 33 -2 32 -7 39 -25 40 -14 1 -20 -3 -16 -12z"/>
<path d="M2588 3093 c7 -3 16 -2 19 1 4 3 -2 6 -13 5 -11 0 -14 -3 -6 -6z"/>
<path d="M420 3076 c16 -15 393 -221 425 -232 32 -11 6 12 -45 39 -25 13 -120
65 -212 116 -166 90 -196 104 -168 77z"/>
<path d="M4222 3025 c-12 -174 -13 -199 -2 -183 6 11 9 56 7 115 -1 54 -4 85
-5 68z"/>
<path d="M4137 2925 c-10 -121 -21 -902 -13 -894 7 7 30 907 24 955 -2 16 -7
-11 -11 -61z"/>
<path d="M4098 2830 c-4 -80 -10 -264 -12 -410 l-5 -265 15 305 c7 168 13 352
11 410 l-2 105 -7 -145z"/>
<path d="M2957 2953 c-11 -10 -8 -25 3 -18 6 3 10 -1 10 -10 0 -9 4 -14 9 -10
17 10 24 -18 8 -30 -20 -15 -12 -25 21 -25 18 0 23 4 18 16 -3 8 -2 12 4 9 17
-10 5 33 -15 55 -18 20 -45 26 -58 13z"/>
<path d="M2580 2940 c0 -5 7 -10 15 -10 8 0 15 5 15 10 0 6 -7 10 -15 10 -8 0
-15 -4 -15 -10z"/>
<path d="M1664 2908 c-8 -12 299 -9 316 2 10 7 -37 9 -148 8 -90 -2 -166 -6
-168 -10z"/>
<path d="M1467 2803 c-4 -3 -7 -349 -6 -767 0 -419 3 -755 6 -748 2 6 10 9 16
6 8 -5 8 -2 0 7 -10 10 -13 175 -13 755 0 585 3 743 13 747 6 3 7 6 1 6 -6 1
-14 -2 -17 -6z"/>
<path d="M1591 2806 c3 -3 266 -14 391 -16 4 0 9 -224 11 -497 l2 -498 3 508
2 507 -207 0 c-113 0 -204 -2 -202 -4z"/>
<path d="M300 2060 c0 -314 4 -570 8 -570 9 0 338 65 381 75 13 3 22 8 20 9
-2 2 -47 -4 -99 -14 -125 -25 -140 -25 -140 -1 0 11 -5 23 -11 27 -8 4 -9 -3
-4 -24 6 -30 6 -30 -52 -42 -32 -6 -64 -13 -70 -15 -10 -4 -13 112 -13 554 l0
558 168 -52 c167 -53 247 -74 207 -55 -29 13 -370 120 -384 120 -8 0 -11 -151
-11 -570z"/>
<path d="M2062 2425 c0 -16 2 -22 5 -12 2 9 2 23 0 30 -3 6 -5 -1 -5 -18z"/>
<path d="M2061 2314 c0 -11 3 -14 6 -6 3 7 2 16 -1 19 -3 4 -6 -2 -5 -13z"/>
<path d="M3523 2230 c0 -36 2 -50 4 -32 2 17 2 47 0 65 -2 17 -4 3 -4 -33z"/>
<path d="M460 2256 c0 -21 11 -46 20 -46 4 0 10 9 13 20 3 11 1 18 -4 14 -5
-3 -9 2 -9 10 0 9 -4 16 -10 16 -5 0 -10 -6 -10 -14z"/>
<path d="M3543 2190 c0 -30 2 -43 4 -27 2 15 2 39 0 55 -2 15 -4 2 -4 -28z"/>
<path d="M5326 2196 c-10 -19 -18 -53 -18 -76 1 -24 -4 -43 -12 -46 -7 -3 -13
-11 -14 -19 -1 -8 -3 -22 -4 -30 -1 -8 -7 -15 -13 -15 -7 0 -20 -16 -31 -35
-15 -29 -16 -37 -5 -44 9 -6 4 -10 -17 -13 -17 -2 -29 -1 -27 3 3 4 -2 9 -10
13 -16 6 -21 41 -6 50 14 9 22 -6 10 -21 -20 -23 6 -14 29 10 30 32 29 49 -2
37 -13 -5 -27 -6 -30 -3 -3 3 -13 0 -22 -8 -16 -13 -16 -12 -5 9 9 16 21 22
49 23 20 0 46 4 57 8 16 7 14 9 -14 14 -28 6 -31 10 -26 28 6 18 4 21 -10 16
-9 -4 -22 -7 -28 -7 -7 0 -4 -5 6 -11 9 -5 17 -15 17 -22 0 -9 -2 -9 -8 0 -4
6 -20 15 -36 19 -23 5 -27 4 -21 -6 6 -10 4 -12 -9 -7 -26 10 -40 -3 -19 -18
17 -13 17 -14 -4 -22 l-23 -8 24 -26 c19 -21 22 -29 13 -39 -10 -10 -7 -12 10
-7 24 5 34 -10 26 -41 -4 -17 -1 -20 16 -15 18 4 21 1 22 -23 1 -16 1 -34 0
-41 -2 -12 14 -19 62 -27 31 -5 34 1 10 21 -10 8 -13 12 -6 9 7 -4 9 1 6 12
-3 14 -11 18 -29 14 -14 -2 -24 0 -24 7 0 6 7 11 15 11 8 0 15 7 15 15 0 8 7
15 15 15 8 0 15 6 15 13 0 8 4 7 10 -3 5 -8 10 -43 10 -77 0 -61 19 -101 41
-88 5 4 17 1 26 -4 11 -6 13 -11 5 -11 -7 0 -11 -4 -8 -9 4 -5 1 -11 -5 -13
-5 -2 -7 -11 -3 -21 7 -19 31 -17 27 2 -4 15 14 14 20 -1 3 -7 6 -4 6 7 0 11
-3 27 -9 35 -6 9 -5 17 3 22 9 6 7 11 -5 19 -10 5 -18 14 -18 19 0 5 8 11 18
13 16 4 16 5 0 6 -21 1 -24 24 -5 40 15 11 22 206 9 226 -11 16 -8 109 3 117
6 4 -2 8 -17 8 -16 0 -28 6 -30 16 -2 10 -9 3 -22 -20z m41 -142 c-3 -3 -12
-4 -19 -1 -8 3 -5 6 6 6 11 1 17 -2 13 -5z m20 -50 c-3 -3 -12 -4 -19 -1 -8 3
-5 6 6 6 11 1 17 -2 13 -5z"/>
<path d="M5225 2190 c-4 -7 3 -8 22 -4 38 9 42 14 10 14 -14 0 -29 -5 -32 -10z"/>
<path d="M5083 2183 c-15 -5 -17 -23 -4 -23 5 0 11 7 15 15 3 8 4 15 3 14 -1
0 -8 -3 -14 -6z"/>
<path d="M3523 2125 c0 -22 2 -30 4 -17 2 12 2 30 0 40 -3 9 -5 -1 -4 -23z"/>
<path d="M4901 2093 c-1 -35 4 -65 10 -69 7 -4 9 0 5 13 -5 17 -2 20 23 18 17
-1 28 2 25 7 -3 4 -16 8 -29 8 -15 0 -23 5 -20 13 3 6 1 26 -4 42 -8 26 -9 21
-10 -32z"/>
<path d="M4954 2128 c-3 -4 4 -8 15 -8 12 0 21 4 21 8 0 5 -7 9 -15 9 -9 0
-18 -4 -21 -9z"/>
<path d="M5120 2131 c0 -5 -3 -16 -6 -25 -8 -20 19 -22 34 -3 8 10 6 16 -9 25
-10 7 -19 8 -19 3z"/>
<path d="M571 2114 c0 -11 3 -14 6 -6 3 7 2 16 -1 19 -3 4 -6 -2 -5 -13z"/>
<path d="M3542 2110 c0 -14 2 -19 5 -12 2 6 2 18 0 25 -3 6 -5 1 -5 -13z"/>
<path d="M5086 2105 c-3 -8 -1 -15 4 -15 6 0 10 7 10 15 0 8 -2 15 -4 15 -2 0
-6 -7 -10 -15z"/>
<path d="M598 2084 c-5 -4 -8 -14 -8 -22 0 -9 3 -12 7 -9 3 4 12 2 20 -4 9 -9
13 -8 13 0 0 6 -4 11 -9 11 -5 0 -11 7 -13 16 -2 9 -6 12 -10 8z"/>
<path d="M2061 2074 c0 -11 3 -14 6 -6 3 7 2 16 -1 19 -3 4 -6 -2 -5 -13z"/>
<path d="M3544 1865 c0 -121 2 -169 3 -107 2 62 2 161 0 220 -1 59 -3 8 -3
-113z"/>
<path d="M3524 1960 c0 -63 1 -89 3 -57 2 31 2 83 0 115 -2 31 -3 5 -3 -58z"/>
<path d="M511 2044 c0 -11 3 -14 6 -6 3 7 2 16 -1 19 -3 4 -6 -2 -5 -13z"/>
<path d="M5035 2050 c-3 -5 1 -10 10 -10 9 0 13 5 10 10 -3 6 -8 10 -10 10 -2
0 -7 -4 -10 -10z"/>
<path d="M446 1995 c4 -73 23 -109 37 -72 3 6 6 2 6 -10 1 -12 6 -25 11 -28 6
-3 10 -31 10 -61 0 -37 4 -53 11 -49 6 4 13 -2 16 -14 8 -29 22 -16 21 19 -1
23 -4 27 -13 20 -17 -14 -24 5 -17 48 3 25 9 33 21 29 15 -3 15 1 7 39 -6 23
-13 42 -16 42 -16 -1 -19 5 -9 28 12 34 7 39 -24 20 -29 -20 -54 -12 -60 17
-2 12 -3 0 -1 -28z m94 -64 c0 -3 -4 -12 -9 -20 -7 -10 -12 -8 -25 10 -25 37
-21 53 9 33 14 -9 25 -19 25 -23z"/>
<path d="M3392 2030 c0 -14 2 -19 5 -12 2 6 2 18 0 25 -3 6 -5 1 -5 -13z"/>
<path d="M568 2008 c-2 -7 -1 -29 3 -48 6 -34 6 -33 8 13 1 46 -3 59 -11 35z"/>
<path d="M4998 2013 c7 -3 16 -2 19 1 4 3 -2 6 -13 5 -11 0 -14 -3 -6 -6z"/>
<path d="M621 1984 c0 -11 3 -14 6 -6 3 7 2 16 -1 19 -3 4 -6 -2 -5 -13z"/>
<path d="M5070 1980 c0 -5 7 -10 16 -10 8 0 12 5 9 10 -3 6 -10 10 -16 10 -5
0 -9 -4 -9 -10z"/>
<path d="M4114 1870 c0 -63 1 -89 3 -57 2 31 2 83 0 115 -2 31 -3 5 -3 -58z"/>
<path d="M5060 1945 c0 -8 5 -15 10 -15 6 0 10 7 10 15 0 8 -4 15 -10 15 -5 0
-10 -7 -10 -15z"/>
<path d="M3391 1934 c0 -11 3 -14 6 -6 3 7 2 16 -1 19 -3 4 -6 -2 -5 -13z"/>
<path d="M5122 1921 c-11 -7 -11 -9 0 -14 9 -3 15 1 15 9 0 8 -1 14 -1 14 -1
0 -7 -4 -14 -9z"/>
<path d="M5095 1900 c6 -10 4 -12 -8 -7 -9 3 -19 2 -22 -3 -4 -6 -3 -10 2 -10
4 0 14 -14 22 -31 10 -23 16 -28 22 -18 5 8 4 15 -1 17 -6 2 -7 14 -4 27 3 13
0 26 -7 30 -8 6 -10 4 -4 -5z"/>
<path d="M477 1874 c-13 -14 -7 -54 8 -54 16 0 18 14 6 43 -3 10 -10 15 -14
11z"/>
<path d="M4956 1863 c-14 -14 -5 -31 14 -26 11 3 20 9 20 13 0 10 -26 20 -34
13z"/>
<path d="M5140 1849 c0 -11 5 -17 10 -14 6 3 10 13 10 21 0 8 -4 14 -10 14 -5
0 -10 -9 -10 -21z"/>
<path d="M5050 1855 c0 -20 16 -34 29 -26 9 6 10 11 2 15 -6 4 -11 4 -11 -1 0
-4 -5 -1 -10 7 -5 8 -10 11 -10 5z"/>
<path d="M3394 1745 c0 -55 1 -76 3 -47 2 29 2 74 0 100 -2 26 -3 2 -3 -53z"/>
<path d="M3482 1815 c0 -16 2 -22 5 -12 2 9 2 23 0 30 -3 6 -5 -1 -5 -18z"/>
<path d="M3524 1745 c0 -55 1 -76 3 -47 2 29 2 74 0 100 -2 26 -3 2 -3 -53z"/>
<path d="M3374 1740 c0 -52 1 -74 3 -47 2 26 2 68 0 95 -2 26 -3 4 -3 -48z"/>
<path d="M3312 1800 c0 -14 2 -19 5 -12 2 6 2 18 0 25 -3 6 -5 1 -5 -13z"/>
<path d="M4985 1810 c3 -5 8 -10 11 -10 2 0 4 5 4 10 0 6 -5 10 -11 10 -5 0
-7 -4 -4 -10z"/>
<path d="M5172 1808 c3 -14 18 -28 31 -28 14 0 7 15 -13 28 -16 10 -20 10 -18
0z"/>
<path d="M450 1791 c0 -11 5 -23 10 -26 6 -4 10 5 10 19 0 14 -4 26 -10 26 -5
0 -10 -9 -10 -19z"/>
<path d="M5091 1788 c16 -32 17 -32 17 -3 0 15 -6 25 -15 25 -11 0 -11 -4 -2
-22z"/>
<path d="M487 1785 c-3 -11 -8 -32 -11 -48 l-7 -28 21 21 c17 17 19 27 12 48
-8 24 -9 25 -15 7z"/>
<path d="M3313 1705 c0 -33 2 -45 4 -27 2 18 2 45 0 60 -2 15 -4 0 -4 -33z"/>
<path d="M3353 1705 c0 -33 2 -45 4 -27 2 18 2 45 0 60 -2 15 -4 0 -4 -33z"/>
<path d="M3413 1705 c0 -33 2 -45 4 -27 2 18 2 45 0 60 -2 15 -4 0 -4 -33z"/>
<path d="M3483 1705 c0 -33 2 -45 4 -27 2 18 2 45 0 60 -2 15 -4 0 -4 -33z"/>
<path d="M3503 1705 c0 -33 2 -45 4 -27 2 18 2 45 0 60 -2 15 -4 0 -4 -33z"/>
<path d="M570 1736 c0 -8 5 -18 10 -21 6 -3 10 1 10 9 0 8 -4 18 -10 21 -5 3
-10 -1 -10 -9z"/>
<path d="M5145 1740 c3 -4 0 -10 -6 -12 -6 -2 2 -9 17 -16 24 -10 26 -10 12 1
-15 12 -15 14 -1 23 13 8 12 10 -6 11 -12 1 -19 -2 -16 -7z"/>
<path d="M5254 1730 c1 -17 36 -27 36 -10 0 7 -6 10 -14 7 -8 -3 -17 -1 -19 6
-2 7 -3 5 -3 -3z"/>
<path d="M4940 1730 c0 -5 5 -10 10 -10 6 0 10 5 10 10 0 6 -4 10 -10 10 -5 0
-10 -4 -10 -10z"/>
<path d="M5193 1710 c1 -13 8 -20 21 -20 18 0 19 1 1 20 -10 11 -19 20 -21 20
-1 0 -2 -9 -1 -20z"/>
<path d="M3123 1685 c0 -22 2 -30 4 -17 2 12 2 30 0 40 -3 9 -5 -1 -4 -23z"/>
<path d="M3252 1680 c0 -19 2 -27 5 -17 2 9 2 25 0 35 -3 9 -5 1 -5 -18z"/>
<path d="M3332 1680 c0 -19 2 -27 5 -17 2 9 2 25 0 35 -3 9 -5 1 -5 -18z"/>
<path d="M3272 1675 c0 -16 2 -22 5 -12 2 9 2 23 0 30 -3 6 -5 -1 -5 -18z"/>
<path d="M3292 1675 c0 -16 2 -22 5 -12 2 9 2 23 0 30 -3 6 -5 -1 -5 -18z"/>
<path d="M467 1669 c4 -13 8 -18 11 -10 2 7 -1 18 -6 23 -8 8 -9 4 -5 -13z"/>
<path d="M3102 1670 c0 -14 2 -19 5 -12 2 6 2 18 0 25 -3 6 -5 1 -5 -13z"/>
<path d="M3142 1670 c0 -14 2 -19 5 -12 2 6 2 18 0 25 -3 6 -5 1 -5 -13z"/>
<path d="M3182 1670 c0 -14 2 -19 5 -12 2 6 2 18 0 25 -3 6 -5 1 -5 -13z"/>
<path d="M3462 1670 c0 -14 2 -19 5 -12 2 6 2 18 0 25 -3 6 -5 1 -5 -13z"/>
<path d="M3071 1664 c0 -11 3 -14 6 -6 3 7 2 16 -1 19 -3 4 -6 -2 -5 -13z"/>
<path d="M3430 1665 c0 -8 4 -15 10 -15 5 0 7 7 4 15 -4 8 -8 15 -10 15 -2 0
-4 -7 -4 -15z"/>
<path d="M506 1605 c-3 -9 -6 -24 -5 -33 0 -9 5 -4 10 12 9 32 6 48 -5 21z"/>
<path d="M359 1252 c11 -16 25 -41 31 -56 6 -18 17 -26 33 -26 13 0 32 -7 43
-15 10 -8 27 -15 37 -15 9 0 17 -4 17 -9 0 -16 -71 5 -154 45 -28 13 -58 24
-68 24 -10 0 -40 15 -66 34 -42 29 -54 33 -97 29 -28 -3 -69 -15 -92 -29 l-43
-25 0 -421 0 -420 30 4 c21 3 27 1 20 -6 -17 -17 -11 -28 12 -24 16 2 22 9 20
20 -2 10 3 18 10 18 7 0 24 3 37 7 16 4 22 3 17 -5 -3 -6 -2 -13 3 -17 6 -3
16 7 24 22 14 27 15 27 131 28 64 1 116 -3 116 -8 0 -4 8 -6 18 -3 19 6 82 17
122 21 14 1 43 7 65 13 22 6 60 14 85 17 87 10 120 17 115 24 -2 5 6 6 20 4
21 -5 25 0 31 33 7 39 -1 452 -10 493 -8 36 -24 46 -88 60 -32 7 -58 17 -58
22 0 10 69 2 108 -12 13 -5 28 -9 34 -9 14 0 3 87 -13 106 -12 15 -76 35 -124
40 -16 1 -52 7 -80 13 -119 25 -116 25 -109 -6 l6 -28 -16 23 c-10 12 -25 22
-35 22 -10 0 -36 6 -57 13 -22 8 -52 17 -67 21 l-29 7 21 -29z m188 -94 c-3
-8 -6 -5 -6 6 -1 11 2 17 5 13 3 -3 4 -12 1 -19z m58 -33 c75 -12 105 -25 105
-46 0 -22 -8 -24 -24 -5 -10 12 -64 31 -128 43 -16 3 -28 10 -28 15 0 5 8 7
18 4 9 -3 35 -8 57 -11z"/>
<path d="M5265 1190 c-8 -13 -1 -24 14 -19 6 3 7 10 2 18 -6 10 -10 10 -16 1z"/>
<path d="M5345 1150 c-3 -5 -1 -10 4 -10 6 0 11 5 11 10 0 6 -2 10 -4 10 -3 0
-8 -4 -11 -10z"/>
<path d="M4233 1060 c0 -36 2 -50 4 -32 2 17 2 47 0 65 -2 17 -4 3 -4 -33z"/>
<path d="M5003 1012 c-42 -2 -73 -7 -73 -13 0 -6 25 -9 63 -8 53 2 62 0 59
-14 -2 -12 4 -17 18 -17 12 0 19 4 15 9 -10 18 16 23 34 7 21 -19 37 -20 45
-3 3 9 9 7 19 -5 15 -19 47 -25 47 -9 0 11 -85 41 -115 41 -11 0 -25 3 -30 8
-6 4 -43 6 -82 4z"/>
<path d="M1490 993 c0 -10 4 -14 8 -8 4 6 11 13 16 18 5 4 2 7 -7 7 -10 0 -17
-8 -17 -17z"/>
<path d="M4231 933 c0 -28 -4 -60 -7 -70 -6 -17 -6 -17 11 -2 14 14 16 24 7
70 l-10 54 -1 -52z"/>
<path d="M4094 959 c-6 -11 13 -39 27 -39 5 0 9 9 9 19 0 21 -26 36 -36 20z"/>
<path d="M4965 920 c5 -15 3 -18 -9 -14 -9 3 -16 10 -16 16 0 5 -5 6 -10 3
-15 -9 19 -62 43 -69 28 -7 37 1 37 33 0 29 -16 51 -38 51 -9 0 -11 -7 -7 -20z"/>
<path d="M4281 884 c0 -11 3 -14 6 -6 3 7 2 16 -1 19 -3 4 -6 -2 -5 -13z"/>
<path d="M4163 883 c9 -2 23 -2 30 0 6 3 -1 5 -18 5 -16 0 -22 -2 -12 -5z"/>
<path d="M4950 792 c0 -5 9 -17 20 -27 11 -10 20 -26 20 -35 0 -23 18 -29 105
-37 66 -5 72 -4 77 14 5 18 -1 21 -40 27 -25 3 -50 10 -56 16 -7 5 -27 12 -46
15 -19 3 -45 13 -57 21 -13 8 -23 11 -23 6z"/>
<path d="M4900 640 c0 -14 24 -32 88 -66 48 -26 159 -89 247 -140 88 -51 162
-90 164 -89 2 2 1 14 -3 27 -4 17 -32 36 -108 73 -57 28 -104 53 -106 58 -2 4
-12 7 -23 7 -10 0 -19 4 -19 8 0 5 -16 14 -35 22 -19 8 -35 17 -35 21 0 4 -16
13 -35 19 -19 6 -35 15 -35 19 0 4 -16 13 -35 20 -19 7 -35 16 -35 21 0 4 -7
10 -15 14 -10 3 -15 -1 -15 -14z"/>
<path d="M5400 600 c0 -18 4 -29 10 -25 6 3 10 0 10 -7 0 -8 5 -7 16 4 18 18
13 33 -17 48 -17 10 -19 7 -19 -20z"/>
<path d="M4900 564 c0 -8 5 -12 10 -9 6 4 8 11 5 16 -9 14 -15 11 -15 -7z"/>
<path d="M908 543 c10 -4 9 -8 -4 -17 -15 -12 -14 -15 12 -39 16 -15 33 -27
38 -27 4 0 2 -8 -5 -17 -12 -15 -12 -16 4 -10 10 4 23 7 28 7 18 0 9 16 -18
32 -17 11 -22 18 -12 18 8 0 21 -6 28 -12 10 -11 10 -8 3 12 -7 19 -5 28 12
42 21 17 21 17 -12 18 -20 0 -31 -4 -27 -10 3 -5 -1 -10 -10 -10 -9 0 -13 5
-10 10 3 6 -4 10 -17 9 -13 0 -17 -3 -10 -6z"/>
<path d="M5423 384 c9 -3 15 -10 12 -15 -4 -5 -1 -9 5 -9 19 0 5 25 -16 27
-16 2 -16 1 -1 -3z"/>
<path d="M3700 331 c36 -30 46 -32 37 -8 -3 8 -20 20 -39 26 l-33 12 35 -30z"/>
<path d="M470 339 c0 -5 5 -7 10 -4 6 3 10 8 10 11 0 2 -4 4 -10 4 -5 0 -10
-5 -10 -11z"/>
<path d="M5 329 c-11 -16 -1 -19 13 -3 7 8 8 14 3 14 -5 0 -13 -5 -16 -11z"/>
<path d="M3640 311 c0 -6 5 -13 10 -16 6 -3 10 1 10 9 0 9 -4 16 -10 16 -5 0
-10 -4 -10 -9z"/>
<path d="M3074 280 c-11 -12 -30 -22 -42 -23 -16 -1 -18 -4 -10 -14 6 -7 19
-13 30 -13 10 0 17 -4 13 -10 -3 -5 -12 -7 -20 -3 -20 7 -19 -11 0 -27 11 -10
19 -10 27 -2 6 6 17 8 26 5 10 -4 13 -2 8 5 -3 6 0 15 9 19 12 7 12 12 1 34
-7 13 -11 30 -8 37 6 19 -11 14 -34 -8z"/>
<path d="M3280 277 c-11 -21 -20 -27 -39 -25 -23 3 -26 -1 -27 -32 -1 -21 5
-40 15 -48 14 -11 13 -12 -6 -7 -14 4 -23 2 -23 -4 0 -8 144 -11 472 -11 259
0 469 2 466 5 -3 3 -114 6 -247 5 -192 0 -241 2 -235 12 6 10 4 11 -7 1 -31
-29 -129 -9 -129 26 0 6 -7 11 -15 11 -8 0 -15 -4 -15 -8 0 -4 -15 -6 -34 -4
-26 3 -37 -1 -51 -20 -11 -15 -19 -19 -22 -10 -3 6 -13 12 -24 12 -24 0 -25
27 -1 33 10 3 6 5 -10 6 -20 1 -28 6 -28 20 0 15 -5 18 -22 14 -17 -3 -19 -2
-10 5 8 5 12 18 10 28 -4 16 -7 15 -18 -9z m7 -63 c-3 -3 -12 -4 -19 -1 -8 3
-5 6 6 6 11 1 17 -2 13 -5z m191 -51 c-10 -2 -28 -2 -40 0 -13 2 -5 4 17 4 22
1 32 -1 23 -4z"/>
<path d="M3670 274 c0 -8 5 -12 10 -9 6 4 8 11 5 16 -9 14 -15 11 -15 -7z"/>
<path d="M4157 269 c7 -7 15 -10 18 -7 3 3 -2 9 -12 12 -14 6 -15 5 -6 -5z"/>
<path d="M120 255 c-17 -10 -20 -14 -9 -15 9 0 22 7 29 15 15 18 12 18 -20 0z"/>
<path d="M4204 255 c11 -8 22 -12 25 -9 6 6 -19 24 -34 24 -5 -1 -1 -7 9 -15z"/>
<path d="M3148 173 c7 -3 16 -2 19 1 4 3 -2 6 -13 5 -11 0 -14 -3 -6 -6z"/>
<path d="M4270 159 c-30 -3 136 -5 370 -5 234 0 367 2 295 3 -305 7 -614 8
-665 2z"/>
<path d="M4178 153 c7 -3 16 -2 19 1 4 3 -2 6 -13 5 -11 0 -14 -3 -6 -6z"/>
<path d="M5088 153 c7 -3 16 -2 19 1 4 3 -2 6 -13 5 -11 0 -14 -3 -6 -6z"/>
</g>
</svg>
